{"glyphs":{"0":{"ha":694,"x_min":60,"x_max":677,"o":"m 60 309 q 161 760 60 564 q 431 957 262 957 q 519 941 480 957 q 586 901 559 925 q 631 839 612 876 q 664 742 650 801 q 677 610 677 684 q 655 406 677 513 q 595 215 633 299 q 509 74 557 130 q 411 -5 462 18 q 300 -29 361 -29 q 166 14 220 -29 q 86 127 113 57 q 60 309 60 198 m 218 153 q 238 57 218 90 q 299 24 259 24 q 354 42 330 24 q 398 103 378 59 q 446 264 418 147 q 496 532 475 382 q 518 773 518 682 q 494 870 518 838 q 431 903 469 903 q 391 892 410 903 q 352 852 372 882 q 311 751 333 822 q 266 555 290 681 q 230 332 241 429 q 218 153 218 235 z "},"1":{"ha":694,"x_min":55,"x_max":603,"o":"m 59 -7 l 55 -1 l 64 37 l 72 43 q 210 54 181 45 q 226 66 218 57 q 241 96 235 75 q 288 338 253 140 l 342 652 q 368 816 366 793 q 277 772 357 808 l 117 700 l 104 710 l 127 803 q 407 891 302 848 q 538 955 511 935 l 564 936 q 500 590 554 901 l 432 203 q 418 94 418 126 q 432 59 418 69 q 505 45 446 48 q 598 42 564 42 l 603 36 l 594 -1 l 587 -7 l 564 -5 q 448 -2 555 -5 q 326 0 340 0 q 59 -7 198 0 z "},"2":{"ha":694,"x_min":-1,"x_max":629,"o":"m 4 -5 l -1 1 l 4 33 q 66 94 12 43 q 243 279 143 165 q 399 495 344 393 q 454 680 454 597 q 419 789 454 749 q 315 829 385 829 q 237 813 269 829 q 185 771 205 798 q 134 686 165 744 l 126 682 l 94 693 l 92 701 l 168 884 q 267 943 218 929 q 363 957 315 957 q 501 928 441 957 q 593 846 562 899 q 625 716 625 792 q 618 647 625 677 q 593 583 611 617 q 535 496 576 548 q 453 402 494 444 q 322 273 412 361 l 191 147 l 192 139 l 265 138 l 439 140 q 553 143 525 141 q 618 153 582 146 l 629 142 q 585 0 614 111 l 578 -5 q 298 0 393 0 l 4 -5 z "},"3":{"ha":694,"x_min":14,"x_max":624,"o":"m 14 39 l 54 253 l 60 258 l 94 255 l 100 248 q 96 181 96 210 q 138 65 96 102 q 244 28 179 28 q 392 112 340 28 q 443 307 443 195 q 404 431 443 388 q 290 475 364 475 q 192 455 248 475 l 184 463 l 207 534 q 252 530 225 530 q 409 585 359 530 q 460 719 460 640 q 423 814 460 783 q 330 845 387 845 q 232 819 273 845 q 156 728 191 792 l 148 724 l 119 736 l 117 744 l 192 893 q 280 941 225 926 q 391 957 334 957 q 561 907 497 957 q 624 768 624 858 q 607 686 624 725 q 560 619 591 648 q 486 563 530 590 q 410 526 441 535 l 409 520 q 570 452 519 508 q 621 309 621 395 q 576 153 621 229 q 443 25 532 76 q 235 -26 353 -26 q 123 -13 172 -26 q 18 31 75 0 l 14 39 z "},"4":{"ha":694,"x_min":7,"x_max":676,"o":"m 141 -5 l 136 0 l 146 37 l 154 43 q 236 47 189 44 q 293 54 284 50 q 308 70 301 58 q 325 131 315 81 q 346 250 335 181 l 12 247 l 7 253 l 13 299 l 99 437 q 210 601 140 501 l 307 736 q 442 911 334 773 q 610 959 542 931 l 629 943 q 591 744 612 863 l 522 355 q 669 360 576 355 l 676 355 l 652 253 l 644 248 q 503 251 566 251 q 489 158 497 210 q 481 83 481 106 q 490 58 481 66 q 528 47 498 51 q 632 41 557 43 l 637 35 l 629 1 l 622 -5 q 552 -3 620 -5 q 394 0 454 0 q 141 -5 337 0 m 367 355 l 416 643 l 431 724 l 450 831 q 278 598 389 755 q 120 355 166 441 q 207 353 163 353 q 367 355 273 353 z "},"5":{"ha":694,"x_min":12,"x_max":658,"o":"m 12 46 q 48 243 39 157 l 54 248 l 84 244 l 89 238 q 86 203 86 222 q 129 78 86 125 q 244 31 171 31 q 391 123 337 31 q 446 332 446 215 q 408 461 446 415 q 295 507 370 507 q 213 487 248 507 q 148 423 178 467 l 105 441 q 193 935 178 809 l 200 940 q 427 930 284 930 q 650 937 573 930 l 658 923 l 595 798 q 425 788 486 788 q 233 793 273 788 l 175 516 q 369 586 252 586 q 501 558 441 586 q 592 471 560 530 q 625 349 625 412 q 585 184 625 269 q 457 38 546 99 q 244 -24 369 -24 q 14 39 115 -24 l 12 46 z "},"6":{"ha":694,"x_min":55,"x_max":677,"o":"m 647 838 l 636 834 q 519 882 589 882 q 346 767 414 882 q 247 470 278 652 q 456 578 341 578 q 601 520 543 578 q 659 359 659 463 q 637 229 659 291 q 586 127 616 166 q 505 49 557 88 q 406 -10 453 9 q 301 -29 359 -29 q 163 10 220 -29 q 80 119 106 49 q 55 280 55 189 q 76 459 55 368 q 129 616 97 549 q 209 748 160 683 q 325 862 258 812 q 454 934 393 911 q 572 957 515 957 q 677 935 623 957 l 647 838 m 221 204 q 338 37 221 37 q 452 131 416 37 q 488 324 488 224 q 456 449 488 414 q 374 485 424 485 q 260 407 300 485 q 221 204 221 328 z "},"7":{"ha":694,"x_min":98,"x_max":753,"o":"m 106 -5 l 98 12 q 246 239 151 88 l 302 326 q 391 460 326 362 l 505 627 l 572 728 q 608 779 592 758 q 545 781 570 781 q 230 780 283 781 q 110 772 178 779 l 103 783 l 111 823 q 132 935 126 892 l 139 943 q 220 939 153 943 q 282 937 258 937 q 359 936 306 936 l 512 934 q 624 932 613 932 q 747 937 672 932 l 753 930 l 750 885 q 582 619 688 800 q 382 250 476 438 q 267 0 288 62 l 259 -5 q 174 -3 200 -3 q 106 -5 147 -3 z "},"8":{"ha":694,"x_min":39,"x_max":671,"o":"m 265 456 q 169 538 201 491 q 136 654 136 585 q 161 767 136 716 q 236 860 186 817 q 341 929 286 902 q 467 957 396 957 q 612 908 552 957 q 671 773 671 859 q 659 703 671 736 q 622 640 647 669 q 574 591 597 610 q 469 520 550 573 q 630 300 630 439 q 612 204 630 254 q 563 117 595 153 q 476 43 532 81 q 374 -12 420 5 q 271 -29 329 -29 q 103 27 168 -29 q 39 180 39 84 q 48 247 39 216 q 76 306 57 277 q 126 363 95 334 q 178 404 158 391 q 265 456 199 417 m 429 544 q 523 631 484 583 q 562 746 562 680 q 522 854 562 819 q 422 890 482 890 q 313 845 356 890 q 270 732 270 800 q 299 640 270 682 q 429 544 328 597 m 307 430 q 197 336 243 397 q 151 197 151 275 q 194 81 151 124 q 307 37 238 37 q 395 59 354 37 q 459 129 436 81 q 483 226 483 176 q 447 327 483 281 q 307 430 410 372 z "},"9":{"ha":694,"x_min":38,"x_max":680,"o":"m 73 -6 q 59 65 72 15 q 38 138 47 116 l 70 153 q 227 41 119 41 q 338 83 290 41 q 424 222 386 125 q 487 455 461 319 q 285 341 390 341 q 137 401 196 341 q 79 579 79 460 q 97 704 79 645 q 150 803 116 762 q 239 881 184 844 q 337 936 294 918 q 435 954 380 954 q 568 916 509 954 q 653 805 627 878 q 680 646 680 732 q 659 464 680 561 q 588 269 637 366 q 466 103 538 172 q 325 2 393 33 q 187 -29 258 -29 q 73 -6 137 -29 m 246 593 q 278 481 246 521 q 362 441 310 441 q 441 473 407 441 q 492 572 476 505 q 508 711 508 640 q 496 803 508 760 q 455 865 484 845 q 390 885 426 885 q 329 868 356 885 q 285 817 302 851 q 257 732 269 783 q 245 623 245 681 l 246 593 z "},"A":{"ha":1003,"x_min":-46,"x_max":953,"o":"m -41 -5 l -46 1 l -41 36 l -35 41 q 26 47 18 45 q 42 55 34 49 q 58 73 50 61 q 111 161 66 85 l 190 296 l 382 626 l 499 823 q 575 957 551 909 l 707 957 l 735 755 l 767 531 l 793 348 l 814 211 l 828 129 q 851 58 836 73 q 948 41 867 42 l 953 35 l 949 1 l 942 -5 q 737 0 789 0 q 539 -5 692 0 l 534 1 l 539 35 l 546 41 q 630 52 612 41 q 648 84 648 62 q 616 370 648 132 q 535 370 554 370 l 431 370 l 309 370 q 224 214 269 300 q 171 104 180 127 q 163 73 163 81 q 177 52 163 60 q 277 41 191 43 l 282 35 l 277 0 l 271 -5 q 221 -3 270 -5 q 122 0 156 0 q -41 -5 102 0 m 342 431 q 381 431 374 431 q 608 431 592 431 l 555 798 l 342 431 m 650 1012 m 406 -44 z "},"B":{"ha":926,"x_min":28,"x_max":876,"o":"m 33 -4 l 28 1 l 33 37 l 39 43 l 59 48 q 110 68 101 58 q 138 179 119 79 q 203 552 157 279 q 250 869 250 824 q 242 893 250 886 q 221 903 233 901 q 127 909 209 905 l 122 915 l 127 952 l 134 958 q 344 953 224 953 q 433 956 349 953 q 594 958 513 958 q 707 950 657 958 q 797 916 757 941 q 857 852 837 890 q 876 766 876 814 q 862 688 876 726 q 820 618 848 650 q 754 564 792 587 q 693 534 715 541 q 592 506 670 526 q 783 438 728 492 q 838 298 838 385 q 725 80 838 169 q 447 -8 611 -8 q 336 -5 401 -8 q 220 0 260 0 q 33 -4 119 0 m 368 524 q 420 522 391 522 q 547 535 504 522 q 621 576 589 548 q 672 653 653 604 q 692 754 692 703 q 651 852 692 813 q 507 892 610 892 q 433 888 471 892 q 404 728 430 867 l 368 524 m 294 71 q 451 54 403 54 q 604 130 557 54 q 650 295 650 207 q 629 390 650 349 q 564 448 607 431 q 430 465 522 465 q 357 463 393 464 l 331 306 q 294 71 308 171 z "},"C":{"ha":951,"x_min":92,"x_max":955,"o":"m 865 159 l 850 104 q 671 8 763 46 q 467 -29 579 -29 q 261 16 347 -29 q 133 141 175 60 q 92 339 92 221 q 147 616 92 485 q 353 861 202 748 q 690 973 503 973 q 781 967 733 973 q 874 946 828 960 q 954 911 921 932 l 955 903 q 905 682 915 774 l 899 676 l 862 676 l 856 682 q 859 794 859 788 q 852 823 859 812 q 812 852 844 833 q 731 882 780 871 q 630 893 683 893 q 509 876 564 893 q 406 811 453 858 q 331 690 358 765 q 292 533 303 615 q 281 374 281 451 q 315 188 281 252 q 409 94 349 123 q 545 64 469 64 q 628 72 586 64 q 707 94 669 80 q 850 172 745 109 l 865 159 z "},"D":{"ha":1080,"x_min":28,"x_max":1048,"o":"m 127 952 l 134 958 q 355 953 231 953 l 613 957 q 876 911 787 957 q 1007 781 966 865 q 1048 593 1048 696 q 990 325 1048 460 q 800 92 932 189 q 490 -5 667 -5 q 366 -3 455 -5 q 237 0 281 0 q 33 -4 119 0 l 28 1 l 33 37 l 39 43 l 59 48 q 110 68 101 58 q 138 179 119 79 q 203 552 157 279 q 250 869 250 824 q 242 893 250 886 q 221 903 233 901 q 127 909 209 905 l 122 915 l 127 952 m 294 82 l 389 69 q 500 60 454 60 q 627 80 576 60 q 715 144 677 101 q 783 250 753 188 q 835 409 812 311 q 857 607 857 507 q 842 721 857 671 q 803 804 827 771 q 744 859 779 838 q 668 887 709 880 q 570 894 627 894 q 434 886 489 894 q 409 744 431 853 l 350 414 q 294 82 305 159 z "},"E":{"ha":848,"x_min":28,"x_max":843,"o":"m 28 1 l 33 37 l 39 43 q 103 62 92 56 q 113 72 109 66 q 124 107 117 78 q 173 376 131 136 l 225 679 q 250 869 250 829 q 242 894 250 886 q 221 903 233 902 q 127 909 209 905 l 122 915 l 127 952 l 134 958 q 424 953 241 953 q 836 958 456 953 l 843 949 q 823 834 842 933 q 808 735 814 781 l 802 730 l 767 730 l 762 735 q 764 830 764 814 q 759 858 764 850 q 735 872 754 865 q 663 884 716 879 q 562 890 610 890 q 439 882 488 890 l 397 670 q 372 531 387 623 q 559 528 519 528 q 690 531 620 528 l 694 523 l 677 463 l 669 457 q 416 463 543 460 q 361 462 393 463 l 318 219 q 295 66 299 114 l 408 66 q 556 71 493 66 q 643 81 620 75 q 677 102 666 88 q 703 174 688 115 q 721 233 707 189 l 726 238 l 766 238 l 771 233 l 726 1 l 718 -5 q 570 -3 610 -3 l 271 0 q 33 -4 168 0 l 28 1 m 536 1012 m 375 -44 z "},"F":{"ha":772,"x_min":-12,"x_max":821,"o":"m 130 951 l 136 958 q 347 953 229 953 l 587 955 q 815 958 678 955 l 821 949 q 803 839 816 911 q 787 736 789 767 l 780 731 l 745 731 l 740 736 q 742 830 741 783 q 738 858 742 850 q 720 871 734 865 q 656 884 705 878 q 553 890 607 890 q 443 883 494 890 q 414 736 431 845 q 369 481 409 709 l 411 479 q 693 490 614 479 l 699 481 l 682 417 l 675 411 q 427 414 572 414 q 356 411 384 414 q 307 85 307 123 q 322 54 307 63 q 363 44 336 45 l 435 41 l 439 35 l 435 1 l 429 -5 q 206 0 351 0 q -7 -5 95 0 l -12 1 l -7 35 l -1 41 q 30 43 5 41 q 102 55 89 45 q 124 102 115 65 q 198 507 134 139 q 253 869 253 821 q 244 893 253 886 q 223 903 235 901 q 129 909 212 905 l 125 915 l 130 951 z "},"G":{"ha":1080,"x_min":103,"x_max":1039,"o":"m 905 63 l 900 58 q 791 26 866 52 q 623 -20 686 -10 q 505 -29 559 -29 q 210 67 317 -29 q 103 347 103 163 q 133 545 103 448 q 214 713 162 642 q 365 851 267 783 q 548 946 464 920 q 722 973 631 973 q 881 955 801 973 q 1002 909 961 937 l 1007 900 l 976 785 q 954 679 964 742 l 948 673 l 909 673 l 905 679 q 910 808 910 753 q 673 885 817 885 q 512 856 582 885 q 394 753 442 827 q 318 569 346 680 q 290 353 290 459 q 359 120 290 201 q 555 39 427 39 q 718 79 648 39 l 744 184 q 759 258 751 214 q 766 314 766 303 q 760 333 766 325 q 745 342 753 340 q 697 347 737 345 q 628 349 658 349 l 623 355 l 630 391 l 636 397 q 825 393 766 393 q 1034 397 854 393 l 1039 391 l 1034 355 l 1027 349 q 974 342 990 349 q 948 322 957 336 q 929 252 940 307 l 916 193 q 903 125 905 140 q 901 92 901 109 q 905 63 901 78 z "},"H":{"ha":1081,"x_min":-20,"x_max":1140,"o":"m 769 538 q 819 869 819 825 q 814 890 819 882 q 797 901 808 897 q 756 906 786 904 l 695 909 l 690 915 l 696 952 l 702 958 q 892 953 781 953 q 1136 958 980 953 l 1140 952 l 1134 915 l 1128 909 q 1041 904 1051 907 q 1023 895 1030 901 q 1010 876 1016 888 q 982 751 1002 856 l 895 243 q 873 85 873 115 q 887 55 873 64 q 932 44 901 45 l 1001 41 l 1006 35 l 1002 1 l 996 -5 q 787 0 917 0 q 559 -5 664 0 l 555 1 l 559 35 l 565 41 q 596 43 571 41 q 664 52 652 45 q 685 82 676 60 q 714 222 693 104 l 758 472 l 568 473 l 359 472 q 298 85 298 132 q 313 55 298 64 q 356 44 327 45 l 426 41 l 431 35 l 427 1 l 420 -5 q 212 0 332 0 q -16 -5 89 0 l -20 1 l -17 35 l -10 41 q 21 43 -4 41 q 89 52 78 45 q 109 82 100 60 q 146 261 118 104 l 208 621 q 243 869 243 825 q 238 890 243 882 q 222 901 233 897 q 181 906 211 904 l 120 909 l 115 915 l 121 952 l 127 958 q 317 953 208 953 q 561 958 389 953 l 565 952 l 559 915 l 553 909 q 467 904 478 907 q 448 894 456 902 q 431 862 439 886 q 404 732 422 838 l 370 538 q 571 533 504 533 l 769 538 z "},"I":{"ha":541,"x_min":1,"x_max":586,"o":"m 5 -5 l 1 1 l 5 35 l 11 41 q 42 43 17 41 q 110 52 99 45 q 130 81 121 60 q 166 260 139 103 l 229 621 q 264 869 264 825 q 260 888 264 881 q 245 900 256 896 q 203 906 235 904 l 141 909 l 136 915 l 142 951 l 148 958 q 362 953 240 953 q 582 958 412 953 l 586 952 l 580 915 l 574 909 q 487 904 496 907 q 469 895 476 901 q 456 876 462 888 q 427 743 448 854 l 338 229 q 319 85 319 113 q 334 54 319 63 q 376 44 348 45 l 447 41 l 452 35 l 448 1 l 441 -5 q 218 0 363 0 q 5 -5 107 0 m 380 1012 m 205 -44 z "},"J":{"ha":541,"x_min":-85,"x_max":608,"o":"m 162 909 l 158 915 l 163 951 l 170 958 q 383 953 262 953 q 603 958 435 953 l 608 952 l 602 915 l 595 909 q 509 904 520 907 q 490 895 498 901 q 476 872 483 888 q 452 763 469 855 l 362 245 q 319 7 332 63 q 243 -176 292 -101 q 132 -281 193 -250 q -14 -312 71 -312 q -75 -305 -45 -312 l -85 -274 l -79 -262 q -34 -265 -56 -265 q 57 -247 28 -265 q 105 -187 86 -229 q 159 59 125 -145 l 239 542 q 286 867 286 821 q 278 893 286 885 q 257 903 269 901 q 162 909 244 905 z "},"K":{"ha":1003,"x_min":1,"x_max":1055,"o":"m 380 473 q 481 555 423 503 q 648 714 540 608 q 788 857 757 821 q 825 904 820 892 q 829 934 829 916 l 829 951 l 835 957 q 884 953 865 953 q 1050 957 980 953 l 1055 951 l 1049 913 l 1043 907 q 983 902 998 906 q 948 886 968 898 q 856 811 928 873 q 706 675 784 749 l 551 529 l 817 150 q 891 57 873 71 q 962 41 910 43 l 966 35 l 963 1 l 956 -5 l 935 -5 q 793 0 846 0 q 709 -5 758 0 q 552 231 614 141 q 378 464 490 321 l 345 266 q 324 135 329 174 q 319 85 319 97 q 334 54 319 63 q 375 44 349 45 l 447 41 l 452 35 l 448 1 l 441 -5 q 218 0 363 0 q 5 -5 107 0 l 1 1 l 5 35 l 11 41 q 42 43 17 41 q 110 52 99 45 q 130 81 121 60 q 166 260 139 103 l 229 621 q 264 869 264 825 q 260 888 264 881 q 245 900 256 896 q 203 906 235 904 l 141 909 l 136 915 l 142 951 l 148 958 q 362 953 240 953 q 582 958 412 953 l 586 952 l 580 915 l 574 909 q 488 904 499 907 q 468 894 477 902 q 451 861 459 886 q 422 714 444 836 l 380 473 z "},"L":{"ha":848,"x_min":54,"x_max":797,"o":"m 54 1 l 58 37 l 65 43 q 126 61 116 55 q 135 68 132 64 q 142 79 138 71 q 169 208 151 105 l 255 713 q 275 869 275 838 q 266 893 275 886 q 245 903 257 901 q 151 909 233 905 l 146 915 l 151 951 l 158 958 q 372 953 254 953 q 591 958 404 953 l 595 952 l 590 915 l 584 909 q 497 904 508 907 q 477 893 486 901 q 459 852 468 884 q 427 691 450 821 l 342 205 q 321 66 324 113 l 433 66 q 582 71 519 66 q 669 81 646 75 q 703 102 692 88 q 729 174 713 115 q 747 233 732 189 l 752 238 l 792 238 l 797 233 q 784 165 795 216 q 767 79 775 125 q 751 1 757 23 l 744 -5 q 578 -3 630 -3 l 304 0 q 58 -4 147 0 l 54 1 z "},"M":{"ha":1311,"x_min":-31,"x_max":1364,"o":"m 1051 957 q 1166 950 1151 950 l 1358 957 l 1364 951 l 1360 916 l 1352 909 q 1318 906 1345 909 q 1277 899 1291 903 q 1254 885 1263 895 q 1239 853 1245 874 q 1221 774 1232 831 l 1126 228 q 1107 85 1107 106 q 1118 57 1107 65 q 1164 46 1130 49 l 1227 40 l 1232 35 l 1226 0 l 1219 -4 q 1011 0 1113 0 q 808 -4 915 0 l 803 1 l 807 35 l 812 39 q 902 54 887 50 q 927 94 917 58 q 960 258 938 129 l 1011 559 l 1050 811 q 619 94 764 354 l 553 -25 l 515 -25 l 429 332 l 319 762 l 216 347 q 161 88 161 121 q 173 54 161 63 q 271 40 185 45 l 277 35 l 272 1 l 267 -4 q 119 0 196 0 q -25 -4 42 0 l -31 1 l -28 35 l -21 40 q 56 60 45 47 q 96 170 67 73 q 167 427 124 267 l 245 724 q 273 856 273 831 q 236 899 273 893 q 144 908 199 905 l 140 916 l 144 950 l 150 956 q 309 951 254 951 q 449 956 370 951 l 522 652 l 625 243 q 694 355 682 335 l 958 798 l 1051 957 z "},"N":{"ha":1080,"x_min":-1,"x_max":1146,"o":"m 831 197 q 940 864 940 801 q 924 897 940 888 q 883 907 907 906 q 822 911 858 908 l 817 918 l 823 951 l 829 957 l 865 957 q 1008 953 982 953 q 1140 957 1030 953 l 1146 951 l 1143 917 l 1136 911 q 1063 907 1075 909 q 1039 887 1051 904 q 999 734 1026 870 l 905 253 q 864 -11 884 144 l 745 -11 l 314 751 q 204 89 204 172 q 223 53 204 61 q 264 44 242 45 q 322 40 286 43 l 326 35 l 321 0 l 315 -4 l 279 -4 q 129 0 148 0 q 3 -5 101 0 l -1 0 l 1 35 l 7 40 q 83 47 74 43 q 102 61 93 52 q 121 112 112 71 l 149 243 q 182 410 168 334 l 260 832 q 207 895 224 886 q 96 911 189 903 l 92 917 l 96 951 l 104 957 q 203 954 163 954 l 395 957 l 518 737 l 831 197 z "},"O":{"ha":1157,"x_min":104,"x_max":1095,"o":"m 104 360 q 119 502 104 413 q 180 683 134 591 q 302 842 227 775 q 470 941 376 908 q 675 973 564 973 q 839 950 761 973 q 980 872 918 928 q 1069 740 1043 817 q 1095 569 1095 664 q 939 144 1095 319 q 520 -30 783 -30 q 293 16 388 -30 q 151 149 198 62 q 104 360 104 235 m 294 317 q 320 165 294 230 q 410 66 346 100 q 549 33 474 33 q 729 97 658 33 q 852 319 800 161 q 905 621 905 477 q 835 843 905 777 q 655 909 766 909 q 487 862 552 909 q 375 711 421 814 q 311 500 329 609 q 294 317 294 391 m 683 1012 m 500 -44 z "},"P":{"ha":926,"x_min":15,"x_max":932,"o":"m 162 958 q 361 953 243 953 q 556 956 460 953 q 654 958 611 958 q 807 931 751 958 q 898 852 864 905 q 932 724 932 798 q 830 488 932 585 q 589 391 728 391 q 451 417 523 391 l 445 460 l 449 466 q 547 447 500 447 q 654 486 608 447 q 724 589 701 525 q 747 720 747 653 q 703 849 747 804 q 571 894 659 894 q 469 883 540 894 q 425 648 444 760 l 380 391 q 336 113 354 245 q 334 85 334 98 q 345 57 334 66 q 389 45 356 47 l 461 41 l 466 35 l 462 1 l 456 -5 q 248 0 357 0 q 20 -5 118 0 l 15 1 l 19 35 l 25 41 q 56 43 31 41 q 125 53 113 45 q 145 81 136 60 q 181 262 153 102 l 244 624 q 279 869 279 825 q 274 888 279 881 q 260 900 270 896 q 218 906 250 904 l 155 909 l 151 915 l 156 951 l 162 958 z "},"Q":{"ha":1157,"x_min":104,"x_max":1095,"o":"m 414 -21 q 185 100 267 3 q 104 355 104 196 q 136 572 104 457 q 242 780 168 688 q 426 923 317 872 q 675 973 535 973 q 904 924 808 973 q 1047 788 1000 876 q 1095 569 1095 701 q 1022 262 1095 399 q 823 48 948 125 q 522 -30 697 -30 q 440 -24 480 -30 q 671 -114 511 -43 q 816 -173 763 -155 q 909 -190 869 -190 q 950 -179 929 -190 q 988 -144 971 -168 q 1018 -69 1006 -119 l 1024 -65 l 1057 -77 l 1061 -83 q 985 -251 1038 -186 q 858 -315 933 -315 q 799 -307 828 -315 q 740 -285 769 -298 q 645 -233 711 -271 q 448 -126 503 -151 q 349 -100 393 -100 q 277 -135 307 -100 q 245 -239 247 -169 l 239 -243 l 210 -224 l 205 -215 q 204 -205 204 -208 q 231 -104 204 -149 q 300 -39 258 -60 q 380 -19 342 -19 q 414 -21 391 -19 m 294 317 q 320 165 294 230 q 410 66 346 100 q 549 33 474 33 q 729 97 658 33 q 852 319 800 161 q 905 621 905 477 q 835 843 905 777 q 655 909 766 909 q 487 862 552 909 q 375 711 421 814 q 311 500 329 609 q 294 317 294 391 z "},"R":{"ha":1003,"x_min":3,"x_max":970,"o":"m 811 189 q 879 77 864 98 q 906 50 895 57 q 964 40 918 43 l 970 35 l 966 1 l 960 -4 q 844 0 909 0 q 714 -4 781 0 q 431 497 529 351 l 436 519 q 476 518 456 518 q 663 577 595 518 q 730 749 730 637 q 562 896 730 896 q 453 885 491 896 l 363 363 q 322 98 322 131 l 322 83 q 332 56 322 65 q 379 45 342 47 l 450 40 l 454 35 l 450 1 l 444 -4 q 221 0 332 0 q 8 -4 111 0 l 3 0 l 7 35 l 14 40 l 46 43 q 105 48 86 45 q 139 106 125 51 q 170 260 153 162 l 232 619 q 267 868 267 820 q 255 897 267 891 q 205 905 243 903 l 144 909 l 139 916 l 144 951 l 151 957 q 366 953 237 953 l 633 958 q 861 897 808 958 q 914 760 914 836 q 849 600 914 671 q 629 497 785 528 l 811 189 z "},"S":{"ha":772,"x_min":63,"x_max":736,"o":"m 700 709 l 693 703 l 661 703 l 655 709 q 656 746 656 734 l 655 816 q 582 872 631 852 q 475 893 532 893 q 374 872 420 893 q 303 805 328 850 q 279 705 279 759 q 294 635 279 663 q 332 592 309 608 q 384 567 356 576 q 489 543 411 558 q 594 516 558 530 q 654 479 629 503 q 693 417 678 455 q 707 332 707 378 q 651 155 707 240 q 506 21 594 71 q 307 -29 417 -29 q 173 -9 238 -29 q 66 43 109 10 l 63 51 q 82 152 69 72 q 97 254 96 232 l 104 260 l 136 260 l 142 254 l 140 178 q 142 140 140 169 q 221 78 161 108 q 351 48 282 48 q 507 106 455 48 q 559 239 559 165 q 548 298 559 272 q 520 339 536 325 q 482 362 504 354 q 414 381 460 370 q 255 429 304 408 q 176 501 206 451 q 146 627 146 551 q 203 808 146 730 q 343 930 259 887 q 524 973 427 973 q 733 913 646 973 l 736 905 q 700 709 712 808 z "},"T":{"ha":848,"x_min":81,"x_max":934,"o":"m 161 41 q 193 43 168 41 q 259 51 248 45 q 279 77 269 58 q 319 275 288 96 l 376 605 l 423 880 q 285 879 331 880 q 213 871 239 877 q 182 861 187 865 q 168 842 176 857 q 149 785 159 826 q 132 717 138 743 l 125 711 l 86 711 l 81 718 q 115 949 98 809 l 123 958 q 216 954 138 958 q 515 947 363 947 q 740 950 608 947 q 924 958 871 953 l 934 946 q 892 717 895 752 l 886 711 l 846 711 l 842 717 q 848 819 848 772 q 840 864 848 854 q 790 878 831 874 q 681 881 749 881 l 605 880 l 551 595 l 489 232 q 471 106 475 144 q 470 85 470 94 q 481 57 470 66 q 526 45 492 47 l 597 41 l 602 35 l 598 1 l 592 -5 q 369 0 513 0 q 156 -5 263 0 l 151 1 l 155 35 l 161 41 z "},"U":{"ha":1080,"x_min":110,"x_max":1160,"o":"m 895 86 q 906 55 895 63 q 947 45 918 46 l 1021 40 l 1025 35 l 1021 1 l 1015 -5 q 868 0 904 0 l 705 -3 l 699 5 q 732 176 724 116 q 539 13 615 53 q 382 -28 463 -28 q 192 36 250 -28 q 134 184 134 100 q 184 543 134 270 q 233 865 233 817 q 221 895 233 884 q 115 909 210 905 l 110 916 l 115 951 l 125 957 q 236 956 181 957 l 346 953 q 437 957 389 953 l 446 946 q 415 796 433 893 l 374 579 l 334 343 q 319 224 319 260 q 365 121 319 154 q 471 89 410 89 q 568 111 522 89 q 665 177 615 133 q 729 243 715 221 q 753 328 743 266 l 822 750 q 839 865 839 848 q 823 899 839 892 q 714 909 806 905 l 710 916 l 715 951 l 722 957 q 936 953 828 953 q 1156 957 983 953 l 1160 953 l 1154 916 l 1147 908 q 1058 904 1066 906 q 1039 892 1049 901 q 1018 834 1029 883 q 993 703 1007 785 l 911 228 q 895 86 891 115 m 627 1012 m 480 -44 z "},"V":{"ha":926,"x_min":96,"x_max":1034,"o":"m 347 -10 q 308 257 345 20 l 262 551 l 212 844 q 200 888 205 878 q 192 897 197 893 q 179 904 187 901 q 102 909 164 909 l 96 916 l 102 951 l 110 958 l 273 954 l 500 958 l 505 951 l 500 918 l 494 912 q 409 900 423 909 q 395 871 395 890 q 411 719 395 824 l 492 191 l 650 483 q 719 614 675 530 q 799 777 763 699 q 839 867 835 854 q 842 886 842 880 q 826 903 842 899 q 733 912 810 908 l 728 918 l 733 952 l 740 958 q 779 956 741 958 q 868 954 844 954 l 1028 958 l 1034 951 l 1029 915 l 1023 909 q 978 905 992 909 q 954 889 963 901 q 906 807 944 877 l 568 194 q 462 -10 471 18 l 347 -10 z "},"W":{"ha":1389,"x_min":97,"x_max":1487,"o":"m 1236 665 q 1299 871 1299 825 q 1281 902 1299 894 q 1186 909 1263 909 l 1182 916 l 1186 951 l 1193 958 q 1358 953 1312 953 q 1482 957 1421 953 l 1487 951 l 1485 916 l 1479 908 q 1415 896 1426 908 q 1360 772 1404 883 l 1126 197 q 1044 -11 1096 123 l 928 -11 q 882 176 907 82 l 747 686 l 406 -11 l 290 -11 l 256 395 q 222 723 237 602 q 201 870 208 843 q 179 902 193 897 q 103 909 164 907 l 97 916 l 103 953 l 110 958 l 314 954 q 500 958 439 954 l 505 953 l 500 916 l 494 909 q 408 899 427 909 q 389 851 389 888 q 401 663 389 804 l 441 205 l 572 473 l 806 962 l 850 962 l 1054 186 l 1236 665 z "},"X":{"ha":1003,"x_min":-13,"x_max":1074,"o":"m 720 958 q 859 952 792 952 l 1070 958 l 1074 952 l 1069 916 l 1063 909 q 985 902 1001 909 q 922 849 970 895 q 755 676 873 802 l 618 529 l 747 272 q 861 61 846 74 q 956 42 877 47 l 960 36 l 955 1 l 948 -4 l 734 0 q 531 -4 717 0 l 527 1 l 532 36 l 539 41 q 624 50 606 43 q 642 74 642 58 q 637 98 642 82 q 601 178 632 114 l 543 296 l 492 393 l 368 254 q 293 165 338 221 q 243 97 249 110 q 237 78 237 85 q 261 50 237 59 q 356 41 285 41 l 360 35 l 356 1 l 348 -5 l 301 -3 q 138 0 189 0 q -8 -5 66 0 l -13 1 l -7 35 l -1 41 q 77 51 56 42 q 136 102 98 60 l 460 453 l 323 726 q 276 813 311 750 q 231 889 242 877 q 207 904 219 901 q 116 909 195 907 l 111 916 l 117 952 l 122 958 l 364 954 q 558 958 455 954 l 562 952 l 557 915 l 551 909 l 505 908 q 459 900 468 906 q 451 882 451 893 q 539 680 451 851 l 587 586 l 696 710 l 747 772 q 799 837 777 806 q 824 874 821 867 q 827 886 827 881 q 810 902 827 897 q 713 909 794 907 l 708 916 l 713 952 l 720 958 z "},"Y":{"ha":848,"x_min":78,"x_max":935,"o":"m 201 41 q 233 43 210 41 q 295 50 284 45 q 315 70 307 55 q 336 144 324 84 l 359 266 q 370 342 370 326 q 328 525 370 380 q 253 735 286 670 q 191 819 220 800 q 127 838 161 838 q 84 826 106 838 l 78 832 l 78 863 l 83 872 q 150 924 120 899 q 200 967 196 965 q 241 971 229 971 q 307 957 274 971 q 373 894 340 942 q 437 747 407 846 q 491 534 468 649 q 515 422 511 439 q 573 554 550 506 q 644 680 597 602 q 742 822 690 758 q 826 912 793 886 q 884 948 859 939 q 935 958 908 957 l 926 831 q 854 803 887 824 q 756 711 810 775 q 649 554 701 647 q 571 398 596 461 q 528 225 547 334 q 510 85 510 117 q 525 54 510 63 q 565 44 540 45 l 637 41 l 642 35 l 638 1 l 632 -5 q 409 0 553 0 q 196 -5 303 0 l 191 1 l 195 35 l 201 41 m 550 1012 m 395 -44 z "},"Z":{"ha":926,"x_min":1,"x_max":942,"o":"m 458 68 q 770 92 671 68 q 784 119 777 104 q 799 152 791 134 q 813 188 806 169 q 832 246 820 207 l 839 253 l 876 253 l 884 245 q 829 0 852 125 l 822 -5 q 781 -7 803 -7 q 730 -5 767 -7 l 621 -1 q 467 0 591 0 l 216 0 q 7 -5 118 0 l 1 1 l 8 39 q 119 171 21 48 l 293 386 l 685 882 l 510 882 q 362 879 408 882 q 278 871 317 876 q 235 862 239 866 q 214 818 230 858 q 184 724 198 778 l 176 717 l 139 717 l 134 722 q 171 949 167 905 l 179 958 q 624 953 392 953 q 936 957 703 953 l 942 951 l 936 914 q 736 672 832 794 l 262 69 l 458 68 z "},"Á":{"ha":1003,"x_min":-46,"x_max":953,"o":"m -41 -5 l -46 1 l -41 36 l -35 41 q 26 47 18 45 q 42 55 34 49 q 58 73 50 61 q 111 161 66 85 l 190 296 l 382 626 l 499 823 q 575 957 551 909 l 707 957 l 735 755 l 767 531 l 793 348 l 814 211 l 828 129 q 851 58 836 73 q 948 41 867 42 l 953 35 l 949 1 l 942 -5 q 737 0 789 0 q 539 -5 692 0 l 534 1 l 539 35 l 546 41 q 630 52 612 41 q 648 84 648 62 q 616 370 648 132 q 535 370 554 370 l 431 370 l 309 370 q 224 214 269 300 q 171 104 180 127 q 163 73 163 81 q 177 52 163 60 q 277 41 191 43 l 282 35 l 277 0 l 271 -5 q 221 -3 270 -5 q 122 0 156 0 q -41 -5 102 0 m 342 431 q 381 431 374 431 q 608 431 592 431 l 555 798 l 342 431 m 650 1012 m 406 -44 m 934 1273 q 611 1049 753 1158 l 576 1067 l 581 1076 l 679 1191 q 742 1267 710 1229 l 752 1274 l 842 1282 l 924 1292 l 931 1289 l 934 1273 z "},"À":{"ha":1003,"x_min":-46,"x_max":953,"o":"m -41 -5 l -46 1 l -41 36 l -35 41 q 26 47 18 45 q 42 55 34 49 q 58 73 50 61 q 111 161 66 85 l 190 296 l 382 626 l 499 823 q 575 957 551 909 l 707 957 l 735 755 l 767 531 l 793 348 l 814 211 l 828 129 q 851 58 836 73 q 948 41 867 42 l 953 35 l 949 1 l 942 -5 q 737 0 789 0 q 539 -5 692 0 l 534 1 l 539 35 l 546 41 q 630 52 612 41 q 648 84 648 62 q 616 370 648 132 q 535 370 554 370 l 431 370 l 309 370 q 224 214 269 300 q 171 104 180 127 q 163 73 163 81 q 177 52 163 60 q 277 41 191 43 l 282 35 l 277 0 l 271 -5 q 221 -3 270 -5 q 122 0 156 0 q -41 -5 102 0 m 342 431 q 381 431 374 431 q 608 431 592 431 l 555 798 l 342 431 m 650 1012 m 406 -44 m 807 1064 l 768 1045 q 509 1272 696 1116 l 515 1288 l 524 1291 l 674 1273 l 683 1266 q 734 1183 720 1204 q 804 1073 751 1157 l 807 1064 z "},"Â":{"ha":1003,"x_min":-46,"x_max":953,"o":"m -41 -5 l -46 1 l -41 36 l -35 41 q 26 47 18 45 q 42 55 34 49 q 58 73 50 61 q 111 161 66 85 l 190 296 l 382 626 l 499 823 q 575 957 551 909 l 707 957 l 735 755 l 767 531 l 793 348 l 814 211 l 828 129 q 851 58 836 73 q 948 41 867 42 l 953 35 l 949 1 l 942 -5 q 737 0 789 0 q 539 -5 692 0 l 534 1 l 539 35 l 546 41 q 630 52 612 41 q 648 84 648 62 q 616 370 648 132 q 535 370 554 370 l 431 370 l 309 370 q 224 214 269 300 q 171 104 180 127 q 163 73 163 81 q 177 52 163 60 q 277 41 191 43 l 282 35 l 277 0 l 271 -5 q 221 -3 270 -5 q 122 0 156 0 q -41 -5 102 0 m 342 431 q 381 431 374 431 q 608 431 592 431 l 555 798 l 342 431 m 650 1012 m 406 -44 m 842 1051 l 833 1043 l 795 1043 l 664 1187 l 470 1043 l 427 1043 l 420 1053 l 634 1291 l 730 1291 l 842 1051 m 682 1249 m 937 1116 z "},"Ä":{"ha":1003,"x_min":-46,"x_max":953,"o":"m -41 -5 l -46 1 l -41 36 l -35 41 q 26 47 18 45 q 42 55 34 49 q 58 73 50 61 q 111 161 66 85 l 190 296 l 382 626 l 499 823 q 575 957 551 909 l 707 957 l 735 755 l 767 531 l 793 348 l 814 211 l 828 129 q 851 58 836 73 q 948 41 867 42 l 953 35 l 949 1 l 942 -5 q 737 0 789 0 q 539 -5 692 0 l 534 1 l 539 35 l 546 41 q 630 52 612 41 q 648 84 648 62 q 616 370 648 132 q 535 370 554 370 l 431 370 l 309 370 q 224 214 269 300 q 171 104 180 127 q 163 73 163 81 q 177 52 163 60 q 277 41 191 43 l 282 35 l 277 0 l 271 -5 q 221 -3 270 -5 q 122 0 156 0 q -41 -5 102 0 m 342 431 q 381 431 374 431 q 608 431 592 431 l 555 798 l 342 431 m 650 1012 m 406 -44 m 810 1078 q 753 1101 772 1078 q 734 1152 734 1124 q 766 1227 734 1195 q 842 1260 799 1260 q 897 1237 878 1260 q 917 1186 917 1214 q 886 1113 917 1147 q 810 1078 855 1078 m 496 1078 q 440 1101 459 1078 q 420 1152 420 1124 q 452 1227 420 1194 q 528 1260 484 1260 q 584 1237 564 1260 q 604 1186 604 1214 q 571 1111 604 1145 q 496 1078 538 1078 z "},"Ã":{"ha":1003,"x_min":-46,"x_max":953,"o":"m -41 -5 l -46 1 l -41 36 l -35 41 q 26 47 18 45 q 42 55 34 49 q 58 73 50 61 q 111 161 66 85 l 190 296 l 382 626 l 499 823 q 575 957 551 909 l 707 957 l 735 755 l 767 531 l 793 348 l 814 211 l 828 129 q 851 58 836 73 q 948 41 867 42 l 953 35 l 949 1 l 942 -5 q 737 0 789 0 q 539 -5 692 0 l 534 1 l 539 35 l 546 41 q 630 52 612 41 q 648 84 648 62 q 616 370 648 132 q 535 370 554 370 l 431 370 l 309 370 q 224 214 269 300 q 171 104 180 127 q 163 73 163 81 q 177 52 163 60 q 277 41 191 43 l 282 35 l 277 0 l 271 -5 q 221 -3 270 -5 q 122 0 156 0 q -41 -5 102 0 m 342 431 q 381 431 374 431 q 608 431 592 431 l 555 798 l 342 431 m 650 1012 m 406 -44 m 918 1260 q 859 1134 901 1177 q 764 1092 817 1092 q 637 1126 724 1092 q 528 1159 554 1159 q 453 1090 476 1159 l 415 1090 l 407 1099 q 562 1266 450 1266 q 707 1227 608 1266 q 802 1201 774 1201 q 873 1268 845 1201 l 910 1268 l 918 1260 z "},"Ă":{"ha":1003,"x_min":-46,"x_max":953,"o":"m -41 -5 l -46 1 l -41 36 l -35 41 q 26 47 18 45 q 42 55 34 49 q 58 73 50 61 q 111 161 66 85 l 190 296 l 382 626 l 499 823 q 575 957 551 909 l 707 957 l 735 755 l 767 531 l 793 348 l 814 211 l 828 129 q 851 58 836 73 q 948 41 867 42 l 953 35 l 949 1 l 942 -5 q 737 0 789 0 q 539 -5 692 0 l 534 1 l 539 35 l 546 41 q 630 52 612 41 q 648 84 648 62 q 616 370 648 132 q 535 370 554 370 l 431 370 l 309 370 q 224 214 269 300 q 171 104 180 127 q 163 73 163 81 q 177 52 163 60 q 277 41 191 43 l 282 35 l 277 0 l 271 -5 q 221 -3 270 -5 q 122 0 156 0 q -41 -5 102 0 m 342 431 q 381 431 374 431 q 608 431 592 431 l 555 798 l 342 431 m 650 1012 m 406 -44 m 894 1284 q 791 1107 862 1153 q 651 1061 721 1061 q 570 1075 606 1061 q 508 1115 533 1089 q 471 1167 484 1140 q 456 1210 458 1194 q 454 1284 454 1227 l 467 1293 l 501 1293 q 665 1166 514 1166 q 848 1293 802 1166 l 884 1293 l 894 1284 m 682 1249 z "},"Å":{"ha":1003,"x_min":-46,"x_max":953,"o":"m -41 -5 l -46 1 l -41 36 l -35 41 q 26 47 18 45 q 42 55 34 49 q 58 73 50 61 q 111 161 66 85 l 190 296 l 382 626 l 499 823 q 575 957 551 909 l 707 957 l 735 755 l 767 531 l 793 348 l 814 211 l 828 129 q 851 58 836 73 q 948 41 867 42 l 953 35 l 949 1 l 942 -5 q 737 0 789 0 q 539 -5 692 0 l 534 1 l 539 35 l 546 41 q 630 52 612 41 q 648 84 648 62 q 616 370 648 132 q 535 370 554 370 l 431 370 l 309 370 q 224 214 269 300 q 171 104 180 127 q 163 73 163 81 q 177 52 163 60 q 277 41 191 43 l 282 35 l 277 0 l 271 -5 q 221 -3 270 -5 q 122 0 156 0 q -41 -5 102 0 m 342 431 q 381 431 374 431 q 608 431 592 431 l 555 798 l 342 431 m 650 1012 m 406 -44 m 814 1183 q 767 1080 814 1124 q 656 1036 720 1036 q 555 1075 589 1036 q 522 1160 522 1114 q 572 1269 522 1230 q 681 1308 622 1308 q 780 1272 745 1308 q 814 1183 814 1236 m 749 1183 q 730 1247 749 1221 q 677 1272 711 1272 q 612 1240 637 1272 q 588 1161 588 1208 q 606 1098 588 1124 q 659 1072 625 1072 q 725 1107 701 1072 q 749 1183 749 1141 z "},"Ǻ":{"ha":1003,"x_min":-46,"x_max":953,"o":"m -41 -5 l -46 1 l -41 36 l -35 41 q 26 47 18 45 q 42 55 34 49 q 58 73 50 61 q 111 161 66 85 l 190 296 l 382 626 l 499 823 q 575 957 551 909 l 707 957 l 735 755 l 767 531 l 793 348 l 814 211 l 828 129 q 851 58 836 73 q 948 41 867 42 l 953 35 l 949 1 l 942 -5 q 737 0 789 0 q 539 -5 692 0 l 534 1 l 539 35 l 546 41 q 630 52 612 41 q 648 84 648 62 q 616 370 648 132 q 535 370 554 370 l 431 370 l 309 370 q 224 214 269 300 q 171 104 180 127 q 163 73 163 81 q 177 52 163 60 q 277 41 191 43 l 282 35 l 277 0 l 271 -5 q 221 -3 270 -5 q 122 0 156 0 q -41 -5 102 0 m 342 431 q 381 431 374 431 q 608 431 592 431 l 555 798 l 342 431 m 650 1012 m 406 -44 m 804 1104 q 757 1001 804 1045 q 646 957 710 957 q 545 996 578 957 q 512 1082 512 1036 q 562 1191 512 1152 q 671 1230 612 1230 q 769 1193 734 1230 q 804 1104 804 1157 m 739 1105 q 720 1168 739 1143 q 667 1194 701 1194 q 602 1161 627 1194 q 578 1082 578 1129 q 596 1020 578 1046 q 649 994 614 994 q 715 1028 691 994 q 739 1105 739 1063 m 900 1439 q 577 1215 719 1324 l 543 1234 l 547 1242 l 645 1357 q 708 1433 676 1395 l 718 1440 l 808 1448 l 890 1458 l 897 1455 l 900 1439 z "},"Ā":{"ha":1003,"x_min":-46,"x_max":953,"o":"m -41 -5 l -46 1 l -41 36 l -35 41 q 26 47 18 45 q 42 55 34 49 q 58 73 50 61 q 111 161 66 85 l 190 296 l 382 626 l 499 823 q 575 957 551 909 l 707 957 l 735 755 l 767 531 l 793 348 l 814 211 l 828 129 q 851 58 836 73 q 948 41 867 42 l 953 35 l 949 1 l 942 -5 q 737 0 789 0 q 539 -5 692 0 l 534 1 l 539 35 l 546 41 q 630 52 612 41 q 648 84 648 62 q 616 370 648 132 q 535 370 554 370 l 431 370 l 309 370 q 224 214 269 300 q 171 104 180 127 q 163 73 163 81 q 177 52 163 60 q 277 41 191 43 l 282 35 l 277 0 l 271 -5 q 221 -3 270 -5 q 122 0 156 0 q -41 -5 102 0 m 342 431 q 381 431 374 431 q 608 431 592 431 l 555 798 l 342 431 m 650 1012 m 406 -44 m 465 1217 l 903 1217 l 876 1118 l 437 1118 l 465 1217 z "},"Ą":{"ha":1003,"x_min":-46,"x_max":953,"o":"m 942 -5 q 817 -1 838 -1 q 713 -143 713 -85 q 731 -192 713 -172 q 779 -211 750 -211 q 868 -165 825 -211 l 879 -164 l 901 -178 l 903 -186 q 704 -294 800 -294 q 634 -269 660 -294 q 608 -199 608 -243 q 634 -114 608 -155 q 755 0 660 -73 l 737 0 q 539 -5 665 0 l 533 0 l 539 35 l 546 41 q 631 53 614 41 q 648 83 648 64 q 616 370 648 155 l 310 370 q 163 72 163 114 q 182 51 163 59 q 278 43 201 43 l 282 35 l 278 0 l 271 -5 q 121 0 205 0 q -40 -4 64 0 l -46 0 l -41 36 l -35 41 q 17 47 -5 43 q 52 67 39 51 q 109 156 66 84 l 575 957 l 707 957 l 808 250 q 844 66 833 81 q 870 46 856 52 q 949 40 885 41 l 953 35 l 949 0 l 942 -5 m 342 432 l 380 431 l 453 431 q 608 432 583 431 l 555 799 l 342 432 z "},"Æ":{"ha":1311,"x_min":-83,"x_max":1254,"o":"m -79 -5 l -83 1 l -77 35 l -70 41 q 5 55 -7 42 q 54 120 17 67 l 496 810 q 525 856 516 841 q 533 882 533 871 q 506 903 533 897 q 395 909 479 909 l 391 915 l 397 952 l 404 958 q 689 953 650 953 q 1246 958 981 953 l 1254 949 q 1216 738 1238 906 l 1208 732 l 1176 732 l 1170 738 l 1169 817 q 1166 859 1169 852 q 1152 872 1163 865 q 1087 885 1140 879 q 955 891 1034 891 q 858 888 903 891 q 823 691 834 764 q 795 528 812 617 q 938 526 888 526 q 1106 533 1049 526 l 1112 525 l 1093 460 l 1086 454 q 1038 457 1082 454 q 830 463 952 463 l 785 463 q 718 66 742 233 l 818 66 q 962 69 901 66 q 1047 80 1022 73 q 1080 95 1072 87 q 1104 152 1088 103 q 1129 235 1120 200 l 1137 241 l 1173 241 l 1177 234 q 1137 3 1139 48 l 1129 -5 q 653 0 827 0 q 448 -5 541 0 l 443 1 l 450 35 l 456 40 q 521 54 507 46 q 543 80 535 62 q 566 189 551 98 l 596 368 q 523 370 564 370 l 292 370 q 148 117 199 220 q 136 79 136 92 q 154 49 136 57 q 245 41 173 41 l 250 35 l 244 1 l 237 -5 q 62 0 129 0 q -79 -5 33 0 m 609 431 l 665 762 q 682 881 682 865 q 661 901 682 901 q 642 894 652 901 q 585 825 631 887 q 465 642 540 762 l 332 433 q 385 431 353 431 q 609 431 541 431 z "},"Ǽ":{"ha":1311,"x_min":-83,"x_max":1254,"o":"m -79 -5 l -83 1 l -77 35 l -70 41 q 5 55 -7 42 q 54 120 17 67 l 496 810 q 525 856 516 841 q 533 882 533 871 q 506 903 533 897 q 395 909 479 909 l 391 915 l 397 952 l 404 958 q 689 953 650 953 q 1246 958 981 953 l 1254 949 q 1216 738 1238 906 l 1208 732 l 1176 732 l 1170 738 l 1169 817 q 1166 859 1169 852 q 1152 872 1163 865 q 1087 885 1140 879 q 955 891 1034 891 q 858 888 903 891 q 823 691 834 764 q 795 528 812 617 q 938 526 888 526 q 1106 533 1049 526 l 1112 525 l 1093 460 l 1086 454 q 1038 457 1082 454 q 830 463 952 463 l 785 463 q 718 66 742 233 l 818 66 q 962 69 901 66 q 1047 80 1022 73 q 1080 95 1072 87 q 1104 152 1088 103 q 1129 235 1120 200 l 1137 241 l 1173 241 l 1177 234 q 1137 3 1139 48 l 1129 -5 q 653 0 827 0 q 448 -5 541 0 l 443 1 l 450 35 l 456 40 q 521 54 507 46 q 543 80 535 62 q 566 189 551 98 l 596 368 q 523 370 564 370 l 292 370 q 148 117 199 220 q 136 79 136 92 q 154 49 136 57 q 245 41 173 41 l 250 35 l 244 1 l 237 -5 q 62 0 129 0 q -79 -5 33 0 m 609 431 l 665 762 q 682 881 682 865 q 661 901 682 901 q 642 894 652 901 q 585 825 631 887 q 465 642 540 762 l 332 433 q 385 431 353 431 q 609 431 541 431 m 1103 1273 q 781 1049 922 1158 l 746 1067 l 751 1076 l 848 1191 q 911 1267 880 1229 l 922 1274 l 1011 1282 l 1093 1292 l 1101 1289 l 1103 1273 z "},"Ć":{"ha":951,"x_min":92,"x_max":968,"o":"m 865 159 l 850 104 q 671 8 763 46 q 467 -29 579 -29 q 261 16 347 -29 q 133 141 175 60 q 92 339 92 221 q 147 616 92 485 q 353 861 202 748 q 690 973 503 973 q 781 967 733 973 q 874 946 828 960 q 954 911 921 932 l 955 903 q 905 682 915 774 l 899 676 l 862 676 l 856 682 q 859 794 859 788 q 852 823 859 812 q 812 852 844 833 q 731 882 780 871 q 630 893 683 893 q 509 876 564 893 q 406 811 453 858 q 331 690 358 765 q 292 533 303 615 q 281 374 281 451 q 315 188 281 252 q 409 94 349 123 q 545 64 469 64 q 628 72 586 64 q 707 94 669 80 q 850 172 745 109 l 865 159 m 968 1273 q 645 1049 787 1158 l 610 1067 l 615 1076 l 713 1191 q 776 1267 744 1229 l 786 1274 l 876 1282 l 958 1292 l 965 1289 l 968 1273 z "},"Ĉ":{"ha":951,"x_min":92,"x_max":971,"o":"m 865 159 l 850 104 q 671 8 763 46 q 467 -29 579 -29 q 261 16 347 -29 q 133 141 175 60 q 92 339 92 221 q 147 616 92 485 q 353 861 202 748 q 690 973 503 973 q 781 967 733 973 q 874 946 828 960 q 954 911 921 932 l 955 903 q 905 682 915 774 l 899 676 l 862 676 l 856 682 q 859 794 859 788 q 852 823 859 812 q 812 852 844 833 q 731 882 780 871 q 630 893 683 893 q 509 876 564 893 q 406 811 453 858 q 331 690 358 765 q 292 533 303 615 q 281 374 281 451 q 315 188 281 252 q 409 94 349 123 q 545 64 469 64 q 628 72 586 64 q 707 94 669 80 q 850 172 745 109 l 865 159 m 876 1051 l 867 1043 l 829 1043 l 698 1187 l 504 1043 l 461 1043 l 454 1053 l 668 1291 l 764 1291 l 876 1051 m 716 1249 m 971 1116 z "},"Č":{"ha":951,"x_min":92,"x_max":955,"o":"m 865 159 l 850 104 q 671 8 763 46 q 467 -29 579 -29 q 261 16 347 -29 q 133 141 175 60 q 92 339 92 221 q 147 616 92 485 q 353 861 202 748 q 690 973 503 973 q 781 967 733 973 q 874 946 828 960 q 954 911 921 932 l 955 903 q 905 682 915 774 l 899 676 l 862 676 l 856 682 q 859 794 859 788 q 852 823 859 812 q 812 852 844 833 q 731 882 780 871 q 630 893 683 893 q 509 876 564 893 q 406 811 453 858 q 331 690 358 765 q 292 533 303 615 q 281 374 281 451 q 315 188 281 252 q 409 94 349 123 q 545 64 469 64 q 628 72 586 64 q 707 94 669 80 q 850 172 745 109 l 865 159 m 937 1282 l 723 1043 l 627 1043 l 515 1284 l 524 1291 l 562 1291 l 693 1147 l 887 1291 l 930 1291 l 937 1282 z "},"Ç":{"ha":951,"x_min":92,"x_max":956,"o":"m 510 -26 l 464 -96 q 498 -92 478 -92 q 594 -121 562 -92 q 627 -196 627 -151 q 582 -283 627 -245 q 446 -322 536 -322 q 302 -290 371 -322 l 300 -282 l 321 -249 l 330 -244 q 428 -265 382 -265 q 483 -249 460 -265 q 505 -203 505 -233 q 487 -162 505 -178 q 439 -147 469 -147 q 392 -155 431 -147 l 375 -138 l 452 -29 q 194 62 297 -29 q 92 339 92 153 q 279 803 92 631 q 692 974 467 974 q 822 960 746 974 q 953 911 897 946 l 956 903 q 904 682 915 779 l 899 676 l 863 676 l 856 682 l 860 794 q 854 820 861 810 q 811 847 848 829 q 733 876 774 865 q 635 886 692 886 q 424 811 503 886 q 313 598 345 735 q 281 349 281 462 q 350 140 281 216 q 546 64 419 64 q 850 172 690 64 l 865 160 l 850 104 q 510 -26 663 -20 z "},"Ċ":{"ha":951,"x_min":92,"x_max":955,"o":"m 865 159 l 850 104 q 671 8 763 46 q 467 -29 579 -29 q 261 16 347 -29 q 133 141 175 60 q 92 339 92 221 q 147 616 92 485 q 353 861 202 748 q 690 973 503 973 q 781 967 733 973 q 874 946 828 960 q 954 911 921 932 l 955 903 q 905 682 915 774 l 899 676 l 862 676 l 856 682 q 859 794 859 788 q 852 823 859 812 q 812 852 844 833 q 731 882 780 871 q 630 893 683 893 q 509 876 564 893 q 406 811 453 858 q 331 690 358 765 q 292 533 303 615 q 281 374 281 451 q 315 188 281 252 q 409 94 349 123 q 545 64 469 64 q 628 72 586 64 q 707 94 669 80 q 850 172 745 109 l 865 159 m 686 1078 q 631 1100 652 1078 q 610 1152 610 1122 q 643 1227 610 1195 q 718 1260 675 1260 q 774 1237 754 1260 q 793 1186 793 1214 q 761 1111 793 1145 q 686 1078 728 1078 z "},"Ď":{"ha":1080,"x_min":28,"x_max":1048,"o":"m 127 952 l 134 958 q 355 953 231 953 l 613 957 q 876 911 787 957 q 1007 781 966 865 q 1048 593 1048 696 q 990 325 1048 460 q 800 92 932 189 q 490 -5 667 -5 q 366 -3 455 -5 q 237 0 281 0 q 33 -4 119 0 l 28 1 l 33 37 l 39 43 l 59 48 q 110 68 101 58 q 138 179 119 79 q 203 552 157 279 q 250 869 250 824 q 242 893 250 886 q 221 903 233 901 q 127 909 209 905 l 122 915 l 127 952 m 294 82 l 389 69 q 500 60 454 60 q 627 80 576 60 q 715 144 677 101 q 783 250 753 188 q 835 409 812 311 q 857 607 857 507 q 842 721 857 671 q 803 804 827 771 q 744 859 779 838 q 668 887 709 880 q 570 894 627 894 q 434 886 489 894 q 409 744 431 853 l 350 414 q 294 82 305 159 m 835 1282 l 621 1043 l 526 1043 l 414 1284 l 422 1291 l 460 1291 l 591 1147 l 785 1291 l 828 1291 l 835 1282 z "},"Đ":{"ha":1080,"x_min":28,"x_max":1048,"o":"m 189 468 l 62 468 l 57 474 l 68 535 l 76 541 l 201 541 q 250 869 250 825 q 242 893 250 886 q 221 903 233 901 q 127 909 209 905 l 122 915 l 127 952 l 134 958 q 355 953 231 953 l 623 958 q 871 913 781 958 q 1005 784 962 869 q 1048 593 1048 699 q 1007 369 1048 481 q 892 174 967 256 q 718 43 818 92 q 490 -5 618 -5 q 366 -3 455 -5 q 237 0 281 0 q 33 -4 119 0 l 28 1 l 33 37 l 39 43 l 59 48 q 101 61 92 56 q 114 75 109 66 q 129 129 119 83 q 156 279 138 174 l 189 468 m 359 468 q 294 82 309 180 l 389 69 q 500 60 454 60 q 627 80 576 60 q 715 144 677 101 q 783 250 753 188 q 835 409 812 311 q 857 607 857 507 q 842 721 857 671 q 803 804 827 771 q 744 859 779 838 q 668 887 709 880 q 570 894 627 894 q 434 886 489 894 q 419 797 429 841 q 401 699 410 752 l 372 541 l 607 541 l 612 534 l 595 474 l 588 468 l 359 468 z "},"Ð":{"ha":1080,"x_min":28,"x_max":1048,"o":"m 189 468 l 62 468 l 57 474 l 68 535 l 76 541 l 201 541 q 250 869 250 825 q 242 893 250 886 q 221 903 233 901 q 127 909 209 905 l 122 915 l 127 952 l 134 958 q 355 953 231 953 l 623 958 q 871 913 781 958 q 1005 784 962 869 q 1048 593 1048 699 q 1007 369 1048 481 q 892 174 967 256 q 718 43 818 92 q 490 -5 618 -5 q 366 -3 455 -5 q 237 0 281 0 q 33 -4 119 0 l 28 1 l 33 37 l 39 43 l 59 48 q 101 61 92 56 q 114 75 109 66 q 129 129 119 83 q 156 279 138 174 l 189 468 m 359 468 q 294 82 309 180 l 389 69 q 500 60 454 60 q 627 80 576 60 q 715 144 677 101 q 783 250 753 188 q 835 409 812 311 q 857 607 857 507 q 842 721 857 671 q 803 804 827 771 q 744 859 779 838 q 668 887 709 880 q 570 894 627 894 q 434 886 489 894 q 419 797 429 841 q 401 699 410 752 l 372 541 l 607 541 l 612 534 l 595 474 l 588 468 l 359 468 z "},"É":{"ha":848,"x_min":28,"x_max":852,"o":"m 28 1 l 33 37 l 39 43 q 103 62 92 56 q 113 72 109 66 q 124 107 117 78 q 173 376 131 136 l 225 679 q 250 869 250 829 q 242 894 250 886 q 221 903 233 902 q 127 909 209 905 l 122 915 l 127 952 l 134 958 q 424 953 241 953 q 836 958 456 953 l 843 949 q 823 834 842 933 q 808 735 814 781 l 802 730 l 767 730 l 762 735 q 764 830 764 814 q 759 858 764 850 q 735 872 754 865 q 663 884 716 879 q 562 890 610 890 q 439 882 488 890 l 397 670 q 372 531 387 623 q 559 528 519 528 q 690 531 620 528 l 694 523 l 677 463 l 669 457 q 416 463 543 460 q 361 462 393 463 l 318 219 q 295 66 299 114 l 408 66 q 556 71 493 66 q 643 81 620 75 q 677 102 666 88 q 703 174 688 115 q 721 233 707 189 l 726 238 l 766 238 l 771 233 l 726 1 l 718 -5 q 570 -3 610 -3 l 271 0 q 33 -4 168 0 l 28 1 m 536 1012 m 375 -44 m 852 1273 q 530 1049 671 1158 l 495 1067 l 500 1076 l 597 1191 q 661 1267 629 1229 l 671 1274 l 760 1282 l 842 1292 l 850 1289 l 852 1273 z "},"È":{"ha":848,"x_min":28,"x_max":843,"o":"m 28 1 l 33 37 l 39 43 q 103 62 92 56 q 113 72 109 66 q 124 107 117 78 q 173 376 131 136 l 225 679 q 250 869 250 829 q 242 894 250 886 q 221 903 233 902 q 127 909 209 905 l 122 915 l 127 952 l 134 958 q 424 953 241 953 q 836 958 456 953 l 843 949 q 823 834 842 933 q 808 735 814 781 l 802 730 l 767 730 l 762 735 q 764 830 764 814 q 759 858 764 850 q 735 872 754 865 q 663 884 716 879 q 562 890 610 890 q 439 882 488 890 l 397 670 q 372 531 387 623 q 559 528 519 528 q 690 531 620 528 l 694 523 l 677 463 l 669 457 q 416 463 543 460 q 361 462 393 463 l 318 219 q 295 66 299 114 l 408 66 q 556 71 493 66 q 643 81 620 75 q 677 102 666 88 q 703 174 688 115 q 721 233 707 189 l 726 238 l 766 238 l 771 233 l 726 1 l 718 -5 q 570 -3 610 -3 l 271 0 q 33 -4 168 0 l 28 1 m 536 1012 m 375 -44 m 726 1064 l 687 1045 q 427 1272 615 1116 l 434 1288 l 442 1291 l 593 1273 l 602 1266 q 652 1183 639 1204 q 723 1073 670 1157 l 726 1064 z "},"Ê":{"ha":848,"x_min":28,"x_max":856,"o":"m 28 1 l 33 37 l 39 43 q 103 62 92 56 q 113 72 109 66 q 124 107 117 78 q 173 376 131 136 l 225 679 q 250 869 250 829 q 242 894 250 886 q 221 903 233 902 q 127 909 209 905 l 122 915 l 127 952 l 134 958 q 424 953 241 953 q 836 958 456 953 l 843 949 q 823 834 842 933 q 808 735 814 781 l 802 730 l 767 730 l 762 735 q 764 830 764 814 q 759 858 764 850 q 735 872 754 865 q 663 884 716 879 q 562 890 610 890 q 439 882 488 890 l 397 670 q 372 531 387 623 q 559 528 519 528 q 690 531 620 528 l 694 523 l 677 463 l 669 457 q 416 463 543 460 q 361 462 393 463 l 318 219 q 295 66 299 114 l 408 66 q 556 71 493 66 q 643 81 620 75 q 677 102 666 88 q 703 174 688 115 q 721 233 707 189 l 726 238 l 766 238 l 771 233 l 726 1 l 718 -5 q 570 -3 610 -3 l 271 0 q 33 -4 168 0 l 28 1 m 536 1012 m 375 -44 m 760 1051 l 751 1043 l 713 1043 l 583 1187 l 389 1043 l 346 1043 l 339 1053 l 553 1291 l 648 1291 l 760 1051 m 601 1249 m 856 1116 z "},"Ë":{"ha":848,"x_min":28,"x_max":843,"o":"m 28 1 l 33 37 l 39 43 q 103 62 92 56 q 113 72 109 66 q 124 107 117 78 q 173 376 131 136 l 225 679 q 250 869 250 829 q 242 894 250 886 q 221 903 233 902 q 127 909 209 905 l 122 915 l 127 952 l 134 958 q 424 953 241 953 q 836 958 456 953 l 843 949 q 823 834 842 933 q 808 735 814 781 l 802 730 l 767 730 l 762 735 q 764 830 764 814 q 759 858 764 850 q 735 872 754 865 q 663 884 716 879 q 562 890 610 890 q 439 882 488 890 l 397 670 q 372 531 387 623 q 559 528 519 528 q 690 531 620 528 l 694 523 l 677 463 l 669 457 q 416 463 543 460 q 361 462 393 463 l 318 219 q 295 66 299 114 l 408 66 q 556 71 493 66 q 643 81 620 75 q 677 102 666 88 q 703 174 688 115 q 721 233 707 189 l 726 238 l 766 238 l 771 233 l 726 1 l 718 -5 q 570 -3 610 -3 l 271 0 q 33 -4 168 0 l 28 1 m 536 1012 m 375 -44 m 728 1078 q 672 1101 691 1078 q 652 1152 652 1124 q 685 1227 652 1195 q 760 1260 718 1260 q 816 1237 796 1260 q 836 1186 836 1214 q 805 1113 836 1147 q 728 1078 774 1078 m 415 1078 q 358 1101 378 1078 q 339 1152 339 1124 q 371 1227 339 1194 q 447 1260 402 1260 q 503 1237 483 1260 q 522 1186 522 1214 q 490 1111 522 1145 q 415 1078 457 1078 z "},"Ě":{"ha":848,"x_min":28,"x_max":843,"o":"m 28 1 l 33 37 l 39 43 q 103 62 92 56 q 113 72 109 66 q 124 107 117 78 q 173 376 131 136 l 225 679 q 250 869 250 829 q 242 894 250 886 q 221 903 233 902 q 127 909 209 905 l 122 915 l 127 952 l 134 958 q 424 953 241 953 q 836 958 456 953 l 843 949 q 823 834 842 933 q 808 735 814 781 l 802 730 l 767 730 l 762 735 q 764 830 764 814 q 759 858 764 850 q 735 872 754 865 q 663 884 716 879 q 562 890 610 890 q 439 882 488 890 l 397 670 q 372 531 387 623 q 559 528 519 528 q 690 531 620 528 l 694 523 l 677 463 l 669 457 q 416 463 543 460 q 361 462 393 463 l 318 219 q 295 66 299 114 l 408 66 q 556 71 493 66 q 643 81 620 75 q 677 102 666 88 q 703 174 688 115 q 721 233 707 189 l 726 238 l 766 238 l 771 233 l 726 1 l 718 -5 q 570 -3 610 -3 l 271 0 q 33 -4 168 0 l 28 1 m 536 1012 m 375 -44 m 821 1282 l 608 1043 l 512 1043 l 400 1284 l 409 1291 l 447 1291 l 578 1147 l 772 1291 l 814 1291 l 821 1282 z "},"Ĕ":{"ha":848,"x_min":28,"x_max":843,"o":"m 28 1 l 33 37 l 39 43 q 103 62 92 56 q 113 72 109 66 q 124 107 117 78 q 173 376 131 136 l 225 679 q 250 869 250 829 q 242 894 250 886 q 221 903 233 902 q 127 909 209 905 l 122 915 l 127 952 l 134 958 q 424 953 241 953 q 836 958 456 953 l 843 949 q 823 834 842 933 q 808 735 814 781 l 802 730 l 767 730 l 762 735 q 764 830 764 814 q 759 858 764 850 q 735 872 754 865 q 663 884 716 879 q 562 890 610 890 q 439 882 488 890 l 397 670 q 372 531 387 623 q 559 528 519 528 q 690 531 620 528 l 694 523 l 677 463 l 669 457 q 416 463 543 460 q 361 462 393 463 l 318 219 q 295 66 299 114 l 408 66 q 556 71 493 66 q 643 81 620 75 q 677 102 666 88 q 703 174 688 115 q 721 233 707 189 l 726 238 l 766 238 l 771 233 l 726 1 l 718 -5 q 570 -3 610 -3 l 271 0 q 33 -4 168 0 l 28 1 m 536 1012 m 375 -44 m 812 1284 q 710 1107 781 1153 q 570 1061 640 1061 q 488 1075 525 1061 q 427 1115 452 1089 q 390 1167 402 1140 q 375 1210 377 1194 q 373 1284 373 1227 l 385 1293 l 420 1293 q 583 1166 433 1166 q 767 1293 720 1166 l 803 1293 l 812 1284 m 601 1249 z "},"Ė":{"ha":848,"x_min":28,"x_max":843,"o":"m 28 1 l 33 37 l 39 43 q 103 62 92 56 q 113 72 109 66 q 124 107 117 78 q 173 376 131 136 l 225 679 q 250 869 250 829 q 242 894 250 886 q 221 903 233 902 q 127 909 209 905 l 122 915 l 127 952 l 134 958 q 424 953 241 953 q 836 958 456 953 l 843 949 q 823 834 842 933 q 808 735 814 781 l 802 730 l 767 730 l 762 735 q 764 830 764 814 q 759 858 764 850 q 735 872 754 865 q 663 884 716 879 q 562 890 610 890 q 439 882 488 890 l 397 670 q 372 531 387 623 q 559 528 519 528 q 690 531 620 528 l 694 523 l 677 463 l 669 457 q 416 463 543 460 q 361 462 393 463 l 318 219 q 295 66 299 114 l 408 66 q 556 71 493 66 q 643 81 620 75 q 677 102 666 88 q 703 174 688 115 q 721 233 707 189 l 726 238 l 766 238 l 771 233 l 726 1 l 718 -5 q 570 -3 610 -3 l 271 0 q 33 -4 168 0 l 28 1 m 536 1012 m 375 -44 m 571 1078 q 516 1100 536 1078 q 495 1152 495 1122 q 528 1227 495 1195 q 603 1260 560 1260 q 659 1237 639 1260 q 678 1186 678 1214 q 646 1111 678 1145 q 571 1078 613 1078 z "},"Ē":{"ha":848,"x_min":28,"x_max":843,"o":"m 28 1 l 33 37 l 39 43 q 103 62 92 56 q 113 72 109 66 q 124 107 117 78 q 173 376 131 136 l 225 679 q 250 869 250 829 q 242 894 250 886 q 221 903 233 902 q 127 909 209 905 l 122 915 l 127 952 l 134 958 q 424 953 241 953 q 836 958 456 953 l 843 949 q 823 834 842 933 q 808 735 814 781 l 802 730 l 767 730 l 762 735 q 764 830 764 814 q 759 858 764 850 q 735 872 754 865 q 663 884 716 879 q 562 890 610 890 q 439 882 488 890 l 397 670 q 372 531 387 623 q 559 528 519 528 q 690 531 620 528 l 694 523 l 677 463 l 669 457 q 416 463 543 460 q 361 462 393 463 l 318 219 q 295 66 299 114 l 408 66 q 556 71 493 66 q 643 81 620 75 q 677 102 666 88 q 703 174 688 115 q 721 233 707 189 l 726 238 l 766 238 l 771 233 l 726 1 l 718 -5 q 570 -3 610 -3 l 271 0 q 33 -4 168 0 l 28 1 m 536 1012 m 375 -44 m 384 1217 l 821 1217 l 795 1118 l 356 1118 l 384 1217 z "},"Ę":{"ha":848,"x_min":28,"x_max":843,"o":"m 718 -4 l 624 -4 q 522 -144 522 -83 q 541 -192 522 -173 q 589 -211 560 -211 q 679 -165 635 -211 l 689 -164 l 711 -178 l 713 -186 q 515 -294 612 -294 q 444 -269 470 -294 q 418 -199 418 -243 q 443 -117 418 -158 q 564 -3 468 -75 l 296 0 q 32 -4 155 1 l 28 0 l 32 36 l 35 42 q 108 66 99 59 q 126 115 117 74 q 160 296 136 155 l 217 632 q 250 868 250 828 q 239 897 250 888 q 126 908 227 905 l 122 916 l 127 953 l 134 957 q 424 953 231 953 l 836 957 l 843 950 q 831 880 841 935 q 808 734 821 825 l 803 729 l 766 729 l 761 734 q 763 840 763 827 q 753 863 763 857 q 722 875 743 869 q 653 885 701 880 q 568 889 604 889 q 439 880 487 889 l 397 669 q 372 532 378 573 l 558 528 q 692 530 623 526 l 694 522 l 676 463 l 668 457 l 525 461 q 415 464 430 464 l 359 461 l 318 220 q 294 65 296 94 l 407 66 q 593 73 537 68 q 669 94 649 78 q 704 174 688 109 l 721 233 l 726 237 l 766 237 l 771 232 l 725 1 l 718 -4 z "},"Ǵ":{"ha":1080,"x_min":103,"x_max":1039,"o":"m 905 63 l 900 58 q 791 26 866 52 q 623 -20 686 -10 q 505 -29 559 -29 q 210 67 317 -29 q 103 347 103 163 q 133 545 103 448 q 214 713 162 642 q 365 851 267 783 q 548 946 464 920 q 722 973 631 973 q 881 955 801 973 q 1002 909 961 937 l 1007 900 l 976 785 q 954 679 964 742 l 948 673 l 909 673 l 905 679 q 910 808 910 753 q 673 885 817 885 q 512 856 582 885 q 394 753 442 827 q 318 569 346 680 q 290 353 290 459 q 359 120 290 201 q 555 39 427 39 q 718 79 648 39 l 744 184 q 759 258 751 214 q 766 314 766 303 q 760 333 766 325 q 745 342 753 340 q 697 347 737 345 q 628 349 658 349 l 623 355 l 630 391 l 636 397 q 825 393 766 393 q 1034 397 854 393 l 1039 391 l 1034 355 l 1027 349 q 974 342 990 349 q 948 322 957 336 q 929 252 940 307 l 916 193 q 903 125 905 140 q 901 92 901 109 q 905 63 901 78 m 1002 1273 q 679 1049 821 1158 l 644 1067 l 649 1076 l 747 1191 q 810 1267 778 1229 l 820 1274 l 909 1282 l 991 1292 l 999 1289 l 1002 1273 z "},"Ĝ":{"ha":1080,"x_min":103,"x_max":1039,"o":"m 905 63 l 900 58 q 791 26 866 52 q 623 -20 686 -10 q 505 -29 559 -29 q 210 67 317 -29 q 103 347 103 163 q 133 545 103 448 q 214 713 162 642 q 365 851 267 783 q 548 946 464 920 q 722 973 631 973 q 881 955 801 973 q 1002 909 961 937 l 1007 900 l 976 785 q 954 679 964 742 l 948 673 l 909 673 l 905 679 q 910 808 910 753 q 673 885 817 885 q 512 856 582 885 q 394 753 442 827 q 318 569 346 680 q 290 353 290 459 q 359 120 290 201 q 555 39 427 39 q 718 79 648 39 l 744 184 q 759 258 751 214 q 766 314 766 303 q 760 333 766 325 q 745 342 753 340 q 697 347 737 345 q 628 349 658 349 l 623 355 l 630 391 l 636 397 q 825 393 766 393 q 1034 397 854 393 l 1039 391 l 1034 355 l 1027 349 q 974 342 990 349 q 948 322 957 336 q 929 252 940 307 l 916 193 q 903 125 905 140 q 901 92 901 109 q 905 63 901 78 m 909 1051 l 901 1043 l 863 1043 l 732 1187 l 538 1043 l 495 1043 l 488 1053 l 702 1291 l 798 1291 l 909 1051 m 750 1249 m 1005 1116 z "},"Ğ":{"ha":1080,"x_min":103,"x_max":1039,"o":"m 905 63 l 900 58 q 791 26 866 52 q 623 -20 686 -10 q 505 -29 559 -29 q 210 67 317 -29 q 103 347 103 163 q 133 545 103 448 q 214 713 162 642 q 365 851 267 783 q 548 946 464 920 q 722 973 631 973 q 881 955 801 973 q 1002 909 961 937 l 1007 900 l 976 785 q 954 679 964 742 l 948 673 l 909 673 l 905 679 q 910 808 910 753 q 673 885 817 885 q 512 856 582 885 q 394 753 442 827 q 318 569 346 680 q 290 353 290 459 q 359 120 290 201 q 555 39 427 39 q 718 79 648 39 l 744 184 q 759 258 751 214 q 766 314 766 303 q 760 333 766 325 q 745 342 753 340 q 697 347 737 345 q 628 349 658 349 l 623 355 l 630 391 l 636 397 q 825 393 766 393 q 1034 397 854 393 l 1039 391 l 1034 355 l 1027 349 q 974 342 990 349 q 948 322 957 336 q 929 252 940 307 l 916 193 q 903 125 905 140 q 901 92 901 109 q 905 63 901 78 m 962 1284 q 859 1107 930 1153 q 719 1061 789 1061 q 637 1075 674 1061 q 576 1115 601 1089 q 539 1167 551 1140 q 524 1210 526 1194 q 522 1284 522 1227 l 534 1293 l 569 1293 q 732 1166 582 1166 q 916 1293 869 1166 l 952 1293 l 962 1284 m 750 1249 z "},"Ģ":{"ha":1080,"x_min":103,"x_max":1039,"o":"m 905 63 l 900 58 q 791 26 866 52 q 623 -20 686 -10 q 505 -29 559 -29 q 210 67 317 -29 q 103 347 103 163 q 133 545 103 448 q 214 713 162 642 q 365 851 267 783 q 548 946 464 920 q 722 973 631 973 q 881 955 801 973 q 1002 909 961 937 l 1007 900 l 976 785 q 954 679 964 742 l 948 673 l 909 673 l 905 679 q 910 808 910 753 q 673 885 817 885 q 512 856 582 885 q 394 753 442 827 q 318 569 346 680 q 290 353 290 459 q 359 120 290 201 q 555 39 427 39 q 718 79 648 39 l 744 184 q 759 258 751 214 q 766 314 766 303 q 760 333 766 325 q 745 342 753 340 q 697 347 737 345 q 628 349 658 349 l 623 355 l 630 391 l 636 397 q 825 393 766 393 q 1034 397 854 393 l 1039 391 l 1034 355 l 1027 349 q 974 342 990 349 q 948 322 957 336 q 929 252 940 307 l 916 193 q 903 125 905 140 q 901 92 901 109 q 905 63 901 78 m 327 -404 l 326 -389 q 441 -335 408 -372 q 474 -273 474 -299 q 445 -256 474 -258 q 370 -187 370 -251 q 401 -116 370 -148 q 473 -85 432 -85 q 573 -177 573 -85 q 508 -331 573 -267 q 327 -404 442 -395 z "},"Ġ":{"ha":1080,"x_min":103,"x_max":1039,"o":"m 905 63 l 900 58 q 791 26 866 52 q 623 -20 686 -10 q 505 -29 559 -29 q 210 67 317 -29 q 103 347 103 163 q 133 545 103 448 q 214 713 162 642 q 365 851 267 783 q 548 946 464 920 q 722 973 631 973 q 881 955 801 973 q 1002 909 961 937 l 1007 900 l 976 785 q 954 679 964 742 l 948 673 l 909 673 l 905 679 q 910 808 910 753 q 673 885 817 885 q 512 856 582 885 q 394 753 442 827 q 318 569 346 680 q 290 353 290 459 q 359 120 290 201 q 555 39 427 39 q 718 79 648 39 l 744 184 q 759 258 751 214 q 766 314 766 303 q 760 333 766 325 q 745 342 753 340 q 697 347 737 345 q 628 349 658 349 l 623 355 l 630 391 l 636 397 q 825 393 766 393 q 1034 397 854 393 l 1039 391 l 1034 355 l 1027 349 q 974 342 990 349 q 948 322 957 336 q 929 252 940 307 l 916 193 q 903 125 905 140 q 901 92 901 109 q 905 63 901 78 m 720 1078 q 665 1100 686 1078 q 644 1152 644 1122 q 677 1227 644 1195 q 752 1260 709 1260 q 808 1237 788 1260 q 827 1186 827 1214 q 795 1111 827 1145 q 720 1078 762 1078 z "},"Ĥ":{"ha":1081,"x_min":-20,"x_max":1140,"o":"m 769 538 q 819 869 819 825 q 814 890 819 882 q 797 901 808 897 q 756 906 786 904 l 695 909 l 690 915 l 696 952 l 702 958 q 892 953 781 953 q 1136 958 980 953 l 1140 952 l 1134 915 l 1128 909 q 1041 904 1051 907 q 1023 895 1030 901 q 1010 876 1016 888 q 982 751 1002 856 l 895 243 q 873 85 873 115 q 887 55 873 64 q 932 44 901 45 l 1001 41 l 1006 35 l 1002 1 l 996 -5 q 787 0 917 0 q 559 -5 664 0 l 555 1 l 559 35 l 565 41 q 596 43 571 41 q 664 52 652 45 q 685 82 676 60 q 714 222 693 104 l 758 472 l 568 473 l 359 472 q 298 85 298 132 q 313 55 298 64 q 356 44 327 45 l 426 41 l 431 35 l 427 1 l 420 -5 q 212 0 332 0 q -16 -5 89 0 l -20 1 l -17 35 l -10 41 q 21 43 -4 41 q 89 52 78 45 q 109 82 100 60 q 146 261 118 104 l 208 621 q 243 869 243 825 q 238 890 243 882 q 222 901 233 897 q 181 906 211 904 l 120 909 l 115 915 l 121 952 l 127 958 q 317 953 208 953 q 561 958 389 953 l 565 952 l 559 915 l 553 909 q 467 904 478 907 q 448 894 456 902 q 431 862 439 886 q 404 732 422 838 l 370 538 q 571 533 504 533 l 769 538 m 842 1051 l 833 1043 l 795 1043 l 664 1187 l 470 1043 l 427 1043 l 420 1053 l 634 1291 l 730 1291 l 842 1051 m 682 1249 m 937 1116 z "},"Ħ":{"ha":1081,"x_min":-20,"x_max":1140,"o":"m 121 952 l 127 958 q 317 953 208 953 q 561 958 389 953 l 565 952 l 559 915 l 553 909 q 470 905 479 907 q 448 895 460 903 q 428 849 437 887 q 406 741 418 812 q 593 740 589 740 l 804 740 q 819 869 819 839 q 807 896 819 887 q 695 909 795 905 l 690 915 l 696 952 l 702 958 q 892 953 781 953 q 1136 958 980 953 l 1140 952 l 1134 915 l 1128 909 l 1067 907 q 1031 900 1041 905 q 1015 885 1021 895 q 1001 842 1008 875 q 981 742 993 809 l 1102 743 l 1107 739 l 1099 684 l 1093 679 q 970 680 989 680 l 909 328 q 886 184 894 242 l 876 111 q 873 85 873 96 q 888 55 873 64 q 931 44 902 45 l 1001 41 l 1006 35 l 1002 1 l 996 -5 q 787 0 917 0 q 559 -5 664 0 l 555 1 l 559 35 l 565 41 q 596 43 571 41 q 664 52 652 45 q 685 82 676 60 q 714 222 693 105 l 758 472 l 568 473 l 359 472 q 298 85 298 127 q 312 55 298 64 q 357 44 326 45 l 426 41 l 431 35 l 427 1 l 420 -5 q 212 0 332 0 q -16 -5 89 0 l -20 1 l -17 35 l -10 41 q 21 43 -4 41 q 90 53 77 45 q 113 93 103 60 q 157 322 123 125 l 218 680 l 90 679 l 85 684 l 94 739 l 99 743 q 169 743 155 743 q 229 742 172 743 q 243 869 243 849 q 238 890 243 882 q 222 901 233 897 q 181 906 211 904 l 120 909 l 115 915 l 121 952 m 370 538 q 571 533 504 533 q 681 536 600 533 q 769 538 757 538 l 793 682 l 587 683 l 395 682 l 370 538 z "},"Í":{"ha":541,"x_min":1,"x_max":669,"o":"m 5 -5 l 1 1 l 5 35 l 11 41 q 42 43 17 41 q 110 52 99 45 q 130 81 121 60 q 166 260 139 103 l 229 621 q 264 869 264 825 q 260 888 264 881 q 245 900 256 896 q 203 906 235 904 l 141 909 l 136 915 l 142 951 l 148 958 q 362 953 240 953 q 582 958 412 953 l 586 952 l 580 915 l 574 909 q 487 904 496 907 q 469 895 476 901 q 456 876 462 888 q 427 743 448 854 l 338 229 q 319 85 319 113 q 334 54 319 63 q 376 44 348 45 l 447 41 l 452 35 l 448 1 l 441 -5 q 218 0 363 0 q 5 -5 107 0 m 380 1012 m 205 -44 m 669 1273 q 347 1049 488 1158 l 312 1067 l 317 1076 l 414 1191 q 477 1267 446 1229 l 488 1274 l 577 1282 l 659 1292 l 667 1289 l 669 1273 z "},"Ì":{"ha":541,"x_min":1,"x_max":586,"o":"m 5 -5 l 1 1 l 5 35 l 11 41 q 42 43 17 41 q 110 52 99 45 q 130 81 121 60 q 166 260 139 103 l 229 621 q 264 869 264 825 q 260 888 264 881 q 245 900 256 896 q 203 906 235 904 l 141 909 l 136 915 l 142 951 l 148 958 q 362 953 240 953 q 582 958 412 953 l 586 952 l 580 915 l 574 909 q 487 904 496 907 q 469 895 476 901 q 456 876 462 888 q 427 743 448 854 l 338 229 q 319 85 319 113 q 334 54 319 63 q 376 44 348 45 l 447 41 l 452 35 l 448 1 l 441 -5 q 218 0 363 0 q 5 -5 107 0 m 380 1012 m 205 -44 m 543 1064 l 504 1045 q 244 1272 432 1116 l 251 1288 l 259 1291 l 410 1273 l 418 1266 q 469 1183 456 1204 q 540 1073 487 1157 l 543 1064 z "},"Î":{"ha":541,"x_min":1,"x_max":673,"o":"m 5 -5 l 1 1 l 5 35 l 11 41 q 42 43 17 41 q 110 52 99 45 q 130 81 121 60 q 166 260 139 103 l 229 621 q 264 869 264 825 q 260 888 264 881 q 245 900 256 896 q 203 906 235 904 l 141 909 l 136 915 l 142 951 l 148 958 q 362 953 240 953 q 582 958 412 953 l 586 952 l 580 915 l 574 909 q 487 904 496 907 q 469 895 476 901 q 456 876 462 888 q 427 743 448 854 l 338 229 q 319 85 319 113 q 334 54 319 63 q 376 44 348 45 l 447 41 l 452 35 l 448 1 l 441 -5 q 218 0 363 0 q 5 -5 107 0 m 380 1012 m 205 -44 m 577 1051 l 568 1043 l 530 1043 l 399 1187 l 205 1043 l 163 1043 l 156 1053 l 370 1291 l 465 1291 l 577 1051 m 418 1249 m 673 1116 z "},"Ï":{"ha":541,"x_min":1,"x_max":652,"o":"m 5 -5 l 1 1 l 5 35 l 11 41 q 42 43 17 41 q 110 52 99 45 q 130 81 121 60 q 166 260 139 103 l 229 621 q 264 869 264 825 q 260 888 264 881 q 245 900 256 896 q 203 906 235 904 l 141 909 l 136 915 l 142 951 l 148 958 q 362 953 240 953 q 582 958 412 953 l 586 952 l 580 915 l 574 909 q 487 904 496 907 q 469 895 476 901 q 456 876 462 888 q 427 743 448 854 l 338 229 q 319 85 319 113 q 334 54 319 63 q 376 44 348 45 l 447 41 l 452 35 l 448 1 l 441 -5 q 218 0 363 0 q 5 -5 107 0 m 380 1012 m 205 -44 m 545 1078 q 489 1101 508 1078 q 469 1152 469 1124 q 502 1227 469 1195 q 577 1260 534 1260 q 633 1237 613 1260 q 652 1186 652 1214 q 622 1113 652 1147 q 545 1078 591 1078 m 232 1078 q 175 1101 195 1078 q 156 1152 156 1124 q 188 1227 156 1194 q 264 1260 219 1260 q 319 1237 300 1260 q 339 1186 339 1214 q 307 1111 339 1145 q 232 1078 274 1078 z "},"Ĩ":{"ha":541,"x_min":1,"x_max":654,"o":"m 5 -5 l 1 1 l 5 35 l 11 41 q 42 43 17 41 q 110 52 99 45 q 130 81 121 60 q 166 260 139 103 l 229 621 q 264 869 264 825 q 260 888 264 881 q 245 900 256 896 q 203 906 235 904 l 141 909 l 136 915 l 142 951 l 148 958 q 362 953 240 953 q 582 958 412 953 l 586 952 l 580 915 l 574 909 q 487 904 496 907 q 469 895 476 901 q 456 876 462 888 q 427 743 448 854 l 338 229 q 319 85 319 113 q 334 54 319 63 q 376 44 348 45 l 447 41 l 452 35 l 448 1 l 441 -5 q 218 0 363 0 q 5 -5 107 0 m 380 1012 m 205 -44 m 654 1260 q 594 1134 636 1177 q 499 1092 553 1092 q 372 1126 460 1092 q 263 1159 290 1159 q 189 1090 212 1159 l 151 1090 l 142 1099 q 298 1266 186 1266 q 442 1227 343 1266 q 538 1201 510 1201 q 609 1268 581 1201 l 646 1268 l 654 1260 z "},"Ĭ":{"ha":541,"x_min":1,"x_max":629,"o":"m 5 -5 l 1 1 l 5 35 l 11 41 q 42 43 17 41 q 110 52 99 45 q 130 81 121 60 q 166 260 139 103 l 229 621 q 264 869 264 825 q 260 888 264 881 q 245 900 256 896 q 203 906 235 904 l 141 909 l 136 915 l 142 951 l 148 958 q 362 953 240 953 q 582 958 412 953 l 586 952 l 580 915 l 574 909 q 487 904 496 907 q 469 895 476 901 q 456 876 462 888 q 427 743 448 854 l 338 229 q 319 85 319 113 q 334 54 319 63 q 376 44 348 45 l 447 41 l 452 35 l 448 1 l 441 -5 q 218 0 363 0 q 5 -5 107 0 m 380 1012 m 205 -44 m 629 1284 q 527 1107 597 1153 q 387 1061 456 1061 q 305 1075 342 1061 q 244 1115 269 1089 q 207 1167 219 1140 q 192 1210 194 1194 q 190 1284 190 1227 l 202 1293 l 237 1293 q 400 1166 250 1166 q 584 1293 537 1166 l 620 1293 l 629 1284 m 418 1249 z "},"İ":{"ha":541,"x_min":1,"x_max":586,"o":"m 5 -5 l 1 1 l 5 35 l 11 41 q 42 43 17 41 q 110 52 99 45 q 130 81 121 60 q 166 260 139 103 l 229 621 q 264 869 264 825 q 260 888 264 881 q 245 900 256 896 q 203 906 235 904 l 141 909 l 136 915 l 142 951 l 148 958 q 362 953 240 953 q 582 958 412 953 l 586 952 l 580 915 l 574 909 q 487 904 496 907 q 469 895 476 901 q 456 876 462 888 q 427 743 448 854 l 338 229 q 319 85 319 113 q 334 54 319 63 q 376 44 348 45 l 447 41 l 452 35 l 448 1 l 441 -5 q 218 0 363 0 q 5 -5 107 0 m 380 1012 m 205 -44 m 388 1078 q 333 1100 353 1078 q 312 1152 312 1122 q 345 1227 312 1195 q 420 1260 377 1260 q 475 1237 456 1260 q 495 1186 495 1214 q 463 1111 495 1145 q 388 1078 430 1078 z "},"Ī":{"ha":541,"x_min":1,"x_max":638,"o":"m 5 -5 l 1 1 l 5 35 l 11 41 q 42 43 17 41 q 110 52 99 45 q 130 81 121 60 q 166 260 139 103 l 229 621 q 264 869 264 825 q 260 888 264 881 q 245 900 256 896 q 203 906 235 904 l 141 909 l 136 915 l 142 951 l 148 958 q 362 953 240 953 q 582 958 412 953 l 586 952 l 580 915 l 574 909 q 487 904 496 907 q 469 895 476 901 q 456 876 462 888 q 427 743 448 854 l 338 229 q 319 85 319 113 q 334 54 319 63 q 376 44 348 45 l 447 41 l 452 35 l 448 1 l 441 -5 q 218 0 363 0 q 5 -5 107 0 m 380 1012 m 205 -44 m 201 1217 l 638 1217 l 612 1118 l 173 1118 l 201 1217 z "},"Į":{"ha":541,"x_min":0,"x_max":586,"o":"m 160 0 q 5 -4 99 0 l 0 0 l 4 35 l 11 40 l 43 43 q 116 56 105 45 q 138 116 126 66 q 167 260 150 165 l 229 619 q 264 868 264 820 q 252 897 264 891 q 203 905 240 903 l 142 909 l 136 916 l 142 951 l 149 957 q 363 953 240 953 q 582 957 413 953 l 586 953 l 578 910 l 574 908 q 478 901 490 906 q 457 878 466 895 q 426 736 448 861 l 379 475 l 338 229 q 319 83 319 117 q 330 56 319 65 q 376 45 340 47 l 447 40 l 452 35 l 447 1 l 440 -4 q 273 0 366 0 q 170 -143 170 -83 q 189 -192 170 -172 q 236 -211 208 -211 q 326 -165 283 -211 l 336 -164 l 359 -178 l 359 -184 q 163 -294 260 -294 q 91 -269 117 -294 q 65 -199 65 -243 q 91 -116 65 -158 q 214 0 117 -73 l 160 0 z "},"Ĵ":{"ha":541,"x_min":-85,"x_max":707,"o":"m 162 909 l 158 915 l 163 951 l 170 958 q 383 953 262 953 q 603 958 435 953 l 608 952 l 602 915 l 595 909 q 509 904 520 907 q 490 895 498 901 q 476 872 483 888 q 452 763 469 855 l 362 245 q 319 7 332 63 q 243 -176 292 -101 q 132 -281 193 -250 q -14 -312 71 -312 q -75 -305 -45 -312 l -85 -274 l -79 -262 q -34 -265 -56 -265 q 57 -247 28 -265 q 105 -187 86 -229 q 159 59 125 -145 l 239 542 q 286 867 286 821 q 278 893 286 885 q 257 903 269 901 q 162 909 244 905 m 611 1051 l 602 1043 l 564 1043 l 433 1187 l 239 1043 l 197 1043 l 190 1053 l 404 1291 l 499 1291 l 611 1051 m 452 1249 m 707 1116 z "},"Ķ":{"ha":1003,"x_min":1,"x_max":1055,"o":"m 380 473 q 481 555 423 503 q 648 714 540 608 q 788 857 757 821 q 825 904 820 892 q 829 934 829 916 l 829 951 l 835 957 q 884 953 865 953 q 1050 957 980 953 l 1055 951 l 1049 913 l 1043 907 q 983 902 998 906 q 948 886 968 898 q 856 811 928 873 q 706 675 784 749 l 551 529 l 817 150 q 891 57 873 71 q 962 41 910 43 l 966 35 l 963 1 l 956 -5 l 935 -5 q 793 0 846 0 q 709 -5 758 0 q 552 231 614 141 q 378 464 490 321 l 345 266 q 324 135 329 174 q 319 85 319 97 q 334 54 319 63 q 375 44 349 45 l 447 41 l 452 35 l 448 1 l 441 -5 q 218 0 363 0 q 5 -5 107 0 l 1 1 l 5 35 l 11 41 q 42 43 17 41 q 110 52 99 45 q 130 81 121 60 q 166 260 139 103 l 229 621 q 264 869 264 825 q 260 888 264 881 q 245 900 256 896 q 203 906 235 904 l 141 909 l 136 915 l 142 951 l 148 958 q 362 953 240 953 q 582 958 412 953 l 586 952 l 580 915 l 574 909 q 488 904 499 907 q 468 894 477 902 q 451 861 459 886 q 422 714 444 836 l 380 473 m 340 -404 l 339 -389 q 455 -335 422 -372 q 488 -273 488 -299 q 458 -256 488 -258 q 384 -187 384 -251 q 415 -116 384 -148 q 487 -85 446 -85 q 587 -177 587 -85 q 521 -331 587 -267 q 340 -404 456 -395 z "},"Ĺ":{"ha":848,"x_min":54,"x_max":797,"o":"m 54 1 l 58 37 l 65 43 q 126 61 116 55 q 135 68 132 64 q 142 79 138 71 q 169 208 151 105 l 255 713 q 275 869 275 838 q 266 893 275 886 q 245 903 257 901 q 151 909 233 905 l 146 915 l 151 951 l 158 958 q 372 953 254 953 q 591 958 404 953 l 595 952 l 590 915 l 584 909 q 497 904 508 907 q 477 893 486 901 q 459 852 468 884 q 427 691 450 821 l 342 205 q 321 66 324 113 l 433 66 q 582 71 519 66 q 669 81 646 75 q 703 102 692 88 q 729 174 713 115 q 747 233 732 189 l 752 238 l 792 238 l 797 233 q 784 165 795 216 q 767 79 775 125 q 751 1 757 23 l 744 -5 q 578 -3 630 -3 l 304 0 q 58 -4 147 0 l 54 1 m 690 1273 q 367 1049 509 1158 l 332 1067 l 337 1076 l 435 1191 q 498 1267 466 1229 l 508 1274 l 597 1282 l 680 1292 l 687 1289 l 690 1273 z "},"Ļ":{"ha":848,"x_min":54,"x_max":797,"o":"m 54 1 l 58 37 l 65 43 q 126 61 116 55 q 135 68 132 64 q 142 79 138 71 q 169 208 151 105 l 255 713 q 275 869 275 838 q 266 893 275 886 q 245 903 257 901 q 151 909 233 905 l 146 915 l 151 951 l 158 958 q 372 953 254 953 q 591 958 404 953 l 595 952 l 590 915 l 584 909 q 497 904 508 907 q 477 893 486 901 q 459 852 468 884 q 427 691 450 821 l 342 205 q 321 66 324 113 l 433 66 q 582 71 519 66 q 669 81 646 75 q 703 102 692 88 q 729 174 713 115 q 747 233 732 189 l 752 238 l 792 238 l 797 233 q 784 165 795 216 q 767 79 775 125 q 751 1 757 23 l 744 -5 q 578 -3 630 -3 l 304 0 q 58 -4 147 0 l 54 1 m 273 -404 l 271 -389 q 387 -335 354 -372 q 420 -273 420 -299 q 391 -256 420 -258 q 316 -187 316 -251 q 347 -116 316 -148 q 419 -85 378 -85 q 519 -177 519 -85 q 453 -331 519 -267 q 273 -404 388 -395 z "},"Ľ":{"ha":848,"x_min":54,"x_max":835,"o":"m 54 1 l 58 37 l 65 43 q 126 61 116 55 q 135 68 132 64 q 142 79 138 71 q 169 208 151 105 l 255 713 q 275 869 275 838 q 266 893 275 886 q 245 903 257 901 q 151 909 233 905 l 146 915 l 151 951 l 158 958 q 372 953 254 953 q 591 958 404 953 l 595 952 l 590 915 l 584 909 q 497 904 508 907 q 477 893 486 901 q 459 852 468 884 q 427 691 450 821 l 342 205 q 321 66 324 113 l 433 66 q 582 71 519 66 q 669 81 646 75 q 703 102 692 88 q 729 174 713 115 q 747 233 732 189 l 752 238 l 792 238 l 797 233 q 784 165 795 216 q 767 79 775 125 q 751 1 757 23 l 744 -5 q 578 -3 630 -3 l 304 0 q 58 -4 147 0 l 54 1 m 589 666 l 587 682 q 703 735 670 699 q 736 797 736 771 q 707 814 736 812 q 632 883 632 819 q 663 954 632 922 q 735 985 694 985 q 835 893 835 985 q 769 739 835 803 q 589 666 704 675 z "},"Ŀ":{"ha":848,"x_min":54,"x_max":797,"o":"m 54 1 l 58 37 l 65 43 q 126 61 116 55 q 135 68 132 64 q 142 79 138 71 q 169 208 151 105 l 255 713 q 275 869 275 838 q 266 893 275 886 q 245 903 257 901 q 151 909 233 905 l 146 915 l 151 951 l 158 958 q 372 953 254 953 q 591 958 404 953 l 595 952 l 590 915 l 584 909 q 497 904 508 907 q 477 893 486 901 q 459 852 468 884 q 427 691 450 821 l 342 205 q 321 66 324 113 l 433 66 q 582 71 519 66 q 669 81 646 75 q 703 102 692 88 q 729 174 713 115 q 747 233 732 189 l 752 238 l 792 238 l 797 233 q 784 165 795 216 q 767 79 775 125 q 751 1 757 23 l 744 -5 q 578 -3 630 -3 l 304 0 q 58 -4 147 0 l 54 1 m 561 431 q 506 453 526 431 q 485 505 485 475 q 517 581 485 548 q 593 613 550 613 q 648 590 629 613 q 668 539 668 567 q 635 464 668 498 q 561 431 603 431 z "},"Ł":{"ha":848,"x_min":28,"x_max":798,"o":"m 54 1 l 59 37 l 66 43 q 125 60 115 55 q 141 77 135 65 q 157 140 147 88 q 201 392 167 193 l 50 327 l 41 330 l 28 375 l 31 384 l 212 462 l 249 673 q 270 814 265 772 q 275 869 275 855 q 266 893 275 886 q 245 903 258 901 q 151 909 233 905 l 146 915 l 152 951 l 158 958 q 372 953 254 953 q 592 958 405 953 l 596 952 l 590 915 l 584 909 l 524 907 q 489 901 498 905 q 473 888 479 897 q 459 850 467 880 q 434 725 451 820 l 402 543 l 587 622 l 594 618 l 606 573 l 602 564 l 390 473 l 339 190 q 321 66 325 113 l 434 66 q 583 71 519 66 q 669 81 646 75 q 703 102 692 88 q 729 174 714 115 q 747 233 732 186 l 753 238 l 792 238 l 798 233 q 784 165 795 216 q 766 70 774 115 q 751 1 758 25 l 745 -5 q 578 -3 631 -3 l 304 0 q 59 -4 148 0 l 54 1 z "},"Ń":{"ha":1080,"x_min":-1,"x_max":1146,"o":"m 831 197 q 940 864 940 801 q 924 897 940 888 q 883 907 907 906 q 822 911 858 908 l 817 918 l 823 951 l 829 957 l 865 957 q 1008 953 982 953 q 1140 957 1030 953 l 1146 951 l 1143 917 l 1136 911 q 1063 907 1075 909 q 1039 887 1051 904 q 999 734 1026 870 l 905 253 q 864 -11 884 144 l 745 -11 l 314 751 q 204 89 204 172 q 223 53 204 61 q 264 44 242 45 q 322 40 286 43 l 326 35 l 321 0 l 315 -4 l 279 -4 q 129 0 148 0 q 3 -5 101 0 l -1 0 l 1 35 l 7 40 q 83 47 74 43 q 102 61 93 52 q 121 112 112 71 l 149 243 q 182 410 168 334 l 260 832 q 207 895 224 886 q 96 911 189 903 l 92 917 l 96 951 l 104 957 q 203 954 163 954 l 395 957 l 518 737 l 831 197 m 934 1273 q 611 1049 753 1158 l 576 1067 l 581 1076 l 679 1191 q 742 1267 710 1229 l 752 1274 l 842 1282 l 924 1292 l 931 1289 l 934 1273 z "},"Ñ":{"ha":1080,"x_min":-1,"x_max":1146,"o":"m 831 197 q 940 864 940 801 q 924 897 940 888 q 883 907 907 906 q 822 911 858 908 l 817 918 l 823 951 l 829 957 l 865 957 q 1008 953 982 953 q 1140 957 1030 953 l 1146 951 l 1143 917 l 1136 911 q 1063 907 1075 909 q 1039 887 1051 904 q 999 734 1026 870 l 905 253 q 864 -11 884 144 l 745 -11 l 314 751 q 204 89 204 172 q 223 53 204 61 q 264 44 242 45 q 322 40 286 43 l 326 35 l 321 0 l 315 -4 l 279 -4 q 129 0 148 0 q 3 -5 101 0 l -1 0 l 1 35 l 7 40 q 83 47 74 43 q 102 61 93 52 q 121 112 112 71 l 149 243 q 182 410 168 334 l 260 832 q 207 895 224 886 q 96 911 189 903 l 92 917 l 96 951 l 104 957 q 203 954 163 954 l 395 957 l 518 737 l 831 197 m 918 1260 q 859 1134 901 1177 q 764 1092 817 1092 q 637 1126 724 1092 q 528 1159 554 1159 q 453 1090 476 1159 l 415 1090 l 407 1099 q 562 1266 450 1266 q 707 1227 608 1266 q 802 1201 774 1201 q 873 1268 845 1201 l 910 1268 l 918 1260 z "},"Ň":{"ha":1080,"x_min":-1,"x_max":1146,"o":"m 831 197 q 940 864 940 801 q 924 897 940 888 q 883 907 907 906 q 822 911 858 908 l 817 918 l 823 951 l 829 957 l 865 957 q 1008 953 982 953 q 1140 957 1030 953 l 1146 951 l 1143 917 l 1136 911 q 1063 907 1075 909 q 1039 887 1051 904 q 999 734 1026 870 l 905 253 q 864 -11 884 144 l 745 -11 l 314 751 q 204 89 204 172 q 223 53 204 61 q 264 44 242 45 q 322 40 286 43 l 326 35 l 321 0 l 315 -4 l 279 -4 q 129 0 148 0 q 3 -5 101 0 l -1 0 l 1 35 l 7 40 q 83 47 74 43 q 102 61 93 52 q 121 112 112 71 l 149 243 q 182 410 168 334 l 260 832 q 207 895 224 886 q 96 911 189 903 l 92 917 l 96 951 l 104 957 q 203 954 163 954 l 395 957 l 518 737 l 831 197 m 903 1282 l 689 1043 l 593 1043 l 481 1284 l 490 1291 l 528 1291 l 659 1147 l 853 1291 l 896 1291 l 903 1282 z "},"Ņ":{"ha":1080,"x_min":-1,"x_max":1146,"o":"m 831 197 q 940 864 940 801 q 924 897 940 888 q 883 907 907 906 q 822 911 858 908 l 817 918 l 823 951 l 829 957 l 865 957 q 1008 953 982 953 q 1140 957 1030 953 l 1146 951 l 1143 917 l 1136 911 q 1063 907 1075 909 q 1039 887 1051 904 q 999 734 1026 870 l 905 253 q 864 -11 884 144 l 745 -11 l 314 751 q 204 89 204 172 q 223 53 204 61 q 264 44 242 45 q 322 40 286 43 l 326 35 l 321 0 l 315 -4 l 279 -4 q 129 0 148 0 q 3 -5 101 0 l -1 0 l 1 35 l 7 40 q 83 47 74 43 q 102 61 93 52 q 121 112 112 71 l 149 243 q 182 410 168 334 l 260 832 q 207 895 224 886 q 96 911 189 903 l 92 917 l 96 951 l 104 957 q 203 954 163 954 l 395 957 l 518 737 l 831 197 m 320 -404 l 319 -389 q 434 -335 401 -372 q 467 -273 467 -299 q 438 -256 467 -258 q 363 -187 363 -251 q 394 -116 363 -148 q 467 -85 425 -85 q 566 -177 566 -85 q 501 -331 566 -267 q 320 -404 435 -395 z "},"Ó":{"ha":1157,"x_min":104,"x_max":1095,"o":"m 104 360 q 119 502 104 413 q 180 683 134 591 q 302 842 227 775 q 470 941 376 908 q 675 973 564 973 q 839 950 761 973 q 980 872 918 928 q 1069 740 1043 817 q 1095 569 1095 664 q 939 144 1095 319 q 520 -30 783 -30 q 293 16 388 -30 q 151 149 198 62 q 104 360 104 235 m 294 317 q 320 165 294 230 q 410 66 346 100 q 549 33 474 33 q 729 97 658 33 q 852 319 800 161 q 905 621 905 477 q 835 843 905 777 q 655 909 766 909 q 487 862 552 909 q 375 711 421 814 q 311 500 329 609 q 294 317 294 391 m 683 1012 m 500 -44 m 975 1273 q 652 1049 793 1158 l 617 1067 l 622 1076 l 720 1191 q 783 1267 751 1229 l 793 1274 l 882 1282 l 964 1292 l 972 1289 l 975 1273 z "},"Ò":{"ha":1157,"x_min":104,"x_max":1095,"o":"m 104 360 q 119 502 104 413 q 180 683 134 591 q 302 842 227 775 q 470 941 376 908 q 675 973 564 973 q 839 950 761 973 q 980 872 918 928 q 1069 740 1043 817 q 1095 569 1095 664 q 939 144 1095 319 q 520 -30 783 -30 q 293 16 388 -30 q 151 149 198 62 q 104 360 104 235 m 294 317 q 320 165 294 230 q 410 66 346 100 q 549 33 474 33 q 729 97 658 33 q 852 319 800 161 q 905 621 905 477 q 835 843 905 777 q 655 909 766 909 q 487 862 552 909 q 375 711 421 814 q 311 500 329 609 q 294 317 294 391 m 683 1012 m 500 -44 m 848 1064 l 809 1045 q 549 1272 737 1116 l 556 1288 l 564 1291 l 715 1273 l 724 1266 q 774 1183 761 1204 q 845 1073 792 1157 l 848 1064 z "},"Ô":{"ha":1157,"x_min":104,"x_max":1095,"o":"m 104 360 q 119 502 104 413 q 180 683 134 591 q 302 842 227 775 q 470 941 376 908 q 675 973 564 973 q 839 950 761 973 q 980 872 918 928 q 1069 740 1043 817 q 1095 569 1095 664 q 939 144 1095 319 q 520 -30 783 -30 q 293 16 388 -30 q 151 149 198 62 q 104 360 104 235 m 294 317 q 320 165 294 230 q 410 66 346 100 q 549 33 474 33 q 729 97 658 33 q 852 319 800 161 q 905 621 905 477 q 835 843 905 777 q 655 909 766 909 q 487 862 552 909 q 375 711 421 814 q 311 500 329 609 q 294 317 294 391 m 683 1012 m 500 -44 m 882 1051 l 873 1043 l 836 1043 l 705 1187 l 511 1043 l 468 1043 l 461 1053 l 675 1291 l 770 1291 l 882 1051 m 723 1249 m 978 1116 z "},"Ö":{"ha":1157,"x_min":104,"x_max":1095,"o":"m 104 360 q 119 502 104 413 q 180 683 134 591 q 302 842 227 775 q 470 941 376 908 q 675 973 564 973 q 839 950 761 973 q 980 872 918 928 q 1069 740 1043 817 q 1095 569 1095 664 q 939 144 1095 319 q 520 -30 783 -30 q 293 16 388 -30 q 151 149 198 62 q 104 360 104 235 m 294 317 q 320 165 294 230 q 410 66 346 100 q 549 33 474 33 q 729 97 658 33 q 852 319 800 161 q 905 621 905 477 q 835 843 905 777 q 655 909 766 909 q 487 862 552 909 q 375 711 421 814 q 311 500 329 609 q 294 317 294 391 m 683 1012 m 500 -44 m 850 1078 q 794 1101 813 1078 q 774 1152 774 1124 q 807 1227 774 1195 q 882 1260 840 1260 q 938 1237 918 1260 q 958 1186 958 1214 q 927 1113 958 1147 q 850 1078 896 1078 m 537 1078 q 480 1101 500 1078 q 461 1152 461 1124 q 493 1227 461 1194 q 569 1260 524 1260 q 625 1237 605 1260 q 644 1186 644 1214 q 612 1111 644 1145 q 537 1078 579 1078 z "},"Õ":{"ha":1157,"x_min":104,"x_max":1095,"o":"m 104 360 q 119 502 104 413 q 180 683 134 591 q 302 842 227 775 q 470 941 376 908 q 675 973 564 973 q 839 950 761 973 q 980 872 918 928 q 1069 740 1043 817 q 1095 569 1095 664 q 939 144 1095 319 q 520 -30 783 -30 q 293 16 388 -30 q 151 149 198 62 q 104 360 104 235 m 294 317 q 320 165 294 230 q 410 66 346 100 q 549 33 474 33 q 729 97 658 33 q 852 319 800 161 q 905 621 905 477 q 835 843 905 777 q 655 909 766 909 q 487 862 552 909 q 375 711 421 814 q 311 500 329 609 q 294 317 294 391 m 683 1012 m 500 -44 m 959 1260 q 900 1134 941 1177 q 804 1092 858 1092 q 677 1126 765 1092 q 568 1159 595 1159 q 494 1090 517 1159 l 456 1090 l 448 1099 q 603 1266 491 1266 q 747 1227 648 1266 q 843 1201 815 1201 q 914 1268 886 1201 l 951 1268 l 959 1260 z "},"Ŏ":{"ha":1157,"x_min":104,"x_max":1095,"o":"m 104 360 q 119 502 104 413 q 180 683 134 591 q 302 842 227 775 q 470 941 376 908 q 675 973 564 973 q 839 950 761 973 q 980 872 918 928 q 1069 740 1043 817 q 1095 569 1095 664 q 939 144 1095 319 q 520 -30 783 -30 q 293 16 388 -30 q 151 149 198 62 q 104 360 104 235 m 294 317 q 320 165 294 230 q 410 66 346 100 q 549 33 474 33 q 729 97 658 33 q 852 319 800 161 q 905 621 905 477 q 835 843 905 777 q 655 909 766 909 q 487 862 552 909 q 375 711 421 814 q 311 500 329 609 q 294 317 294 391 m 683 1012 m 500 -44 m 935 1284 q 832 1107 903 1153 q 692 1061 762 1061 q 610 1075 647 1061 q 549 1115 574 1089 q 512 1167 524 1140 q 497 1210 499 1194 q 495 1284 495 1227 l 507 1293 l 542 1293 q 705 1166 555 1166 q 889 1293 842 1166 l 925 1293 l 935 1284 m 723 1249 z "},"Ő":{"ha":1157,"x_min":104,"x_max":1097,"o":"m 104 360 q 119 502 104 413 q 180 683 134 591 q 302 842 227 775 q 470 941 376 908 q 675 973 564 973 q 839 950 761 973 q 980 872 918 928 q 1069 740 1043 817 q 1095 569 1095 664 q 939 144 1095 319 q 520 -30 783 -30 q 293 16 388 -30 q 151 149 198 62 q 104 360 104 235 m 294 317 q 320 165 294 230 q 410 66 346 100 q 549 33 474 33 q 729 97 658 33 q 852 319 800 161 q 905 621 905 477 q 835 843 905 777 q 655 909 766 909 q 487 862 552 909 q 375 711 421 814 q 311 500 329 609 q 294 317 294 391 m 683 1012 m 500 -44 m 1097 1273 q 774 1049 905 1149 l 739 1067 l 744 1076 l 842 1191 q 905 1267 873 1229 l 916 1274 l 1004 1282 l 1087 1292 l 1094 1289 l 1097 1273 m 812 1273 q 490 1048 644 1165 l 454 1067 l 459 1076 l 557 1191 q 620 1267 588 1229 l 631 1274 l 720 1282 l 802 1292 l 809 1289 l 812 1273 z "},"Ō":{"ha":1157,"x_min":104,"x_max":1095,"o":"m 104 360 q 119 502 104 413 q 180 683 134 591 q 302 842 227 775 q 470 941 376 908 q 675 973 564 973 q 839 950 761 973 q 980 872 918 928 q 1069 740 1043 817 q 1095 569 1095 664 q 939 144 1095 319 q 520 -30 783 -30 q 293 16 388 -30 q 151 149 198 62 q 104 360 104 235 m 294 317 q 320 165 294 230 q 410 66 346 100 q 549 33 474 33 q 729 97 658 33 q 852 319 800 161 q 905 621 905 477 q 835 843 905 777 q 655 909 766 909 q 487 862 552 909 q 375 711 421 814 q 311 500 329 609 q 294 317 294 391 m 683 1012 m 500 -44 m 506 1217 l 943 1217 l 917 1118 l 478 1118 l 506 1217 z "},"Ø":{"ha":1157,"x_min":75,"x_max":1101,"o":"m 189 94 q 104 353 104 193 q 162 644 104 500 q 353 881 220 789 q 675 973 486 973 q 941 903 836 973 l 1050 1020 l 1059 1021 l 1100 981 l 1101 972 l 995 859 q 1095 568 1095 761 q 940 146 1095 322 q 521 -30 785 -30 q 241 48 349 -30 l 125 -77 l 117 -77 l 75 -38 l 75 -29 l 189 94 m 304 217 l 859 814 q 777 883 829 857 q 655 909 724 909 q 496 868 559 909 q 385 732 433 826 q 315 518 336 637 q 293 317 293 399 q 304 217 293 266 m 889 745 l 330 144 q 421 61 360 89 q 548 33 482 33 q 734 101 662 33 q 855 328 806 170 q 905 614 905 486 q 889 745 905 686 z "},"Ǿ":{"ha":1157,"x_min":75,"x_max":1101,"o":"m 189 94 q 104 353 104 193 q 162 644 104 500 q 353 881 220 789 q 675 973 486 973 q 941 903 836 973 l 1050 1020 l 1059 1021 l 1100 981 l 1101 972 l 995 859 q 1095 568 1095 761 q 940 146 1095 322 q 521 -30 785 -30 q 241 48 349 -30 l 125 -77 l 117 -77 l 75 -38 l 75 -29 l 189 94 m 304 217 l 859 814 q 777 883 829 857 q 655 909 724 909 q 496 868 559 909 q 385 732 433 826 q 315 518 336 637 q 293 317 293 399 q 304 217 293 266 m 889 745 l 330 144 q 421 61 360 89 q 548 33 482 33 q 734 101 662 33 q 855 328 806 170 q 905 614 905 486 q 889 745 905 686 m 975 1273 q 652 1049 793 1158 l 617 1067 l 622 1076 l 720 1191 q 783 1267 751 1229 l 793 1274 l 882 1282 l 964 1292 l 972 1289 l 975 1273 z "},"Œ":{"ha":1406,"x_min":66,"x_max":1400,"o":"m 1246 241 l 1288 241 l 1293 234 q 1264 118 1284 204 q 1240 2 1244 33 l 1232 -5 q 1051 -2 1178 -3 l 825 0 q 675 -5 812 0 l 667 5 q 697 96 680 41 q 560 -2 627 21 q 415 -26 493 -26 q 224 16 298 -26 q 109 141 151 58 q 66 336 66 223 q 92 525 66 423 q 165 711 117 627 q 280 856 213 796 q 430 946 348 916 q 599 976 511 976 q 717 960 663 976 q 802 921 771 944 q 860 863 833 898 q 869 952 865 901 l 878 958 q 1000 953 981 953 l 1190 955 l 1322 956 l 1393 958 l 1400 947 q 1354 741 1378 873 l 1346 734 l 1313 734 l 1308 741 q 1312 829 1312 789 q 1304 869 1312 861 q 1236 889 1291 882 q 1046 893 1200 893 l 1029 893 l 947 527 q 1043 526 1017 526 q 1234 536 1164 526 l 1240 526 l 1220 462 l 1212 456 q 935 467 1117 465 l 852 65 l 936 65 q 1071 68 1009 65 q 1153 77 1133 71 q 1180 90 1172 82 q 1203 132 1189 98 q 1239 235 1217 166 l 1246 241 m 788 582 q 808 729 808 676 q 750 857 808 801 q 596 912 692 912 q 339 707 425 912 q 254 299 254 502 q 312 102 254 163 q 456 41 370 41 q 568 67 513 41 q 656 136 622 94 q 706 226 690 178 q 747 389 722 275 l 788 582 z "},"Ŕ":{"ha":1003,"x_min":3,"x_max":970,"o":"m 811 189 q 879 77 864 98 q 906 50 895 57 q 964 40 918 43 l 970 35 l 966 1 l 960 -4 q 844 0 909 0 q 714 -4 781 0 q 431 497 529 351 l 436 519 q 476 518 456 518 q 663 577 595 518 q 730 749 730 637 q 562 896 730 896 q 453 885 491 896 l 363 363 q 322 98 322 131 l 322 83 q 332 56 322 65 q 379 45 342 47 l 450 40 l 454 35 l 450 1 l 444 -4 q 221 0 332 0 q 8 -4 111 0 l 3 0 l 7 35 l 14 40 l 46 43 q 105 48 86 45 q 139 106 125 51 q 170 260 153 162 l 232 619 q 267 868 267 820 q 255 897 267 891 q 205 905 243 903 l 144 909 l 139 916 l 144 951 l 151 957 q 366 953 237 953 l 633 958 q 861 897 808 958 q 914 760 914 836 q 849 600 914 671 q 629 497 785 528 l 811 189 m 846 1273 q 523 1049 665 1158 l 488 1067 l 493 1076 l 591 1191 q 654 1267 622 1229 l 664 1274 l 753 1282 l 836 1292 l 843 1289 l 846 1273 z "},"Ř":{"ha":1003,"x_min":3,"x_max":970,"o":"m 811 189 q 879 77 864 98 q 906 50 895 57 q 964 40 918 43 l 970 35 l 966 1 l 960 -4 q 844 0 909 0 q 714 -4 781 0 q 431 497 529 351 l 436 519 q 476 518 456 518 q 663 577 595 518 q 730 749 730 637 q 562 896 730 896 q 453 885 491 896 l 363 363 q 322 98 322 131 l 322 83 q 332 56 322 65 q 379 45 342 47 l 450 40 l 454 35 l 450 1 l 444 -4 q 221 0 332 0 q 8 -4 111 0 l 3 0 l 7 35 l 14 40 l 46 43 q 105 48 86 45 q 139 106 125 51 q 170 260 153 162 l 232 619 q 267 868 267 820 q 255 897 267 891 q 205 905 243 903 l 144 909 l 139 916 l 144 951 l 151 957 q 366 953 237 953 l 633 958 q 861 897 808 958 q 914 760 914 836 q 849 600 914 671 q 629 497 785 528 l 811 189 m 814 1282 l 601 1043 l 505 1043 l 393 1284 l 402 1291 l 440 1291 l 571 1147 l 765 1291 l 808 1291 l 814 1282 z "},"Ŗ":{"ha":1003,"x_min":3,"x_max":970,"o":"m 811 189 q 879 77 864 98 q 906 50 895 57 q 964 40 918 43 l 970 35 l 966 1 l 960 -4 q 844 0 909 0 q 714 -4 781 0 q 431 497 529 351 l 436 519 q 476 518 456 518 q 663 577 595 518 q 730 749 730 637 q 562 896 730 896 q 453 885 491 896 l 363 363 q 322 98 322 131 l 322 83 q 332 56 322 65 q 379 45 342 47 l 450 40 l 454 35 l 450 1 l 444 -4 q 221 0 332 0 q 8 -4 111 0 l 3 0 l 7 35 l 14 40 l 46 43 q 105 48 86 45 q 139 106 125 51 q 170 260 153 162 l 232 619 q 267 868 267 820 q 255 897 267 891 q 205 905 243 903 l 144 909 l 139 916 l 144 951 l 151 957 q 366 953 237 953 l 633 958 q 861 897 808 958 q 914 760 914 836 q 849 600 914 671 q 629 497 785 528 l 811 189 m 327 -404 l 326 -389 q 441 -335 408 -372 q 474 -273 474 -299 q 445 -256 474 -258 q 370 -187 370 -251 q 401 -116 370 -148 q 473 -85 432 -85 q 573 -177 573 -85 q 508 -331 573 -267 q 327 -404 442 -395 z "},"Ś":{"ha":772,"x_min":63,"x_max":832,"o":"m 700 709 l 693 703 l 661 703 l 655 709 q 656 746 656 734 l 655 816 q 582 872 631 852 q 475 893 532 893 q 374 872 420 893 q 303 805 328 850 q 279 705 279 759 q 294 635 279 663 q 332 592 309 608 q 384 567 356 576 q 489 543 411 558 q 594 516 558 530 q 654 479 629 503 q 693 417 678 455 q 707 332 707 378 q 651 155 707 240 q 506 21 594 71 q 307 -29 417 -29 q 173 -9 238 -29 q 66 43 109 10 l 63 51 q 82 152 69 72 q 97 254 96 232 l 104 260 l 136 260 l 142 254 l 140 178 q 142 140 140 169 q 221 78 161 108 q 351 48 282 48 q 507 106 455 48 q 559 239 559 165 q 548 298 559 272 q 520 339 536 325 q 482 362 504 354 q 414 381 460 370 q 255 429 304 408 q 176 501 206 451 q 146 627 146 551 q 203 808 146 730 q 343 930 259 887 q 524 973 427 973 q 733 913 646 973 l 736 905 q 700 709 712 808 m 832 1273 q 509 1049 651 1158 l 475 1067 l 479 1076 l 577 1191 q 640 1267 608 1229 l 650 1274 l 740 1282 l 822 1292 l 829 1289 l 832 1273 z "},"Ŝ":{"ha":772,"x_min":63,"x_max":836,"o":"m 700 709 l 693 703 l 661 703 l 655 709 q 656 746 656 734 l 655 816 q 582 872 631 852 q 475 893 532 893 q 374 872 420 893 q 303 805 328 850 q 279 705 279 759 q 294 635 279 663 q 332 592 309 608 q 384 567 356 576 q 489 543 411 558 q 594 516 558 530 q 654 479 629 503 q 693 417 678 455 q 707 332 707 378 q 651 155 707 240 q 506 21 594 71 q 307 -29 417 -29 q 173 -9 238 -29 q 66 43 109 10 l 63 51 q 82 152 69 72 q 97 254 96 232 l 104 260 l 136 260 l 142 254 l 140 178 q 142 140 140 169 q 221 78 161 108 q 351 48 282 48 q 507 106 455 48 q 559 239 559 165 q 548 298 559 272 q 520 339 536 325 q 482 362 504 354 q 414 381 460 370 q 255 429 304 408 q 176 501 206 451 q 146 627 146 551 q 203 808 146 730 q 343 930 259 887 q 524 973 427 973 q 733 913 646 973 l 736 905 q 700 709 712 808 m 740 1051 l 731 1043 l 693 1043 l 562 1187 l 368 1043 l 326 1043 l 319 1053 l 532 1291 l 628 1291 l 740 1051 m 581 1249 m 836 1116 z "},"Š":{"ha":772,"x_min":63,"x_max":801,"o":"m 700 709 l 693 703 l 661 703 l 655 709 q 656 746 656 734 l 655 816 q 582 872 631 852 q 475 893 532 893 q 374 872 420 893 q 303 805 328 850 q 279 705 279 759 q 294 635 279 663 q 332 592 309 608 q 384 567 356 576 q 489 543 411 558 q 594 516 558 530 q 654 479 629 503 q 693 417 678 455 q 707 332 707 378 q 651 155 707 240 q 506 21 594 71 q 307 -29 417 -29 q 173 -9 238 -29 q 66 43 109 10 l 63 51 q 82 152 69 72 q 97 254 96 232 l 104 260 l 136 260 l 142 254 l 140 178 q 142 140 140 169 q 221 78 161 108 q 351 48 282 48 q 507 106 455 48 q 559 239 559 165 q 548 298 559 272 q 520 339 536 325 q 482 362 504 354 q 414 381 460 370 q 255 429 304 408 q 176 501 206 451 q 146 627 146 551 q 203 808 146 730 q 343 930 259 887 q 524 973 427 973 q 733 913 646 973 l 736 905 q 700 709 712 808 m 801 1282 l 587 1043 l 492 1043 l 380 1284 l 389 1291 l 427 1291 l 557 1147 l 751 1291 l 794 1291 l 801 1282 z "},"Ș":{"ha":772,"x_min":63,"x_max":736,"o":"m 700 709 l 693 703 l 661 703 l 655 709 q 656 746 656 734 l 655 816 q 582 872 631 852 q 475 893 532 893 q 374 872 420 893 q 303 805 328 850 q 279 705 279 759 q 294 635 279 663 q 332 592 309 608 q 384 567 356 576 q 489 543 411 558 q 594 516 558 530 q 654 479 629 503 q 693 417 678 455 q 707 332 707 378 q 651 155 707 240 q 506 21 594 71 q 307 -29 417 -29 q 173 -9 238 -29 q 66 43 109 10 l 63 51 q 82 152 69 72 q 97 254 96 232 l 104 260 l 136 260 l 142 254 l 140 178 q 142 140 140 169 q 221 78 161 108 q 351 48 282 48 q 507 106 455 48 q 559 239 559 165 q 548 298 559 272 q 520 339 536 325 q 482 362 504 354 q 414 381 460 370 q 255 429 304 408 q 176 501 206 451 q 146 627 146 551 q 203 808 146 730 q 343 930 259 887 q 524 973 427 973 q 733 913 646 973 l 736 905 q 700 709 712 808 m 171 -404 l 170 -389 q 285 -335 252 -372 q 318 -273 318 -299 q 289 -256 318 -258 q 214 -187 214 -251 q 245 -116 214 -148 q 317 -85 276 -85 q 417 -177 417 -85 q 352 -331 417 -267 q 171 -404 286 -395 z "},"Ş":{"ha":772,"x_min":62,"x_max":736,"o":"m 604 98 q 355 -28 500 -13 l 310 -96 q 345 -92 324 -92 q 441 -122 409 -92 q 473 -192 473 -153 q 429 -282 473 -242 q 293 -322 385 -322 q 149 -290 217 -322 l 147 -282 l 168 -249 l 176 -244 q 273 -265 229 -265 q 329 -249 306 -265 q 351 -203 351 -233 q 333 -162 351 -178 q 285 -147 314 -147 q 237 -155 277 -147 l 221 -138 l 297 -29 q 143 1 216 -29 q 62 52 69 31 q 97 253 82 124 l 104 260 l 136 260 l 142 254 l 140 178 q 145 134 140 144 q 166 112 151 125 q 210 83 182 98 q 274 59 237 68 q 351 49 311 49 q 507 106 456 49 q 558 239 558 163 q 529 331 558 301 q 415 380 499 361 q 234 440 276 414 q 170 513 192 465 q 147 633 147 561 q 257 871 147 770 q 532 972 368 972 q 733 914 649 972 l 736 905 q 699 708 711 807 l 693 703 l 661 703 l 656 710 l 656 815 q 475 893 602 893 q 330 841 380 893 q 279 704 279 788 q 336 593 277 625 q 457 549 394 561 q 604 511 553 530 q 680 442 654 492 q 707 334 707 392 q 604 98 707 208 z "},"Ț":{"ha":848,"x_min":81,"x_max":934,"o":"m 161 41 q 193 43 168 41 q 259 51 248 45 q 279 77 269 58 q 319 275 288 96 l 376 605 l 423 880 q 285 879 331 880 q 213 871 239 877 q 182 861 187 865 q 168 842 176 857 q 149 785 159 826 q 132 717 138 743 l 125 711 l 86 711 l 81 718 q 115 949 98 809 l 123 958 q 216 954 138 958 q 515 947 363 947 q 740 950 608 947 q 924 958 871 953 l 934 946 q 892 717 895 752 l 886 711 l 846 711 l 842 717 q 848 819 848 772 q 840 864 848 854 q 790 878 831 874 q 681 881 749 881 l 605 880 l 551 595 l 489 232 q 471 106 475 144 q 470 85 470 94 q 481 57 470 66 q 526 45 492 47 l 597 41 l 602 35 l 598 1 l 592 -5 q 369 0 513 0 q 156 -5 263 0 l 151 1 l 155 35 l 161 41 m 191 -404 l 190 -389 q 306 -335 273 -372 q 338 -273 338 -299 q 309 -256 338 -258 q 235 -187 235 -251 q 266 -116 235 -148 q 338 -85 296 -85 q 437 -177 437 -85 q 372 -331 437 -267 q 191 -404 307 -395 z "},"Ť":{"ha":848,"x_min":81,"x_max":934,"o":"m 161 41 q 193 43 168 41 q 259 51 248 45 q 279 77 269 58 q 319 275 288 96 l 376 605 l 423 880 q 285 879 331 880 q 213 871 239 877 q 182 861 187 865 q 168 842 176 857 q 149 785 159 826 q 132 717 138 743 l 125 711 l 86 711 l 81 718 q 115 949 98 809 l 123 958 q 216 954 138 958 q 515 947 363 947 q 740 950 608 947 q 924 958 871 953 l 934 946 q 892 717 895 752 l 886 711 l 846 711 l 842 717 q 848 819 848 772 q 840 864 848 854 q 790 878 831 874 q 681 881 749 881 l 605 880 l 551 595 l 489 232 q 471 106 475 144 q 470 85 470 94 q 481 57 470 66 q 526 45 492 47 l 597 41 l 602 35 l 598 1 l 592 -5 q 369 0 513 0 q 156 -5 263 0 l 151 1 l 155 35 l 161 41 m 801 1282 l 587 1043 l 492 1043 l 380 1284 l 389 1291 l 427 1291 l 557 1147 l 751 1291 l 794 1291 l 801 1282 z "},"Ţ":{"ha":848,"x_min":81,"x_max":934,"o":"m 161 41 q 193 43 168 41 q 259 51 248 45 q 279 77 269 58 q 319 275 288 96 l 376 605 l 423 880 q 285 879 331 880 q 213 871 239 877 q 182 861 187 865 q 168 842 176 857 q 149 785 159 826 q 132 717 138 743 l 125 711 l 86 711 l 81 718 q 115 949 98 809 l 123 958 q 216 954 138 958 q 515 947 363 947 q 740 950 608 947 q 924 958 871 953 l 934 946 q 892 717 895 752 l 886 711 l 846 711 l 842 717 q 848 819 848 772 q 840 864 848 854 q 790 878 831 874 q 681 881 749 881 l 605 880 l 551 595 l 489 232 q 471 106 475 144 q 470 85 470 94 q 481 57 470 66 q 526 45 492 47 l 597 41 l 602 35 l 598 1 l 592 -5 q 369 0 513 0 q 156 -5 263 0 l 151 1 l 155 35 l 161 41 m 264 -102 q 347 -92 304 -92 q 441 -122 412 -92 q 470 -187 470 -152 q 428 -274 470 -237 q 299 -311 385 -311 q 161 -281 224 -311 l 159 -272 l 178 -240 l 189 -236 q 281 -257 237 -257 q 334 -242 313 -257 q 355 -197 355 -227 q 336 -159 355 -174 q 291 -144 318 -144 q 245 -151 275 -144 l 239 -143 l 264 -102 z "},"Ŧ":{"ha":848,"x_min":81,"x_max":934,"o":"m 373 579 l 126 576 l 121 581 l 127 640 l 132 644 q 383 641 246 641 l 423 880 q 285 879 331 880 q 213 871 239 877 q 182 861 187 865 q 168 842 176 857 q 149 785 159 826 q 132 717 138 743 l 125 711 l 86 711 l 81 718 q 115 949 98 809 l 123 958 q 216 954 138 958 q 515 947 363 947 q 740 950 608 947 q 924 958 871 953 l 934 946 q 892 717 895 752 l 886 711 l 846 711 l 842 717 q 848 819 848 772 q 840 864 848 854 q 790 878 831 874 q 681 881 749 881 q 605 880 618 881 l 559 641 q 825 644 648 641 l 831 640 l 824 581 l 819 576 q 547 579 750 578 l 494 262 q 470 85 470 117 q 481 57 470 66 q 526 45 492 47 l 597 41 l 602 35 l 598 1 l 592 -5 q 369 0 513 0 q 156 -5 263 0 l 151 1 l 155 35 l 161 41 q 193 43 168 41 q 262 53 250 45 q 282 86 274 62 q 317 260 291 111 l 373 579 z "},"Ú":{"ha":1080,"x_min":110,"x_max":1160,"o":"m 895 86 q 906 55 895 63 q 947 45 918 46 l 1021 40 l 1025 35 l 1021 1 l 1015 -5 q 868 0 904 0 l 705 -3 l 699 5 q 732 176 724 116 q 539 13 615 53 q 382 -28 463 -28 q 192 36 250 -28 q 134 184 134 100 q 184 543 134 270 q 233 865 233 817 q 221 895 233 884 q 115 909 210 905 l 110 916 l 115 951 l 125 957 q 236 956 181 957 l 346 953 q 437 957 389 953 l 446 946 q 415 796 433 893 l 374 579 l 334 343 q 319 224 319 260 q 365 121 319 154 q 471 89 410 89 q 568 111 522 89 q 665 177 615 133 q 729 243 715 221 q 753 328 743 266 l 822 750 q 839 865 839 848 q 823 899 839 892 q 714 909 806 905 l 710 916 l 715 951 l 722 957 q 936 953 828 953 q 1156 957 983 953 l 1160 953 l 1154 916 l 1147 908 q 1058 904 1066 906 q 1039 892 1049 901 q 1018 834 1029 883 q 993 703 1007 785 l 911 228 q 895 86 891 115 m 627 1012 m 480 -44 m 947 1273 q 625 1049 766 1158 l 590 1067 l 595 1076 l 692 1191 q 755 1267 724 1229 l 766 1274 l 855 1282 l 937 1292 l 945 1289 l 947 1273 z "},"Ù":{"ha":1080,"x_min":110,"x_max":1160,"o":"m 895 86 q 906 55 895 63 q 947 45 918 46 l 1021 40 l 1025 35 l 1021 1 l 1015 -5 q 868 0 904 0 l 705 -3 l 699 5 q 732 176 724 116 q 539 13 615 53 q 382 -28 463 -28 q 192 36 250 -28 q 134 184 134 100 q 184 543 134 270 q 233 865 233 817 q 221 895 233 884 q 115 909 210 905 l 110 916 l 115 951 l 125 957 q 236 956 181 957 l 346 953 q 437 957 389 953 l 446 946 q 415 796 433 893 l 374 579 l 334 343 q 319 224 319 260 q 365 121 319 154 q 471 89 410 89 q 568 111 522 89 q 665 177 615 133 q 729 243 715 221 q 753 328 743 266 l 822 750 q 839 865 839 848 q 823 899 839 892 q 714 909 806 905 l 710 916 l 715 951 l 722 957 q 936 953 828 953 q 1156 957 983 953 l 1160 953 l 1154 916 l 1147 908 q 1058 904 1066 906 q 1039 892 1049 901 q 1018 834 1029 883 q 993 703 1007 785 l 911 228 q 895 86 891 115 m 627 1012 m 480 -44 m 821 1064 l 782 1045 q 522 1272 710 1116 l 529 1288 l 537 1291 l 688 1273 l 696 1266 q 747 1183 734 1204 q 818 1073 765 1157 l 821 1064 z "},"Û":{"ha":1080,"x_min":110,"x_max":1160,"o":"m 895 86 q 906 55 895 63 q 947 45 918 46 l 1021 40 l 1025 35 l 1021 1 l 1015 -5 q 868 0 904 0 l 705 -3 l 699 5 q 732 176 724 116 q 539 13 615 53 q 382 -28 463 -28 q 192 36 250 -28 q 134 184 134 100 q 184 543 134 270 q 233 865 233 817 q 221 895 233 884 q 115 909 210 905 l 110 916 l 115 951 l 125 957 q 236 956 181 957 l 346 953 q 437 957 389 953 l 446 946 q 415 796 433 893 l 374 579 l 334 343 q 319 224 319 260 q 365 121 319 154 q 471 89 410 89 q 568 111 522 89 q 665 177 615 133 q 729 243 715 221 q 753 328 743 266 l 822 750 q 839 865 839 848 q 823 899 839 892 q 714 909 806 905 l 710 916 l 715 951 l 722 957 q 936 953 828 953 q 1156 957 983 953 l 1160 953 l 1154 916 l 1147 908 q 1058 904 1066 906 q 1039 892 1049 901 q 1018 834 1029 883 q 993 703 1007 785 l 911 228 q 895 86 891 115 m 627 1012 m 480 -44 m 855 1051 l 846 1043 l 808 1043 l 677 1187 l 484 1043 l 441 1043 l 434 1053 l 648 1291 l 743 1291 l 855 1051 m 696 1249 m 951 1116 z "},"Ü":{"ha":1080,"x_min":110,"x_max":1160,"o":"m 895 86 q 906 55 895 63 q 947 45 918 46 l 1021 40 l 1025 35 l 1021 1 l 1015 -5 q 868 0 904 0 l 705 -3 l 699 5 q 732 176 724 116 q 539 13 615 53 q 382 -28 463 -28 q 192 36 250 -28 q 134 184 134 100 q 184 543 134 270 q 233 865 233 817 q 221 895 233 884 q 115 909 210 905 l 110 916 l 115 951 l 125 957 q 236 956 181 957 l 346 953 q 437 957 389 953 l 446 946 q 415 796 433 893 l 374 579 l 334 343 q 319 224 319 260 q 365 121 319 154 q 471 89 410 89 q 568 111 522 89 q 665 177 615 133 q 729 243 715 221 q 753 328 743 266 l 822 750 q 839 865 839 848 q 823 899 839 892 q 714 909 806 905 l 710 916 l 715 951 l 722 957 q 936 953 828 953 q 1156 957 983 953 l 1160 953 l 1154 916 l 1147 908 q 1058 904 1066 906 q 1039 892 1049 901 q 1018 834 1029 883 q 993 703 1007 785 l 911 228 q 895 86 891 115 m 627 1012 m 480 -44 m 823 1078 q 767 1101 786 1078 q 747 1152 747 1124 q 780 1227 747 1195 q 855 1260 812 1260 q 911 1237 891 1260 q 930 1186 930 1214 q 900 1113 930 1147 q 823 1078 869 1078 m 510 1078 q 453 1101 473 1078 q 434 1152 434 1124 q 466 1227 434 1194 q 542 1260 497 1260 q 597 1237 578 1260 q 617 1186 617 1214 q 585 1111 617 1145 q 510 1078 552 1078 z "},"Ũ":{"ha":1080,"x_min":110,"x_max":1160,"o":"m 895 86 q 906 55 895 63 q 947 45 918 46 l 1021 40 l 1025 35 l 1021 1 l 1015 -5 q 868 0 904 0 l 705 -3 l 699 5 q 732 176 724 116 q 539 13 615 53 q 382 -28 463 -28 q 192 36 250 -28 q 134 184 134 100 q 184 543 134 270 q 233 865 233 817 q 221 895 233 884 q 115 909 210 905 l 110 916 l 115 951 l 125 957 q 236 956 181 957 l 346 953 q 437 957 389 953 l 446 946 q 415 796 433 893 l 374 579 l 334 343 q 319 224 319 260 q 365 121 319 154 q 471 89 410 89 q 568 111 522 89 q 665 177 615 133 q 729 243 715 221 q 753 328 743 266 l 822 750 q 839 865 839 848 q 823 899 839 892 q 714 909 806 905 l 710 916 l 715 951 l 722 957 q 936 953 828 953 q 1156 957 983 953 l 1160 953 l 1154 916 l 1147 908 q 1058 904 1066 906 q 1039 892 1049 901 q 1018 834 1029 883 q 993 703 1007 785 l 911 228 q 895 86 891 115 m 627 1012 m 480 -44 m 932 1260 q 872 1134 914 1177 q 777 1092 831 1092 q 650 1126 738 1092 q 541 1159 568 1159 q 467 1090 490 1159 l 429 1090 l 420 1099 q 576 1266 464 1266 q 720 1227 621 1266 q 816 1201 788 1201 q 887 1268 859 1201 l 924 1268 l 932 1260 z "},"Ŭ":{"ha":1080,"x_min":110,"x_max":1160,"o":"m 895 86 q 906 55 895 63 q 947 45 918 46 l 1021 40 l 1025 35 l 1021 1 l 1015 -5 q 868 0 904 0 l 705 -3 l 699 5 q 732 176 724 116 q 539 13 615 53 q 382 -28 463 -28 q 192 36 250 -28 q 134 184 134 100 q 184 543 134 270 q 233 865 233 817 q 221 895 233 884 q 115 909 210 905 l 110 916 l 115 951 l 125 957 q 236 956 181 957 l 346 953 q 437 957 389 953 l 446 946 q 415 796 433 893 l 374 579 l 334 343 q 319 224 319 260 q 365 121 319 154 q 471 89 410 89 q 568 111 522 89 q 665 177 615 133 q 729 243 715 221 q 753 328 743 266 l 822 750 q 839 865 839 848 q 823 899 839 892 q 714 909 806 905 l 710 916 l 715 951 l 722 957 q 936 953 828 953 q 1156 957 983 953 l 1160 953 l 1154 916 l 1147 908 q 1058 904 1066 906 q 1039 892 1049 901 q 1018 834 1029 883 q 993 703 1007 785 l 911 228 q 895 86 891 115 m 627 1012 m 480 -44 m 907 1284 q 805 1107 876 1153 q 665 1061 734 1061 q 583 1075 620 1061 q 522 1115 547 1089 q 485 1167 497 1140 q 470 1210 472 1194 q 468 1284 468 1227 l 480 1293 l 515 1293 q 678 1166 528 1166 q 862 1293 815 1166 l 898 1293 l 907 1284 m 696 1249 z "},"Ů":{"ha":1080,"x_min":110,"x_max":1160,"o":"m 895 86 q 906 55 895 63 q 947 45 918 46 l 1021 40 l 1025 35 l 1021 1 l 1015 -5 q 868 0 904 0 l 705 -3 l 699 5 q 732 176 724 116 q 539 13 615 53 q 382 -28 463 -28 q 192 36 250 -28 q 134 184 134 100 q 184 543 134 270 q 233 865 233 817 q 221 895 233 884 q 115 909 210 905 l 110 916 l 115 951 l 125 957 q 236 956 181 957 l 346 953 q 437 957 389 953 l 446 946 q 415 796 433 893 l 374 579 l 334 343 q 319 224 319 260 q 365 121 319 154 q 471 89 410 89 q 568 111 522 89 q 665 177 615 133 q 729 243 715 221 q 753 328 743 266 l 822 750 q 839 865 839 848 q 823 899 839 892 q 714 909 806 905 l 710 916 l 715 951 l 722 957 q 936 953 828 953 q 1156 957 983 953 l 1160 953 l 1154 916 l 1147 908 q 1058 904 1066 906 q 1039 892 1049 901 q 1018 834 1029 883 q 993 703 1007 785 l 911 228 q 895 86 891 115 m 627 1012 m 480 -44 m 828 1183 q 781 1080 828 1124 q 670 1036 734 1036 q 569 1075 602 1036 q 536 1160 536 1114 q 586 1269 536 1230 q 694 1308 635 1308 q 793 1272 758 1308 q 828 1183 828 1236 m 763 1183 q 744 1247 763 1221 q 690 1272 725 1272 q 626 1240 650 1272 q 602 1161 602 1208 q 620 1098 602 1124 q 673 1072 638 1072 q 739 1107 715 1072 q 763 1183 763 1141 z "},"Ű":{"ha":1080,"x_min":110,"x_max":1160,"o":"m 895 86 q 906 55 895 63 q 947 45 918 46 l 1021 40 l 1025 35 l 1021 1 l 1015 -5 q 868 0 904 0 l 705 -3 l 699 5 q 732 176 724 116 q 539 13 615 53 q 382 -28 463 -28 q 192 36 250 -28 q 134 184 134 100 q 184 543 134 270 q 233 865 233 817 q 221 895 233 884 q 115 909 210 905 l 110 916 l 115 951 l 125 957 q 236 956 181 957 l 346 953 q 437 957 389 953 l 446 946 q 415 796 433 893 l 374 579 l 334 343 q 319 224 319 260 q 365 121 319 154 q 471 89 410 89 q 568 111 522 89 q 665 177 615 133 q 729 243 715 221 q 753 328 743 266 l 822 750 q 839 865 839 848 q 823 899 839 892 q 714 909 806 905 l 710 916 l 715 951 l 722 957 q 936 953 828 953 q 1156 957 983 953 l 1160 953 l 1154 916 l 1147 908 q 1058 904 1066 906 q 1039 892 1049 901 q 1018 834 1029 883 q 993 703 1007 785 l 911 228 q 895 86 891 115 m 627 1012 m 480 -44 m 1069 1273 q 747 1049 878 1149 l 712 1067 l 717 1076 l 814 1191 q 878 1267 846 1229 l 888 1274 l 977 1282 l 1060 1292 l 1067 1289 l 1069 1273 m 785 1273 q 463 1048 616 1165 l 427 1067 l 432 1076 l 530 1191 q 593 1267 561 1229 l 604 1274 l 692 1282 l 775 1292 l 782 1289 l 785 1273 z "},"Ū":{"ha":1080,"x_min":110,"x_max":1160,"o":"m 895 86 q 906 55 895 63 q 947 45 918 46 l 1021 40 l 1025 35 l 1021 1 l 1015 -5 q 868 0 904 0 l 705 -3 l 699 5 q 732 176 724 116 q 539 13 615 53 q 382 -28 463 -28 q 192 36 250 -28 q 134 184 134 100 q 184 543 134 270 q 233 865 233 817 q 221 895 233 884 q 115 909 210 905 l 110 916 l 115 951 l 125 957 q 236 956 181 957 l 346 953 q 437 957 389 953 l 446 946 q 415 796 433 893 l 374 579 l 334 343 q 319 224 319 260 q 365 121 319 154 q 471 89 410 89 q 568 111 522 89 q 665 177 615 133 q 729 243 715 221 q 753 328 743 266 l 822 750 q 839 865 839 848 q 823 899 839 892 q 714 909 806 905 l 710 916 l 715 951 l 722 957 q 936 953 828 953 q 1156 957 983 953 l 1160 953 l 1154 916 l 1147 908 q 1058 904 1066 906 q 1039 892 1049 901 q 1018 834 1029 883 q 993 703 1007 785 l 911 228 q 895 86 891 115 m 627 1012 m 480 -44 m 479 1217 l 916 1217 l 890 1118 l 451 1118 l 479 1217 z "},"Ų":{"ha":1080,"x_min":110,"x_max":1160,"o":"m 696 0 l 690 7 q 727 177 708 97 q 555 22 635 73 q 379 -28 475 -28 q 192 38 250 -28 q 134 195 134 104 q 184 547 134 281 q 235 865 235 813 q 221 896 235 885 q 114 908 207 907 l 110 916 l 115 951 l 123 957 l 345 951 q 436 958 378 951 l 446 949 q 374 578 412 810 l 335 346 q 319 227 319 260 q 365 121 319 153 q 471 89 411 89 q 555 106 511 89 q 654 166 600 123 q 724 238 709 210 q 750 326 740 265 l 814 754 q 826 869 827 850 q 807 901 823 894 q 714 909 791 908 l 710 916 l 715 951 l 722 957 q 936 953 828 953 q 1156 957 983 953 l 1160 953 l 1154 916 l 1147 909 q 1040 872 1061 906 q 1007 758 1019 838 l 920 230 q 906 97 906 132 q 912 61 906 73 q 954 47 918 50 l 1021 40 l 1025 35 l 1021 1 l 1015 -5 q 875 0 895 0 q 771 -143 771 -83 q 790 -192 771 -172 q 838 -211 808 -211 q 928 -165 884 -211 l 937 -164 l 960 -178 l 960 -184 q 762 -294 860 -294 q 692 -270 718 -294 q 667 -202 667 -245 q 693 -115 667 -157 q 815 0 720 -73 l 696 0 z "},"Ẃ":{"ha":1389,"x_min":97,"x_max":1487,"o":"m 1236 665 q 1299 871 1299 825 q 1281 902 1299 894 q 1186 909 1263 909 l 1182 916 l 1186 951 l 1193 958 q 1358 953 1312 953 q 1482 957 1421 953 l 1487 951 l 1485 916 l 1479 908 q 1415 896 1426 908 q 1360 772 1404 883 l 1126 197 q 1044 -11 1096 123 l 928 -11 q 882 176 907 82 l 747 686 l 406 -11 l 290 -11 l 256 395 q 222 723 237 602 q 201 870 208 843 q 179 902 193 897 q 103 909 164 907 l 97 916 l 103 953 l 110 958 l 314 954 q 500 958 439 954 l 505 953 l 500 916 l 494 909 q 408 899 427 909 q 389 851 389 888 q 401 663 389 804 l 441 205 l 572 473 l 806 962 l 850 962 l 1054 186 l 1236 665 m 1103 1273 q 781 1049 922 1158 l 746 1067 l 751 1076 l 848 1191 q 911 1267 880 1229 l 922 1274 l 1011 1282 l 1093 1292 l 1101 1289 l 1103 1273 z "},"Ẁ":{"ha":1389,"x_min":97,"x_max":1487,"o":"m 1236 665 q 1299 871 1299 825 q 1281 902 1299 894 q 1186 909 1263 909 l 1182 916 l 1186 951 l 1193 958 q 1358 953 1312 953 q 1482 957 1421 953 l 1487 951 l 1485 916 l 1479 908 q 1415 896 1426 908 q 1360 772 1404 883 l 1126 197 q 1044 -11 1096 123 l 928 -11 q 882 176 907 82 l 747 686 l 406 -11 l 290 -11 l 256 395 q 222 723 237 602 q 201 870 208 843 q 179 902 193 897 q 103 909 164 907 l 97 916 l 103 953 l 110 958 l 314 954 q 500 958 439 954 l 505 953 l 500 916 l 494 909 q 408 899 427 909 q 389 851 389 888 q 401 663 389 804 l 441 205 l 572 473 l 806 962 l 850 962 l 1054 186 l 1236 665 m 977 1064 l 938 1045 q 678 1272 866 1116 l 685 1288 l 693 1291 l 844 1273 l 852 1266 q 903 1183 890 1204 q 974 1073 921 1157 l 977 1064 z "},"Ŵ":{"ha":1389,"x_min":97,"x_max":1487,"o":"m 1236 665 q 1299 871 1299 825 q 1281 902 1299 894 q 1186 909 1263 909 l 1182 916 l 1186 951 l 1193 958 q 1358 953 1312 953 q 1482 957 1421 953 l 1487 951 l 1485 916 l 1479 908 q 1415 896 1426 908 q 1360 772 1404 883 l 1126 197 q 1044 -11 1096 123 l 928 -11 q 882 176 907 82 l 747 686 l 406 -11 l 290 -11 l 256 395 q 222 723 237 602 q 201 870 208 843 q 179 902 193 897 q 103 909 164 907 l 97 916 l 103 953 l 110 958 l 314 954 q 500 958 439 954 l 505 953 l 500 916 l 494 909 q 408 899 427 909 q 389 851 389 888 q 401 663 389 804 l 441 205 l 572 473 l 806 962 l 850 962 l 1054 186 l 1236 665 m 1011 1051 l 1002 1043 l 964 1043 l 833 1187 l 640 1043 l 597 1043 l 590 1053 l 804 1291 l 899 1291 l 1011 1051 m 852 1249 m 1107 1116 z "},"Ẅ":{"ha":1389,"x_min":97,"x_max":1487,"o":"m 1236 665 q 1299 871 1299 825 q 1281 902 1299 894 q 1186 909 1263 909 l 1182 916 l 1186 951 l 1193 958 q 1358 953 1312 953 q 1482 957 1421 953 l 1487 951 l 1485 916 l 1479 908 q 1415 896 1426 908 q 1360 772 1404 883 l 1126 197 q 1044 -11 1096 123 l 928 -11 q 882 176 907 82 l 747 686 l 406 -11 l 290 -11 l 256 395 q 222 723 237 602 q 201 870 208 843 q 179 902 193 897 q 103 909 164 907 l 97 916 l 103 953 l 110 958 l 314 954 q 500 958 439 954 l 505 953 l 500 916 l 494 909 q 408 899 427 909 q 389 851 389 888 q 401 663 389 804 l 441 205 l 572 473 l 806 962 l 850 962 l 1054 186 l 1236 665 m 979 1078 q 923 1101 942 1078 q 903 1152 903 1124 q 936 1227 903 1195 q 1011 1260 968 1260 q 1067 1237 1047 1260 q 1086 1186 1086 1214 q 1056 1113 1086 1147 q 979 1078 1025 1078 m 666 1078 q 609 1101 629 1078 q 590 1152 590 1124 q 622 1227 590 1194 q 698 1260 653 1260 q 753 1237 734 1260 q 773 1186 773 1214 q 741 1111 773 1145 q 666 1078 708 1078 z "},"Ý":{"ha":848,"x_min":78,"x_max":935,"o":"m 201 41 q 233 43 210 41 q 295 50 284 45 q 315 70 307 55 q 336 144 324 84 l 359 266 q 370 342 370 326 q 328 525 370 380 q 253 735 286 670 q 191 819 220 800 q 127 838 161 838 q 84 826 106 838 l 78 832 l 78 863 l 83 872 q 150 924 120 899 q 200 967 196 965 q 241 971 229 971 q 307 957 274 971 q 373 894 340 942 q 437 747 407 846 q 491 534 468 649 q 515 422 511 439 q 573 554 550 506 q 644 680 597 602 q 742 822 690 758 q 826 912 793 886 q 884 948 859 939 q 935 958 908 957 l 926 831 q 854 803 887 824 q 756 711 810 775 q 649 554 701 647 q 571 398 596 461 q 528 225 547 334 q 510 85 510 117 q 525 54 510 63 q 565 44 540 45 l 637 41 l 642 35 l 638 1 l 632 -5 q 409 0 553 0 q 196 -5 303 0 l 191 1 l 195 35 l 201 41 m 550 1012 m 395 -44 m 866 1273 q 543 1049 685 1158 l 509 1067 l 513 1076 l 611 1191 q 674 1267 642 1229 l 684 1274 l 774 1282 l 856 1292 l 863 1289 l 866 1273 z "},"Ỳ":{"ha":848,"x_min":78,"x_max":935,"o":"m 201 41 q 233 43 210 41 q 295 50 284 45 q 315 70 307 55 q 336 144 324 84 l 359 266 q 370 342 370 326 q 328 525 370 380 q 253 735 286 670 q 191 819 220 800 q 127 838 161 838 q 84 826 106 838 l 78 832 l 78 863 l 83 872 q 150 924 120 899 q 200 967 196 965 q 241 971 229 971 q 307 957 274 971 q 373 894 340 942 q 437 747 407 846 q 491 534 468 649 q 515 422 511 439 q 573 554 550 506 q 644 680 597 602 q 742 822 690 758 q 826 912 793 886 q 884 948 859 939 q 935 958 908 957 l 926 831 q 854 803 887 824 q 756 711 810 775 q 649 554 701 647 q 571 398 596 461 q 528 225 547 334 q 510 85 510 117 q 525 54 510 63 q 565 44 540 45 l 637 41 l 642 35 l 638 1 l 632 -5 q 409 0 553 0 q 196 -5 303 0 l 191 1 l 195 35 l 201 41 m 550 1012 m 395 -44 m 739 1064 l 701 1045 q 441 1272 629 1116 l 448 1288 l 456 1291 l 606 1273 l 615 1266 q 666 1183 652 1204 q 736 1073 684 1157 l 739 1064 z "},"Ŷ":{"ha":848,"x_min":78,"x_max":935,"o":"m 201 41 q 233 43 210 41 q 295 50 284 45 q 315 70 307 55 q 336 144 324 84 l 359 266 q 370 342 370 326 q 328 525 370 380 q 253 735 286 670 q 191 819 220 800 q 127 838 161 838 q 84 826 106 838 l 78 832 l 78 863 l 83 872 q 150 924 120 899 q 200 967 196 965 q 241 971 229 971 q 307 957 274 971 q 373 894 340 942 q 437 747 407 846 q 491 534 468 649 q 515 422 511 439 q 573 554 550 506 q 644 680 597 602 q 742 822 690 758 q 826 912 793 886 q 884 948 859 939 q 935 958 908 957 l 926 831 q 854 803 887 824 q 756 711 810 775 q 649 554 701 647 q 571 398 596 461 q 528 225 547 334 q 510 85 510 117 q 525 54 510 63 q 565 44 540 45 l 637 41 l 642 35 l 638 1 l 632 -5 q 409 0 553 0 q 196 -5 303 0 l 191 1 l 195 35 l 201 41 m 550 1012 m 395 -44 m 774 1051 l 765 1043 l 727 1043 l 596 1187 l 402 1043 l 359 1043 l 353 1053 l 566 1291 l 662 1291 l 774 1051 m 614 1249 m 869 1116 z "},"Ÿ":{"ha":848,"x_min":78,"x_max":935,"o":"m 201 41 q 233 43 210 41 q 295 50 284 45 q 315 70 307 55 q 336 144 324 84 l 359 266 q 370 342 370 326 q 328 525 370 380 q 253 735 286 670 q 191 819 220 800 q 127 838 161 838 q 84 826 106 838 l 78 832 l 78 863 l 83 872 q 150 924 120 899 q 200 967 196 965 q 241 971 229 971 q 307 957 274 971 q 373 894 340 942 q 437 747 407 846 q 491 534 468 649 q 515 422 511 439 q 573 554 550 506 q 644 680 597 602 q 742 822 690 758 q 826 912 793 886 q 884 948 859 939 q 935 958 908 957 l 926 831 q 854 803 887 824 q 756 711 810 775 q 649 554 701 647 q 571 398 596 461 q 528 225 547 334 q 510 85 510 117 q 525 54 510 63 q 565 44 540 45 l 637 41 l 642 35 l 638 1 l 632 -5 q 409 0 553 0 q 196 -5 303 0 l 191 1 l 195 35 l 201 41 m 550 1012 m 395 -44 m 742 1078 q 685 1101 705 1078 q 666 1152 666 1124 q 699 1227 666 1195 q 774 1260 731 1260 q 829 1237 810 1260 q 849 1186 849 1214 q 818 1113 849 1147 q 742 1078 787 1078 m 429 1078 q 372 1101 391 1078 q 353 1152 353 1124 q 384 1227 353 1194 q 460 1260 416 1260 q 516 1237 496 1260 q 536 1186 536 1214 q 503 1111 536 1145 q 429 1078 471 1078 z "},"Ź":{"ha":926,"x_min":1,"x_max":942,"o":"m 458 68 q 770 92 671 68 q 784 119 777 104 q 799 152 791 134 q 813 188 806 169 q 832 246 820 207 l 839 253 l 876 253 l 884 245 q 829 0 852 125 l 822 -5 q 781 -7 803 -7 q 730 -5 767 -7 l 621 -1 q 467 0 591 0 l 216 0 q 7 -5 118 0 l 1 1 l 8 39 q 119 171 21 48 l 293 386 l 685 882 l 510 882 q 362 879 408 882 q 278 871 317 876 q 235 862 239 866 q 214 818 230 858 q 184 724 198 778 l 176 717 l 139 717 l 134 722 q 171 949 167 905 l 179 958 q 624 953 392 953 q 936 957 703 953 l 942 951 l 936 914 q 736 672 832 794 l 262 69 l 458 68 m 832 1273 q 509 1049 651 1158 l 475 1067 l 479 1076 l 577 1191 q 640 1267 608 1229 l 650 1274 l 740 1282 l 822 1292 l 829 1289 l 832 1273 z "},"Ž":{"ha":926,"x_min":1,"x_max":942,"o":"m 458 68 q 770 92 671 68 q 784 119 777 104 q 799 152 791 134 q 813 188 806 169 q 832 246 820 207 l 839 253 l 876 253 l 884 245 q 829 0 852 125 l 822 -5 q 781 -7 803 -7 q 730 -5 767 -7 l 621 -1 q 467 0 591 0 l 216 0 q 7 -5 118 0 l 1 1 l 8 39 q 119 171 21 48 l 293 386 l 685 882 l 510 882 q 362 879 408 882 q 278 871 317 876 q 235 862 239 866 q 214 818 230 858 q 184 724 198 778 l 176 717 l 139 717 l 134 722 q 171 949 167 905 l 179 958 q 624 953 392 953 q 936 957 703 953 l 942 951 l 936 914 q 736 672 832 794 l 262 69 l 458 68 m 801 1282 l 587 1043 l 492 1043 l 380 1284 l 389 1291 l 427 1291 l 557 1147 l 751 1291 l 794 1291 l 801 1282 z "},"Ż":{"ha":926,"x_min":1,"x_max":942,"o":"m 458 68 q 770 92 671 68 q 784 119 777 104 q 799 152 791 134 q 813 188 806 169 q 832 246 820 207 l 839 253 l 876 253 l 884 245 q 829 0 852 125 l 822 -5 q 781 -7 803 -7 q 730 -5 767 -7 l 621 -1 q 467 0 591 0 l 216 0 q 7 -5 118 0 l 1 1 l 8 39 q 119 171 21 48 l 293 386 l 685 882 l 510 882 q 362 879 408 882 q 278 871 317 876 q 235 862 239 866 q 214 818 230 858 q 184 724 198 778 l 176 717 l 139 717 l 134 722 q 171 949 167 905 l 179 958 q 624 953 392 953 q 936 957 703 953 l 942 951 l 936 914 q 736 672 832 794 l 262 69 l 458 68 m 551 1078 q 495 1100 516 1078 q 475 1152 475 1122 q 507 1227 475 1195 q 583 1260 540 1260 q 638 1237 618 1260 q 658 1186 658 1214 q 625 1111 658 1145 q 551 1078 593 1078 z "},"Ʒ":{"ha":803,"x_min":47,"x_max":791,"o":"m 338 524 l 602 798 l 598 802 q 515 796 549 794 q 404 812 443 805 q 313 822 339 823 q 271 796 294 822 q 236 739 248 770 l 229 734 l 201 745 l 197 751 l 272 966 q 332 973 300 973 q 505 947 366 973 q 668 926 616 926 q 791 942 741 926 l 791 905 l 485 590 l 485 582 q 652 533 578 585 q 743 372 740 472 q 609 101 749 216 q 286 -17 465 -17 q 69 43 176 -17 q 64 132 70 52 q 47 243 54 198 l 53 253 l 89 261 l 96 254 q 158 122 121 174 q 314 49 210 49 q 496 117 426 49 q 559 309 559 178 q 489 453 559 394 q 349 494 439 494 l 338 524 z "},"Ŋ":{"ha":1080,"x_min":-2,"x_max":1146,"o":"m 1146 951 l 1143 917 l 1136 911 q 1048 898 1063 910 q 1026 854 1034 885 q 962 541 1019 823 l 865 64 q 782 -248 816 -181 q 677 -314 747 -314 q 601 -294 641 -314 l 597 -283 l 627 -203 l 637 -203 q 688 -227 656 -227 q 778 -115 751 -227 l 794 -46 l 768 -46 l 313 751 q 205 89 205 185 q 219 55 205 63 q 280 43 234 46 q 315 41 294 43 l 322 40 l 327 35 l 321 0 l 315 -5 l 130 0 q 3 -5 113 0 l -2 1 l 1 35 l 8 40 q 95 54 78 43 q 119 96 112 66 l 148 234 q 216 589 170 341 l 260 832 q 221 881 240 863 q 186 902 203 899 q 96 911 170 905 l 92 917 l 96 951 l 103 957 q 203 954 187 954 l 395 957 l 518 738 l 831 197 q 939 863 939 794 q 922 899 939 893 q 822 911 904 905 l 817 918 l 823 951 l 829 957 q 865 956 844 957 l 1007 952 q 1141 957 1029 952 l 1146 951 z "},"Þ":{"ha":926,"x_min":20,"x_max":895,"o":"m 601 958 l 605 952 l 599 915 l 593 909 l 529 907 q 491 897 502 905 q 473 869 480 889 q 448 755 466 848 l 614 759 q 781 735 721 759 q 868 659 840 711 q 895 545 895 607 q 789 306 895 416 q 552 196 682 196 q 427 221 501 196 l 422 228 l 422 262 l 429 269 q 507 254 471 254 q 614 289 571 254 q 684 388 657 323 q 711 529 711 452 q 689 629 711 593 q 627 682 666 665 q 530 699 587 699 q 437 695 506 699 l 373 326 q 351 186 359 248 l 340 112 q 338 85 338 98 q 353 54 338 63 q 395 44 367 45 l 466 41 l 471 35 l 467 1 l 460 -5 q 237 0 382 0 q 24 -5 126 0 l 20 1 l 24 35 l 30 41 q 61 43 36 41 q 129 52 118 45 q 149 81 140 60 q 185 260 158 103 l 248 621 q 283 869 283 825 q 279 888 283 881 q 264 900 275 896 q 222 906 254 904 l 160 909 l 155 915 l 161 951 l 167 958 q 381 953 259 953 q 601 958 431 953 z "},"a":{"ha":772,"x_min":55,"x_max":722,"o":"m 707 144 l 722 118 l 719 109 q 550 -6 596 19 q 474 -31 505 -31 q 440 -13 452 -31 q 427 33 427 5 q 438 116 427 62 q 485 313 449 170 q 280 43 371 118 q 132 -32 189 -32 q 78 -4 100 -32 q 55 96 55 24 q 74 245 55 160 q 127 416 93 330 q 169 487 145 460 q 273 572 193 513 q 387 642 353 630 q 463 654 420 654 q 533 645 492 654 q 608 618 574 636 l 670 655 l 692 639 q 651 491 675 599 l 601 262 q 574 113 574 140 q 592 86 574 86 q 699 144 614 86 l 707 144 m 516 549 q 405 580 456 580 q 319 538 352 580 q 249 351 287 496 q 211 136 211 205 q 238 85 211 85 q 340 170 267 85 q 460 359 413 256 q 516 549 507 463 m 468 704 m 292 -44 z "},"b":{"ha":746,"x_min":73,"x_max":696,"o":"m 368 1014 l 385 999 q 260 433 313 696 q 433 607 342 553 q 599 661 524 661 q 674 611 652 661 q 696 490 696 562 q 649 255 696 377 q 477 52 603 134 q 245 -29 352 -29 q 151 -12 191 -29 q 92 42 110 6 q 73 122 73 79 q 80 200 73 156 q 111 380 86 245 q 196 873 196 846 q 187 898 196 890 q 156 907 178 907 q 87 909 134 908 l 81 915 l 85 944 l 92 950 q 368 1014 240 968 m 224 159 q 253 66 224 96 q 321 37 281 37 q 394 65 357 37 q 463 153 431 92 q 515 299 494 214 q 536 449 536 385 q 521 535 536 507 q 479 563 505 563 q 420 542 457 563 q 343 477 382 521 q 279 383 304 433 q 239 272 254 333 q 224 159 224 212 z "},"c":{"ha":616,"x_min":54,"x_max":610,"o":"m 549 155 l 565 127 l 563 119 q 372 2 447 35 q 231 -31 298 -31 q 135 -6 178 -31 q 73 64 92 20 q 54 159 54 109 q 68 289 54 220 q 103 408 82 357 q 145 484 125 458 q 192 528 165 509 q 287 590 218 548 q 355 631 336 622 q 402 648 373 641 q 465 655 431 655 q 608 622 530 655 l 610 614 q 586 529 600 590 q 566 429 571 467 l 559 423 l 524 423 l 519 429 q 525 496 525 466 q 524 517 525 503 q 399 568 466 568 q 323 550 351 568 q 277 496 296 532 q 236 367 258 461 q 213 198 213 272 q 241 100 213 137 q 317 62 269 62 q 407 80 357 62 q 542 155 456 98 l 549 155 z "},"d":{"ha":772,"x_min":55,"x_max":769,"o":"m 471 909 l 465 915 l 469 944 l 476 950 q 752 1014 623 968 l 769 999 l 720 787 q 643 410 701 696 q 594 149 601 201 q 591 110 591 122 q 605 87 591 87 q 701 144 622 87 l 709 144 l 723 117 l 721 109 q 556 -7 595 13 q 490 -27 517 -27 q 453 -7 467 -27 q 440 38 440 12 q 466 177 440 76 q 500 321 479 229 q 315 72 422 173 q 141 -29 208 -29 q 78 7 101 -29 q 55 107 55 44 q 77 283 55 191 q 128 435 98 374 q 179 515 157 495 q 272 581 200 534 q 379 641 343 628 q 456 654 415 654 q 549 640 494 654 l 570 783 q 580 872 580 846 q 571 899 580 890 q 541 907 562 907 q 471 909 519 908 m 532 559 q 415 583 482 583 q 338 565 363 583 q 282 464 313 547 q 233 291 252 382 q 214 134 214 200 q 239 85 214 85 q 297 113 262 85 q 385 209 332 140 q 472 356 437 279 q 519 498 507 434 l 532 559 z "},"e":{"ha":616,"x_min":43,"x_max":584,"o":"m 526 155 l 541 127 l 539 119 q 346 2 420 34 q 216 -29 273 -29 q 123 -8 167 -29 q 61 53 80 13 q 43 136 43 92 q 71 324 43 210 q 142 494 99 439 q 283 606 186 550 q 450 661 380 661 q 547 631 509 661 q 584 545 584 601 q 543 419 584 475 q 405 325 501 363 q 208 270 309 287 q 201 179 201 220 q 232 89 201 113 q 302 64 264 64 q 366 75 330 64 q 426 99 402 85 q 518 155 450 112 l 526 155 m 214 307 q 404 404 355 338 q 452 526 452 469 q 433 577 452 559 q 387 595 414 595 q 290 536 331 595 q 214 307 250 477 m 441 704 m 215 -44 z "},"f":{"ha":463,"x_min":-163,"x_max":649,"o":"m 68 570 l 73 594 l 81 602 q 142 621 96 607 q 214 646 189 634 q 222 683 216 650 q 243 755 234 733 q 273 804 252 777 q 353 879 295 830 q 459 963 410 928 q 533 1007 509 998 q 588 1017 558 1017 q 649 1005 620 1017 q 610 829 623 915 l 590 825 q 486 905 538 905 q 450 893 467 905 q 424 861 433 881 q 398 771 415 841 q 370 635 381 701 l 385 635 q 461 638 399 635 q 542 646 523 642 l 549 635 q 529 570 534 596 l 522 564 q 428 565 498 565 q 355 564 372 565 l 302 328 q 239 72 270 183 q 158 -154 197 -77 q 57 -293 118 -231 q -53 -377 -4 -354 q -111 -391 -83 -391 q -163 -379 -136 -391 q -118 -229 -130 -295 l -96 -224 q -28 -286 -70 -286 q -1 -279 -14 -286 q 24 -256 12 -272 q 53 -172 35 -239 q 94 24 70 -105 l 144 286 l 197 564 q 136 565 159 565 q 73 564 100 565 l 68 570 z "},"g":{"ha":694,"x_min":-69,"x_max":733,"o":"m 197 16 q 161 84 161 48 q 163 101 161 92 q 168 113 166 111 q 179 121 170 115 q 290 193 269 176 l 264 193 q 131 234 186 193 q 76 366 76 275 q 90 453 76 412 q 126 528 103 495 q 173 577 149 560 q 246 616 197 595 q 333 650 295 637 q 399 662 371 662 q 443 659 421 662 q 474 653 465 656 q 507 640 483 650 l 528 633 q 569 629 530 631 q 627 627 608 627 q 687 630 645 627 q 726 632 717 632 l 733 621 l 718 550 q 665 555 705 553 q 621 557 626 557 q 597 555 614 557 q 613 477 613 520 q 596 382 613 429 q 555 306 578 336 q 500 257 532 275 q 411 216 467 238 q 355 192 373 201 q 325 168 336 182 q 314 144 314 155 q 326 115 314 131 q 408 51 338 98 q 539 -57 506 -18 q 572 -153 572 -97 q 469 -323 572 -259 q 220 -388 366 -388 q 64 -366 132 -388 q -37 -302 -4 -344 q -69 -212 -69 -260 q -18 -96 -69 -153 q 155 1 34 -39 l 197 16 m 220 368 q 249 270 220 299 q 322 241 277 241 q 400 274 369 241 q 448 364 431 307 q 464 476 464 421 q 434 572 464 545 q 361 600 404 600 q 257 529 294 600 q 220 368 220 457 m 227 -11 l 167 -41 q 118 -71 137 -56 q 84 -104 99 -85 q 62 -146 69 -123 q 54 -192 54 -168 q 79 -269 54 -238 q 148 -318 103 -300 q 247 -336 193 -336 q 379 -297 330 -336 q 428 -203 428 -258 q 404 -142 428 -172 q 227 -11 379 -112 z "},"h":{"ha":772,"x_min":22,"x_max":709,"o":"m 370 1014 l 387 999 q 240 348 288 582 q 445 579 333 495 q 626 663 556 663 q 682 604 682 663 q 673 530 682 571 q 621 332 664 489 q 573 118 573 159 q 592 88 573 88 q 623 99 605 88 q 687 143 642 110 l 695 142 l 709 119 l 707 109 q 541 -3 592 22 q 460 -29 490 -29 q 426 -13 440 -29 q 411 41 411 3 q 417 97 411 66 q 448 222 422 127 q 514 502 514 468 q 488 532 514 532 q 436 513 468 532 q 333 412 385 481 q 245 260 281 344 q 196 106 222 205 q 180 3 180 41 q 110 -7 159 3 q 36 -24 60 -18 l 22 -12 q 114 384 67 136 q 181 760 161 631 l 193 831 q 198 873 198 861 q 189 898 198 889 q 157 907 180 907 q 89 909 134 908 l 83 915 l 87 944 l 94 950 q 370 1014 240 968 z "},"i":{"ha":463,"x_min":40,"x_max":437,"o":"m 267 871 q 293 943 267 913 q 361 973 319 973 q 416 952 396 973 q 437 897 437 930 q 412 822 437 855 q 344 788 388 788 q 284 812 302 788 q 267 871 267 836 m 54 460 l 40 484 l 41 493 q 228 625 161 586 q 332 663 294 663 q 361 649 349 663 q 373 612 373 634 q 362 536 373 582 q 318 364 352 491 q 259 111 259 146 q 265 95 259 102 q 278 87 271 87 q 387 151 298 87 l 395 150 l 410 123 l 407 114 q 294 36 359 80 q 200 -18 228 -7 q 151 -29 172 -29 q 111 -9 124 -29 q 98 41 98 10 q 106 112 98 73 q 140 250 114 152 q 197 506 197 467 q 181 525 197 525 q 63 460 155 525 l 54 460 m 146 -44 z "},"j":{"ha":463,"x_min":-81,"x_max":457,"o":"m 287 871 q 314 944 287 914 q 382 973 340 973 q 437 952 417 973 q 457 897 457 931 q 432 820 457 852 q 364 788 407 788 q 306 811 325 788 q 287 871 287 834 m -81 -387 q -67 -275 -70 -347 l -48 -271 q -10 -311 -25 -304 q 18 -318 5 -318 q 39 -311 30 -318 q 64 -266 54 -298 q 138 64 82 -208 l 197 366 q 218 504 218 476 q 203 526 218 526 q 83 460 177 526 l 74 460 l 60 484 l 61 493 q 263 633 205 602 q 357 663 321 663 q 393 607 393 663 q 360 428 393 571 l 314 227 q 243 -49 273 56 q 180 -212 214 -154 q 87 -331 147 -270 q 21 -383 47 -372 q -36 -395 -5 -395 q -81 -387 -60 -395 z "},"k":{"ha":772,"x_min":62,"x_max":751,"o":"m 131 909 l 125 915 l 130 944 l 136 950 q 412 1014 283 968 l 429 999 q 279 310 395 863 q 331 373 281 313 q 444 504 395 451 q 543 595 493 557 q 631 648 593 633 q 711 662 669 662 q 748 658 729 662 l 751 650 q 726 547 730 581 l 718 541 q 656 554 678 554 q 558 528 612 554 q 454 444 504 503 q 501 313 461 422 q 566 153 541 203 q 603 94 591 103 q 625 85 614 85 q 722 134 650 85 l 729 133 l 744 106 l 742 97 q 688 61 715 80 q 514 -29 558 -29 q 492 -24 502 -29 q 467 2 481 -18 q 436 65 452 23 q 386 198 419 108 q 341 323 352 289 q 288 261 303 283 q 266 219 273 238 q 248 144 259 201 q 232 60 236 87 q 228 5 228 33 q 74 -22 159 2 l 62 -5 q 180 518 119 194 q 240 873 240 842 q 231 898 240 890 q 203 907 222 906 q 131 909 184 908 z "},"l":{"ha":463,"x_min":94,"x_max":443,"o":"m 391 150 l 406 123 l 404 115 q 213 -11 253 8 q 147 -29 173 -29 q 106 -6 118 -29 q 94 48 94 18 q 134 296 94 110 l 229 726 q 245 811 237 762 q 254 873 254 861 q 245 898 254 888 q 213 907 237 907 q 144 909 190 908 l 139 915 l 143 944 l 150 950 q 426 1014 298 968 l 443 999 q 330 493 385 759 l 264 186 q 256 119 256 144 q 274 90 256 90 q 383 151 300 90 l 391 150 z "},"m":{"ha":1157,"x_min":31,"x_max":1114,"o":"m 71 -26 l 58 -6 q 74 46 58 -3 q 139 301 107 153 q 172 500 172 450 q 165 522 172 513 q 151 530 159 530 q 131 522 144 530 q 54 466 118 513 l 45 467 l 31 490 l 32 500 q 146 591 81 541 q 242 653 212 640 q 294 666 273 666 q 321 653 311 666 q 331 623 331 640 q 321 555 331 602 q 266 306 312 508 q 466 569 355 471 q 646 666 577 666 q 681 651 667 666 q 694 611 694 635 q 688 555 694 591 q 665 452 682 519 l 628 306 q 832 570 714 477 q 1025 663 950 663 q 1062 644 1050 663 q 1074 596 1074 625 q 1049 452 1074 548 q 971 111 971 161 q 987 88 971 88 q 1090 151 1005 88 l 1099 150 l 1114 123 l 1112 115 q 945 1 998 32 q 857 -29 891 -29 q 820 -12 834 -29 q 806 31 806 6 q 818 116 806 62 q 861 287 830 170 q 896 434 888 395 q 904 493 904 473 q 882 525 904 525 q 834 505 866 525 q 755 432 802 486 q 670 310 707 379 q 606 133 633 240 q 579 -6 579 26 q 435 -26 530 -6 l 419 -6 q 498 265 458 92 q 538 498 538 438 q 532 519 538 512 q 516 527 526 527 q 465 505 498 527 q 383 420 431 484 q 299 289 334 356 q 243 129 264 221 q 220 1 222 37 q 71 -26 176 1 z "},"n":{"ha":772,"x_min":24,"x_max":730,"o":"m 60 -25 l 42 -8 q 96 169 63 45 q 145 384 130 292 q 160 500 160 475 q 144 524 160 524 q 47 467 123 524 l 37 467 l 24 491 l 24 500 q 106 566 60 530 q 191 626 153 602 q 248 657 229 650 q 283 663 267 663 q 320 619 320 663 q 308 527 320 587 q 257 320 296 466 q 450 562 334 462 q 639 663 566 663 q 696 598 696 663 q 681 497 696 563 q 631 305 665 432 q 599 174 608 221 q 591 113 591 127 q 607 88 591 88 q 707 144 633 88 l 715 143 l 730 117 l 728 108 q 562 -4 612 20 q 475 -29 511 -29 q 437 -7 447 -29 q 427 39 427 15 q 475 262 427 94 q 527 496 527 446 q 500 524 527 524 q 467 513 488 524 q 405 460 446 503 q 329 364 363 418 q 270 248 295 311 q 227 114 244 186 q 206 1 210 43 q 60 -25 120 -6 z "},"o":{"ha":772,"x_min":68,"x_max":702,"o":"m 68 190 q 90 348 68 253 q 163 508 111 444 q 303 617 215 572 q 485 663 391 663 q 642 608 581 663 q 702 444 702 553 q 665 240 702 344 q 565 87 627 136 q 435 5 503 39 q 280 -29 367 -29 q 151 3 197 -29 q 87 85 105 35 q 68 190 68 135 m 229 195 q 260 75 229 113 q 349 38 291 38 q 421 60 389 38 q 479 141 452 83 q 523 285 506 199 q 539 441 539 371 q 505 566 539 530 q 420 601 470 601 q 329 561 368 601 q 259 405 289 521 q 229 195 229 288 m 468 704 m 305 -44 z "},"p":{"ha":772,"x_min":-18,"x_max":726,"o":"m 37 490 l 37 500 q 148 588 90 545 q 237 649 205 631 q 294 667 269 667 q 336 621 336 667 q 324 536 336 597 q 284 369 311 475 q 386 509 340 457 q 508 612 431 561 q 645 663 585 663 q 687 647 670 663 q 715 586 705 630 q 726 496 726 541 q 693 311 726 413 q 625 161 660 208 q 525 70 595 119 q 407 -1 454 22 q 296 -23 360 -23 q 218 -14 252 -23 q 181 -176 202 -79 q 156 -295 159 -273 q 151 -358 153 -317 q 70 -371 134 -359 q -4 -387 5 -382 l -18 -376 l 43 -143 q 122 205 75 -14 q 176 476 168 424 q 178 500 178 490 q 172 522 178 513 q 157 530 165 530 q 132 519 149 530 q 60 466 115 508 l 51 467 l 37 490 m 234 82 q 365 45 300 45 q 421 59 396 45 q 470 112 446 73 q 515 216 494 151 q 551 344 536 282 q 566 471 566 406 q 558 532 566 514 q 531 550 550 550 q 476 531 512 550 q 396 463 439 512 q 318 350 352 414 q 272 245 284 287 q 234 82 260 203 z "},"q":{"ha":746,"x_min":47,"x_max":710,"o":"m 316 -387 l 303 -361 q 330 -338 326 -343 q 341 -316 334 -333 q 355 -264 347 -300 q 370 -197 358 -245 l 415 5 l 451 168 l 475 271 q 279 53 379 130 q 116 -24 178 -24 q 64 11 81 -24 q 47 95 47 46 q 62 226 47 149 q 107 381 77 303 q 162 486 137 459 q 262 568 188 513 q 373 643 337 623 q 463 663 409 663 q 621 625 545 663 l 686 664 l 710 650 q 695 612 701 630 q 659 468 684 579 q 597 176 633 357 l 534 -117 q 498 -305 505 -259 q 496 -338 496 -322 q 498 -358 496 -342 q 316 -387 449 -358 m 528 557 q 472 581 505 573 q 416 588 439 588 q 345 571 375 588 q 281 469 314 555 q 224 277 248 382 q 201 136 201 172 q 232 87 201 87 q 293 116 252 87 q 395 226 333 145 q 485 377 458 307 q 528 557 511 447 z "},"r":{"ha":541,"x_min":37,"x_max":573,"o":"m 81 -26 l 66 -9 q 144 305 120 172 q 168 492 168 437 q 153 526 168 526 q 60 471 134 526 l 50 472 l 37 494 l 38 504 q 209 633 156 602 q 287 664 262 664 q 317 649 307 664 q 327 612 327 633 q 321 562 327 589 q 270 339 316 535 l 279 339 q 347 480 311 414 q 418 589 383 547 q 478 645 452 631 q 533 659 504 659 q 568 654 551 659 l 573 647 q 554 557 563 616 q 545 463 545 498 l 530 453 q 458 482 498 482 q 396 460 425 482 q 330 368 366 437 q 268 203 294 299 q 229 3 241 107 q 152 -8 194 -3 q 81 -26 111 -14 z "},"s":{"ha":616,"x_min":37,"x_max":563,"o":"m 70 200 l 100 200 l 106 194 l 109 134 q 182 77 135 101 q 281 53 229 53 q 348 64 318 53 q 393 102 378 75 q 408 158 408 130 q 396 203 408 184 q 362 233 383 222 q 294 254 341 244 q 198 278 226 270 q 148 304 170 287 q 111 353 125 322 q 96 421 96 385 q 110 491 96 458 q 150 549 124 525 q 232 608 175 573 q 319 653 289 644 q 394 663 350 663 q 563 620 486 663 q 539 461 549 555 l 533 456 l 503 456 l 497 461 l 490 524 q 417 570 459 553 q 335 586 374 586 q 256 558 288 586 q 224 488 224 531 q 256 420 224 441 q 379 382 288 399 q 474 355 443 370 q 525 307 505 340 q 545 228 545 273 q 526 145 545 181 q 446 61 506 109 q 340 -5 385 14 q 222 -24 294 -24 q 147 -18 185 -24 q 40 14 109 -13 l 37 21 q 53 105 44 44 q 64 194 62 166 l 70 200 z "},"t":{"ha":541,"x_min":68,"x_max":570,"o":"m 214 564 l 73 564 l 68 570 l 72 594 l 80 602 q 233 648 136 615 q 242 713 234 663 q 256 840 256 789 q 378 878 296 848 q 425 895 416 892 l 440 878 q 378 636 418 811 l 448 636 q 563 642 530 636 l 570 631 q 555 566 561 600 l 546 559 q 436 564 496 564 l 363 564 q 336 434 352 507 l 308 301 l 287 198 q 277 142 279 155 q 275 119 275 129 q 284 92 275 101 q 307 83 294 83 q 334 89 319 83 q 372 110 348 95 q 457 168 397 125 l 467 167 l 480 140 l 479 132 q 274 -5 323 18 q 195 -29 224 -29 q 135 -5 155 -29 q 115 59 115 20 q 122 121 115 84 q 160 300 129 159 q 214 564 213 545 z "},"u":{"ha":772,"x_min":36,"x_max":723,"o":"m 47 486 l 36 511 l 37 521 q 196 627 133 591 q 297 663 259 663 q 341 610 341 663 q 333 545 341 584 q 303 421 326 507 l 246 193 q 236 126 236 146 q 260 98 236 98 q 304 117 275 98 q 391 210 333 136 q 473 343 435 267 q 537 524 510 420 q 555 631 551 581 q 703 658 625 635 l 715 646 q 631 342 673 513 q 589 121 589 172 q 608 96 589 96 q 633 103 620 96 q 665 125 646 111 q 700 151 686 140 l 708 151 l 723 124 l 721 115 q 545 -8 582 11 q 479 -27 507 -27 q 447 -12 458 -27 q 435 30 435 3 q 470 203 435 71 l 496 307 q 320 74 431 180 q 140 -32 208 -32 q 93 -12 111 -32 q 75 49 75 9 q 80 105 75 75 q 111 227 86 135 q 169 505 169 445 q 149 533 169 533 q 130 528 141 533 q 56 484 119 524 l 47 486 m 468 704 m 292 -44 z "},"v":{"ha":772,"x_min":39,"x_max":720,"o":"m 39 471 l 94 648 q 171 658 152 658 q 231 654 197 658 q 354 648 314 648 q 441 667 415 648 l 460 640 q 379 524 425 602 q 308 360 333 446 q 283 199 283 275 q 309 95 283 128 q 375 62 334 62 q 489 122 435 62 q 579 287 543 182 q 615 468 615 392 q 555 549 615 549 q 517 536 537 549 l 508 539 l 500 557 l 502 566 q 551 610 522 581 q 588 656 579 640 q 618 661 604 661 q 720 521 720 661 q 647 263 720 401 q 480 48 574 125 q 298 -29 386 -29 q 178 21 224 -29 q 131 169 131 71 q 147 279 131 223 q 203 395 163 334 q 359 572 243 455 q 312 563 331 566 q 229 559 294 559 l 168 561 q 123 557 161 561 l 79 470 l 72 465 l 43 465 l 39 471 z "},"w":{"ha":1157,"x_min":36,"x_max":1108,"o":"m 36 469 q 87 649 82 597 q 155 657 124 657 q 228 654 187 657 q 344 646 307 646 q 444 663 404 646 l 463 640 q 330 434 385 553 q 275 203 275 316 q 351 64 275 64 q 389 74 370 64 q 446 130 408 85 q 513 235 484 174 q 560 356 543 296 q 595 506 577 417 q 614 617 614 595 l 614 625 q 762 662 701 640 l 779 650 q 686 174 686 328 q 710 86 686 112 q 766 61 734 61 q 833 89 795 61 q 912 178 871 117 q 978 324 954 239 q 1002 469 1002 408 q 985 531 1002 508 q 937 554 969 554 q 901 544 918 554 l 891 545 l 881 565 l 883 574 q 975 653 940 615 q 1008 659 994 659 q 1081 622 1055 659 q 1108 519 1108 586 q 1060 316 1108 422 q 941 129 1013 210 q 802 9 869 48 q 679 -29 735 -29 q 589 9 628 -29 q 549 130 549 47 q 562 238 549 170 l 526 176 q 484 113 509 146 q 426 50 458 80 q 364 1 393 19 q 313 -23 336 -16 q 267 -29 291 -29 q 165 20 206 -29 q 123 165 123 69 q 167 342 123 256 q 357 572 211 427 q 249 557 302 557 q 222 558 242 557 q 173 559 185 559 q 119 555 146 559 q 96 507 104 526 q 79 468 81 473 l 71 463 l 41 463 l 36 469 z "},"x":{"ha":694,"x_min":-11,"x_max":694,"o":"m -11 -11 q 7 65 0 19 q 14 119 14 111 q 13 134 14 127 l 47 138 l 55 94 q 91 86 75 86 q 142 103 115 86 q 221 187 170 121 q 287 277 272 254 q 255 455 266 404 q 222 522 243 506 q 180 538 201 538 q 127 520 155 538 q 87 477 100 503 l 79 475 l 56 488 l 55 495 q 134 634 123 602 q 236 662 188 662 q 334 627 300 662 q 378 550 367 592 q 401 422 390 507 q 533 601 498 566 q 595 648 568 636 q 647 661 623 661 q 694 650 667 661 q 662 497 670 592 l 633 492 l 620 530 q 593 537 606 537 q 520 504 557 537 q 412 367 484 471 q 448 174 433 229 q 480 102 464 119 q 513 85 496 85 q 617 149 544 85 l 625 148 l 641 123 l 640 115 q 485 -9 521 11 q 421 -29 448 -29 q 365 -5 390 -29 q 329 62 340 20 q 299 223 317 104 q 186 67 220 108 q 131 6 153 26 q 90 -21 110 -14 q 48 -29 70 -29 q 27 -27 35 -29 q -11 -11 19 -24 z "},"y":{"ha":772,"x_min":24,"x_max":750,"o":"m 33 -252 l 119 -197 l 139 -205 q 138 -231 138 -219 q 162 -296 138 -269 q 228 -323 186 -323 q 273 -313 251 -323 q 318 -280 296 -303 q 363 -212 341 -256 q 410 -83 385 -168 q 454 77 436 1 l 492 228 q 325 34 400 95 q 209 -27 250 -27 q 161 4 182 -27 q 141 109 141 35 q 167 377 141 147 q 172 475 172 464 q 167 523 172 511 q 147 534 161 534 q 47 477 125 534 l 37 478 l 24 500 l 25 511 l 106 574 q 205 642 165 621 q 273 663 245 663 q 313 641 299 663 q 328 577 328 618 q 317 449 328 553 l 303 328 q 290 158 290 209 q 299 105 290 114 q 315 96 309 96 q 365 125 331 96 q 447 233 399 155 q 531 420 496 311 q 579 625 566 530 l 734 659 l 750 646 q 718 546 745 637 q 655 321 690 455 q 579 48 611 149 q 504 -130 547 -52 q 406 -266 461 -208 q 292 -356 350 -324 q 175 -387 233 -387 q 75 -358 116 -387 q 33 -267 33 -328 l 33 -252 m 468 704 m 649 -44 z "},"z":{"ha":694,"x_min":37,"x_max":643,"o":"m 37 37 l 504 529 q 399 503 453 503 q 285 513 362 503 q 197 522 220 522 q 168 520 184 522 q 138 452 160 505 l 130 448 l 102 450 l 98 456 l 159 648 q 230 661 195 661 q 376 635 281 661 q 522 610 465 610 q 576 621 555 610 q 616 661 598 632 l 643 650 l 624 578 l 172 108 q 300 142 251 142 q 405 130 335 142 q 511 116 481 116 q 543 119 522 116 l 577 194 l 585 198 l 611 196 l 616 191 q 566 -4 591 121 q 486 -22 533 -22 q 426 -18 450 -22 q 317 9 402 -14 q 162 33 222 33 q 54 -13 94 33 l 37 37 z "},"á":{"ha":772,"x_min":55,"x_max":763,"o":"m 707 144 l 722 118 l 719 109 q 550 -6 596 19 q 474 -31 505 -31 q 440 -13 452 -31 q 427 33 427 5 q 438 116 427 62 q 485 313 449 170 q 280 43 371 118 q 132 -32 189 -32 q 78 -4 100 -32 q 55 96 55 24 q 74 245 55 160 q 127 416 93 330 q 169 487 145 460 q 273 572 193 513 q 387 642 353 630 q 463 654 420 654 q 533 645 492 654 q 608 618 574 636 l 670 655 l 692 639 q 651 491 675 599 l 601 262 q 574 113 574 140 q 592 86 574 86 q 699 144 614 86 l 707 144 m 516 549 q 405 580 456 580 q 319 538 352 580 q 249 351 287 496 q 211 136 211 205 q 238 85 211 85 q 340 170 267 85 q 460 359 413 256 q 516 549 507 463 m 468 704 m 292 -44 m 763 1000 q 401 741 526 837 l 366 759 l 371 768 l 483 895 q 571 994 519 936 l 581 1000 l 671 1008 l 753 1019 l 760 1015 l 763 1000 z "},"à":{"ha":772,"x_min":55,"x_max":722,"o":"m 707 144 l 722 118 l 719 109 q 550 -6 596 19 q 474 -31 505 -31 q 440 -13 452 -31 q 427 33 427 5 q 438 116 427 62 q 485 313 449 170 q 280 43 371 118 q 132 -32 189 -32 q 78 -4 100 -32 q 55 96 55 24 q 74 245 55 160 q 127 416 93 330 q 169 487 145 460 q 273 572 193 513 q 387 642 353 630 q 463 654 420 654 q 533 645 492 654 q 608 618 574 636 l 670 655 l 692 639 q 651 491 675 599 l 601 262 q 574 113 574 140 q 592 86 574 86 q 699 144 614 86 l 707 144 m 516 549 q 405 580 456 580 q 319 538 352 580 q 249 351 287 496 q 211 136 211 205 q 238 85 211 85 q 340 170 267 85 q 460 359 413 256 q 516 549 507 463 m 468 704 m 292 -44 m 652 759 l 614 740 q 530 820 581 772 q 430 911 479 868 l 326 1000 l 332 1015 l 340 1019 l 491 1000 l 500 994 q 650 768 542 926 l 652 759 z "},"â":{"ha":772,"x_min":55,"x_max":787,"o":"m 707 144 l 722 118 l 719 109 q 550 -6 596 19 q 474 -31 505 -31 q 440 -13 452 -31 q 427 33 427 5 q 438 116 427 62 q 485 313 449 170 q 280 43 371 118 q 132 -32 189 -32 q 78 -4 100 -32 q 55 96 55 24 q 74 245 55 160 q 127 416 93 330 q 169 487 145 460 q 273 572 193 513 q 387 642 353 630 q 463 654 420 654 q 533 645 492 654 q 608 618 574 636 l 670 655 l 692 639 q 651 491 675 599 l 601 262 q 574 113 574 140 q 592 86 574 86 q 699 144 614 86 l 707 144 m 516 549 q 405 580 456 580 q 319 538 352 580 q 249 351 287 496 q 211 136 211 205 q 238 85 211 85 q 340 170 267 85 q 460 359 413 256 q 516 549 507 463 m 468 704 m 292 -44 m 694 760 l 688 753 l 651 753 l 517 901 l 319 753 l 277 753 l 271 760 l 487 1005 l 583 1005 l 694 760 m 532 962 m 787 829 z "},"ä":{"ha":772,"x_min":55,"x_max":735,"o":"m 707 144 l 722 118 l 719 109 q 550 -6 596 19 q 474 -31 505 -31 q 440 -13 452 -31 q 427 33 427 5 q 438 116 427 62 q 485 313 449 170 q 280 43 371 118 q 132 -32 189 -32 q 78 -4 100 -32 q 55 96 55 24 q 74 245 55 160 q 127 416 93 330 q 169 487 145 460 q 273 572 193 513 q 387 642 353 630 q 463 654 420 654 q 533 645 492 654 q 608 618 574 636 l 670 655 l 692 639 q 651 491 675 599 l 601 262 q 574 113 574 140 q 592 86 574 86 q 699 144 614 86 l 707 144 m 516 549 q 405 580 456 580 q 319 538 352 580 q 249 351 287 496 q 211 136 211 205 q 238 85 211 85 q 340 170 267 85 q 460 359 413 256 q 516 549 507 463 m 468 704 m 292 -44 m 637 772 q 588 792 606 772 q 569 839 569 812 q 598 908 569 878 q 667 938 627 938 q 716 918 697 938 q 735 871 735 899 q 705 803 735 833 q 637 772 675 772 m 353 772 q 302 793 319 772 q 285 839 285 814 q 315 908 285 879 q 383 938 345 938 q 432 918 413 938 q 451 871 451 899 q 422 804 451 835 q 353 772 394 772 z "},"ã":{"ha":772,"x_min":55,"x_max":732,"o":"m 707 144 l 722 118 l 719 109 q 550 -6 596 19 q 474 -31 505 -31 q 440 -13 452 -31 q 427 33 427 5 q 438 116 427 62 q 485 313 449 170 q 280 43 371 118 q 132 -32 189 -32 q 78 -4 100 -32 q 55 96 55 24 q 74 245 55 160 q 127 416 93 330 q 169 487 145 460 q 273 572 193 513 q 387 642 353 630 q 463 654 420 654 q 533 645 492 654 q 608 618 574 636 l 670 655 l 692 639 q 651 491 675 599 l 601 262 q 574 113 574 140 q 592 86 574 86 q 699 144 614 86 l 707 144 m 516 549 q 405 580 456 580 q 319 538 352 580 q 249 351 287 496 q 211 136 211 205 q 238 85 211 85 q 340 170 267 85 q 460 359 413 256 q 516 549 507 463 m 468 704 m 292 -44 m 732 932 q 679 824 718 866 q 586 782 640 782 q 471 813 551 782 q 372 843 395 843 q 304 781 326 843 l 265 781 l 258 789 q 312 900 273 859 q 404 940 351 940 q 534 905 444 940 q 621 881 595 881 q 686 942 660 881 l 724 942 l 732 932 z "},"ă":{"ha":772,"x_min":55,"x_max":722,"o":"m 707 144 l 722 118 l 719 109 q 550 -6 596 19 q 474 -31 505 -31 q 440 -13 452 -31 q 427 33 427 5 q 438 116 427 62 q 485 313 449 170 q 280 43 371 118 q 132 -32 189 -32 q 78 -4 100 -32 q 55 96 55 24 q 74 245 55 160 q 127 416 93 330 q 169 487 145 460 q 273 572 193 513 q 387 642 353 630 q 463 654 420 654 q 533 645 492 654 q 608 618 574 636 l 670 655 l 692 639 q 651 491 675 599 l 601 262 q 574 113 574 140 q 592 86 574 86 q 699 144 614 86 l 707 144 m 516 549 q 405 580 456 580 q 319 538 352 580 q 249 351 287 496 q 211 136 211 205 q 238 85 211 85 q 340 170 267 85 q 460 359 413 256 q 516 549 507 463 m 468 704 m 292 -44 m 713 956 q 624 795 688 839 q 492 751 561 751 q 411 766 446 751 q 351 809 376 781 q 317 875 326 838 q 312 956 312 894 l 321 964 l 355 964 q 504 848 366 848 q 672 964 629 848 l 705 964 l 713 956 m 522 938 z "},"å":{"ha":772,"x_min":55,"x_max":722,"o":"m 707 144 l 722 118 l 719 109 q 550 -6 596 19 q 474 -31 505 -31 q 440 -13 452 -31 q 427 33 427 5 q 438 116 427 62 q 485 313 449 170 q 280 43 371 118 q 132 -32 189 -32 q 78 -4 100 -32 q 55 96 55 24 q 74 245 55 160 q 127 416 93 330 q 169 487 145 460 q 273 572 193 513 q 387 642 353 630 q 463 654 420 654 q 533 645 492 654 q 608 618 574 636 l 670 655 l 692 639 q 651 491 675 599 l 601 262 q 574 113 574 140 q 592 86 574 86 q 699 144 614 86 l 707 144 m 516 549 q 405 580 456 580 q 319 538 352 580 q 249 351 287 496 q 211 136 211 205 q 238 85 211 85 q 340 170 267 85 q 460 359 413 256 q 516 549 507 463 m 468 704 m 292 -44 m 645 876 q 603 782 645 821 q 502 742 560 742 q 410 777 439 742 q 380 855 380 812 q 422 950 380 910 q 524 989 465 989 q 612 957 580 989 q 645 876 645 925 m 586 876 q 570 932 586 908 q 521 956 553 956 q 460 925 481 956 q 439 856 439 894 q 455 800 439 825 q 505 775 471 775 q 565 806 543 775 q 586 876 586 838 z "},"ǻ":{"ha":772,"x_min":55,"x_max":831,"o":"m 707 144 l 722 118 l 719 109 q 550 -6 596 19 q 474 -31 505 -31 q 440 -13 452 -31 q 427 33 427 5 q 438 116 427 62 q 485 313 449 170 q 280 43 371 118 q 132 -32 189 -32 q 78 -4 100 -32 q 55 96 55 24 q 74 245 55 160 q 127 416 93 330 q 169 487 145 460 q 273 572 193 513 q 387 642 353 630 q 463 654 420 654 q 533 645 492 654 q 608 618 574 636 l 670 655 l 692 639 q 651 491 675 599 l 601 262 q 574 113 574 140 q 592 86 574 86 q 699 144 614 86 l 707 144 m 516 549 q 405 580 456 580 q 319 538 352 580 q 249 351 287 496 q 211 136 211 205 q 238 85 211 85 q 340 170 267 85 q 460 359 413 256 q 516 549 507 463 m 468 704 m 292 -44 m 645 876 q 603 782 645 821 q 502 742 560 742 q 410 777 439 742 q 380 855 380 812 q 422 950 380 910 q 524 989 465 989 q 612 957 580 989 q 645 876 645 925 m 586 876 q 570 932 586 908 q 521 956 553 956 q 460 925 481 956 q 439 856 439 894 q 455 800 439 825 q 505 775 471 775 q 565 806 543 775 q 586 876 586 838 m 831 1318 q 469 1059 594 1156 l 434 1078 l 439 1086 l 551 1214 q 639 1312 587 1255 l 649 1319 l 739 1327 l 821 1337 l 827 1334 l 831 1318 z "},"ā":{"ha":772,"x_min":55,"x_max":730,"o":"m 707 144 l 722 118 l 719 109 q 550 -6 596 19 q 474 -31 505 -31 q 440 -13 452 -31 q 427 33 427 5 q 438 116 427 62 q 485 313 449 170 q 280 43 371 118 q 132 -32 189 -32 q 78 -4 100 -32 q 55 96 55 24 q 74 245 55 160 q 127 416 93 330 q 169 487 145 460 q 273 572 193 513 q 387 642 353 630 q 463 654 420 654 q 533 645 492 654 q 608 618 574 636 l 670 655 l 692 639 q 651 491 675 599 l 601 262 q 574 113 574 140 q 592 86 574 86 q 699 144 614 86 l 707 144 m 516 549 q 405 580 456 580 q 319 538 352 580 q 249 351 287 496 q 211 136 211 205 q 238 85 211 85 q 340 170 267 85 q 460 359 413 256 q 516 549 507 463 m 468 704 m 292 -44 m 292 890 l 730 890 l 710 804 l 271 804 l 292 890 z "},"ą":{"ha":772,"x_min":55,"x_max":722,"o":"m 604 -158 l 613 -157 l 634 -169 l 635 -177 q 529 -262 570 -244 q 448 -281 488 -281 q 378 -256 402 -281 q 355 -190 355 -231 q 380 -108 355 -144 q 459 -29 406 -72 q 435 -4 443 -22 q 427 33 427 14 q 438 116 427 62 q 485 313 449 170 q 280 43 371 118 q 132 -32 189 -32 q 78 -4 100 -32 q 55 96 55 24 q 74 245 55 160 q 127 416 93 330 q 169 487 145 460 q 273 572 193 513 q 387 642 353 630 q 463 654 420 654 q 533 645 492 654 q 608 618 574 636 l 670 655 l 692 639 q 651 491 675 599 l 601 262 q 574 113 574 140 q 592 86 574 86 q 699 144 614 86 l 707 144 l 722 118 l 719 109 q 567 3 602 24 q 490 -60 526 -20 q 454 -136 454 -99 q 472 -183 454 -164 q 519 -201 489 -201 q 604 -158 562 -201 m 516 549 q 405 580 456 580 q 319 538 352 580 q 249 351 287 496 q 211 136 211 205 q 238 85 211 85 q 340 170 267 85 q 460 359 413 256 q 516 549 507 463 z "},"æ":{"ha":1025,"x_min":50,"x_max":975,"o":"m 916 155 l 930 129 l 928 119 q 751 12 835 54 q 597 -31 667 -31 q 496 0 539 -31 q 433 96 454 31 q 308 0 366 32 q 189 -33 251 -33 q 84 8 119 -33 q 50 111 50 49 q 85 235 50 175 q 199 325 121 296 q 420 353 278 353 q 457 352 432 353 q 462 419 462 391 q 442 507 462 471 q 389 561 422 543 q 304 578 356 578 q 219 568 260 578 l 186 479 l 178 475 l 159 479 l 149 585 q 261 649 210 635 q 361 664 313 664 q 489 627 440 664 q 554 525 538 589 q 693 623 615 581 q 839 665 770 665 q 936 636 898 665 q 975 545 975 607 q 937 433 975 481 q 798 350 900 384 q 599 307 696 316 q 585 191 585 243 q 615 94 585 121 q 686 68 646 68 q 793 93 730 68 q 907 156 855 118 l 916 155 m 606 347 q 682 363 642 351 q 749 389 722 374 q 797 426 775 403 q 831 477 819 448 q 843 531 843 506 q 827 577 843 558 q 776 595 810 595 q 606 347 659 595 m 452 309 l 407 310 q 247 265 301 310 q 193 159 193 220 q 213 98 193 123 q 275 73 233 73 q 364 102 323 73 q 424 175 405 132 q 452 309 442 218 z "},"ǽ":{"ha":1025,"x_min":50,"x_max":975,"o":"m 916 155 l 930 129 l 928 119 q 751 12 835 54 q 597 -31 667 -31 q 496 0 539 -31 q 433 96 454 31 q 308 0 366 32 q 189 -33 251 -33 q 84 8 119 -33 q 50 111 50 49 q 85 235 50 175 q 199 325 121 296 q 420 353 278 353 q 457 352 432 353 q 462 419 462 391 q 442 507 462 471 q 389 561 422 543 q 304 578 356 578 q 219 568 260 578 l 186 479 l 178 475 l 159 479 l 149 585 q 261 649 210 635 q 361 664 313 664 q 489 627 440 664 q 554 525 538 589 q 693 623 615 581 q 839 665 770 665 q 936 636 898 665 q 975 545 975 607 q 937 433 975 481 q 798 350 900 384 q 599 307 696 316 q 585 191 585 243 q 615 94 585 121 q 686 68 646 68 q 793 93 730 68 q 907 156 855 118 l 916 155 m 606 347 q 682 363 642 351 q 749 389 722 374 q 797 426 775 403 q 831 477 819 448 q 843 531 843 506 q 827 577 843 558 q 776 595 810 595 q 606 347 659 595 m 452 309 l 407 310 q 247 265 301 310 q 193 159 193 220 q 213 98 193 123 q 275 73 233 73 q 364 102 323 73 q 424 175 405 132 q 452 309 442 218 m 878 1000 q 517 741 642 837 l 481 759 l 486 768 l 598 895 q 686 994 634 936 l 696 1000 l 786 1008 l 868 1019 l 875 1015 l 878 1000 z "},"ć":{"ha":616,"x_min":54,"x_max":763,"o":"m 549 155 l 565 127 l 563 119 q 372 2 447 35 q 231 -31 298 -31 q 135 -6 178 -31 q 73 64 92 20 q 54 159 54 109 q 68 289 54 220 q 103 408 82 357 q 145 484 125 458 q 192 528 165 509 q 287 590 218 548 q 355 631 336 622 q 402 648 373 641 q 465 655 431 655 q 608 622 530 655 l 610 614 q 586 529 600 590 q 566 429 571 467 l 559 423 l 524 423 l 519 429 q 525 496 525 466 q 524 517 525 503 q 399 568 466 568 q 323 550 351 568 q 277 496 296 532 q 236 367 258 461 q 213 198 213 272 q 241 100 213 137 q 317 62 269 62 q 407 80 357 62 q 542 155 456 98 l 549 155 m 763 1000 q 401 741 526 837 l 366 759 l 371 768 l 483 895 q 571 994 519 936 l 581 1000 l 671 1008 l 753 1019 l 760 1015 l 763 1000 z "},"ĉ":{"ha":616,"x_min":54,"x_max":732,"o":"m 549 155 l 565 127 l 563 119 q 372 2 447 35 q 231 -31 298 -31 q 135 -6 178 -31 q 73 64 92 20 q 54 159 54 109 q 68 289 54 220 q 103 408 82 357 q 145 484 125 458 q 192 528 165 509 q 287 590 218 548 q 355 631 336 622 q 402 648 373 641 q 465 655 431 655 q 608 622 530 655 l 610 614 q 586 529 600 590 q 566 429 571 467 l 559 423 l 524 423 l 519 429 q 525 496 525 466 q 524 517 525 503 q 399 568 466 568 q 323 550 351 568 q 277 496 296 532 q 236 367 258 461 q 213 198 213 272 q 241 100 213 137 q 317 62 269 62 q 407 80 357 62 q 542 155 456 98 l 549 155 m 640 760 l 634 753 l 597 753 l 463 901 l 265 753 l 222 753 l 217 760 l 433 1005 l 528 1005 l 640 760 m 478 962 m 732 829 z "},"č":{"ha":616,"x_min":54,"x_max":694,"o":"m 549 155 l 565 127 l 563 119 q 372 2 447 35 q 231 -31 298 -31 q 135 -6 178 -31 q 73 64 92 20 q 54 159 54 109 q 68 289 54 220 q 103 408 82 357 q 145 484 125 458 q 192 528 165 509 q 287 590 218 548 q 355 631 336 622 q 402 648 373 641 q 465 655 431 655 q 608 622 530 655 l 610 614 q 586 529 600 590 q 566 429 571 467 l 559 423 l 524 423 l 519 429 q 525 496 525 466 q 524 517 525 503 q 399 568 466 568 q 323 550 351 568 q 277 496 296 532 q 236 367 258 461 q 213 198 213 272 q 241 100 213 137 q 317 62 269 62 q 407 80 357 62 q 542 155 456 98 l 549 155 m 694 998 l 479 753 l 383 753 l 271 998 l 277 1005 l 315 1005 l 449 857 l 646 1005 l 689 1005 l 694 998 z "},"ç":{"ha":616,"x_min":54,"x_max":610,"o":"m 159 -136 l 229 -31 q 133 -5 176 -31 q 72 66 90 22 q 54 159 54 111 q 68 289 54 220 q 103 408 82 357 q 145 484 125 458 q 192 528 165 509 q 287 590 218 548 q 355 631 336 622 q 402 648 373 641 q 465 655 431 655 q 608 622 528 655 l 610 614 q 586 529 600 590 q 566 429 571 467 l 559 423 l 524 423 l 519 429 q 525 496 525 466 q 524 517 525 503 q 399 568 466 568 q 323 550 351 568 q 277 496 296 532 q 236 367 258 461 q 213 198 213 272 q 241 100 213 137 q 317 62 269 62 q 407 80 357 62 q 542 155 456 98 l 549 155 l 565 127 l 563 119 q 422 28 492 68 q 290 -25 353 -12 l 243 -95 q 275 -92 257 -92 q 370 -122 340 -92 q 399 -187 399 -152 q 354 -275 399 -239 q 227 -311 309 -311 q 90 -281 155 -311 l 88 -273 l 108 -241 l 116 -237 q 209 -257 165 -257 q 262 -241 242 -257 q 283 -198 283 -224 q 265 -159 283 -174 q 220 -145 248 -145 q 174 -152 200 -145 l 159 -136 z "},"ċ":{"ha":616,"x_min":54,"x_max":610,"o":"m 549 155 l 565 127 l 563 119 q 372 2 447 35 q 231 -31 298 -31 q 135 -6 178 -31 q 73 64 92 20 q 54 159 54 109 q 68 289 54 220 q 103 408 82 357 q 145 484 125 458 q 192 528 165 509 q 287 590 218 548 q 355 631 336 622 q 402 648 373 641 q 465 655 431 655 q 608 622 530 655 l 610 614 q 586 529 600 590 q 566 429 571 467 l 559 423 l 524 423 l 519 429 q 525 496 525 466 q 524 517 525 503 q 399 568 466 568 q 323 550 351 568 q 277 496 296 532 q 236 367 258 461 q 213 198 213 272 q 241 100 213 137 q 317 62 269 62 q 407 80 357 62 q 542 155 456 98 l 549 155 m 435 772 q 385 792 404 772 q 366 839 366 812 q 396 908 366 879 q 464 938 425 938 q 513 918 494 938 q 532 871 532 899 q 504 804 532 835 q 435 772 475 772 z "},"ď":{"ha":772,"x_min":55,"x_max":998,"o":"m 471 909 l 465 915 l 469 944 l 476 950 q 752 1014 623 968 l 769 999 l 720 787 q 643 410 701 696 q 594 149 601 201 q 591 110 591 122 q 605 87 591 87 q 701 144 622 87 l 709 144 l 723 117 l 721 109 q 556 -7 595 13 q 490 -27 517 -27 q 453 -7 467 -27 q 440 38 440 12 q 466 177 440 76 q 500 321 479 229 q 315 72 422 173 q 141 -29 208 -29 q 78 7 101 -29 q 55 107 55 44 q 77 283 55 191 q 128 435 98 374 q 179 515 157 495 q 272 581 200 534 q 379 641 343 628 q 456 654 415 654 q 549 640 494 654 l 570 783 q 580 872 580 846 q 571 899 580 890 q 541 907 562 907 q 471 909 519 908 m 532 559 q 415 583 482 583 q 338 565 363 583 q 282 464 313 547 q 233 291 252 382 q 214 134 214 200 q 239 85 214 85 q 297 113 262 85 q 385 209 332 140 q 472 356 437 279 q 519 498 507 434 l 532 559 m 762 702 l 761 717 q 872 771 842 734 q 903 825 903 807 q 876 844 903 841 q 804 907 804 848 q 833 977 804 947 q 907 1007 863 1007 q 975 979 951 1007 q 998 911 998 950 q 938 775 998 838 q 762 702 878 712 z "},"đ":{"ha":772,"x_min":55,"x_max":847,"o":"m 572 790 q 580 872 580 853 q 572 897 580 889 q 549 907 564 905 q 471 909 534 908 l 465 915 l 469 944 l 476 950 q 752 1014 623 968 l 769 999 l 721 790 l 842 790 l 847 784 l 838 743 l 831 738 l 709 738 q 591 110 595 149 q 605 87 591 87 q 701 144 622 87 l 709 144 l 723 117 l 721 109 q 556 -7 595 13 q 490 -27 517 -27 q 453 -7 467 -27 q 440 38 440 12 q 466 177 440 76 q 500 321 479 229 q 315 72 422 173 q 141 -29 208 -29 q 78 7 101 -29 q 55 107 55 44 q 77 283 55 191 q 128 435 98 374 q 179 515 157 495 q 272 581 200 534 q 379 641 343 628 q 456 654 415 654 q 549 640 494 654 l 564 738 l 401 738 l 397 744 l 406 785 l 413 790 l 572 790 m 532 559 q 415 583 482 583 q 338 565 363 583 q 282 464 313 547 q 233 291 252 382 q 214 134 214 200 q 239 85 214 85 q 297 113 262 85 q 385 209 332 140 q 472 356 437 279 q 519 498 507 434 l 532 559 z "},"é":{"ha":616,"x_min":43,"x_max":722,"o":"m 526 155 l 541 127 l 539 119 q 346 2 420 34 q 216 -29 273 -29 q 123 -8 167 -29 q 61 53 80 13 q 43 136 43 92 q 71 324 43 210 q 142 494 99 439 q 283 606 186 550 q 450 661 380 661 q 547 631 509 661 q 584 545 584 601 q 543 419 584 475 q 405 325 501 363 q 208 270 309 287 q 201 179 201 220 q 232 89 201 113 q 302 64 264 64 q 366 75 330 64 q 426 99 402 85 q 518 155 450 112 l 526 155 m 214 307 q 404 404 355 338 q 452 526 452 469 q 433 577 452 559 q 387 595 414 595 q 290 536 331 595 q 214 307 250 477 m 441 704 m 215 -44 m 722 1000 q 361 741 486 837 l 326 759 l 330 768 l 442 895 q 530 994 478 936 l 541 1000 l 630 1008 l 712 1019 l 719 1015 l 722 1000 z "},"è":{"ha":616,"x_min":43,"x_max":584,"o":"m 526 155 l 541 127 l 539 119 q 346 2 420 34 q 216 -29 273 -29 q 123 -8 167 -29 q 61 53 80 13 q 43 136 43 92 q 71 324 43 210 q 142 494 99 439 q 283 606 186 550 q 450 661 380 661 q 547 631 509 661 q 584 545 584 601 q 543 419 584 475 q 405 325 501 363 q 208 270 309 287 q 201 179 201 220 q 232 89 201 113 q 302 64 264 64 q 366 75 330 64 q 426 99 402 85 q 518 155 450 112 l 526 155 m 214 307 q 404 404 355 338 q 452 526 452 469 q 433 577 452 559 q 387 595 414 595 q 290 536 331 595 q 214 307 250 477 m 441 704 m 215 -44 m 564 759 l 526 740 q 442 820 493 772 q 342 911 391 868 l 237 1000 l 244 1015 l 252 1019 l 403 1000 l 412 994 q 562 768 454 926 l 564 759 z "},"ê":{"ha":616,"x_min":43,"x_max":699,"o":"m 526 155 l 541 127 l 539 119 q 346 2 420 34 q 216 -29 273 -29 q 123 -8 167 -29 q 61 53 80 13 q 43 136 43 92 q 71 324 43 210 q 142 494 99 439 q 283 606 186 550 q 450 661 380 661 q 547 631 509 661 q 584 545 584 601 q 543 419 584 475 q 405 325 501 363 q 208 270 309 287 q 201 179 201 220 q 232 89 201 113 q 302 64 264 64 q 366 75 330 64 q 426 99 402 85 q 518 155 450 112 l 526 155 m 214 307 q 404 404 355 338 q 452 526 452 469 q 433 577 452 559 q 387 595 414 595 q 290 536 331 595 q 214 307 250 477 m 441 704 m 215 -44 m 606 760 l 600 753 l 563 753 l 429 901 l 231 753 l 189 753 l 183 760 l 399 1005 l 494 1005 l 606 760 m 444 962 m 699 829 z "},"ë":{"ha":616,"x_min":43,"x_max":647,"o":"m 526 155 l 541 127 l 539 119 q 346 2 420 34 q 216 -29 273 -29 q 123 -8 167 -29 q 61 53 80 13 q 43 136 43 92 q 71 324 43 210 q 142 494 99 439 q 283 606 186 550 q 450 661 380 661 q 547 631 509 661 q 584 545 584 601 q 543 419 584 475 q 405 325 501 363 q 208 270 309 287 q 201 179 201 220 q 232 89 201 113 q 302 64 264 64 q 366 75 330 64 q 426 99 402 85 q 518 155 450 112 l 526 155 m 214 307 q 404 404 355 338 q 452 526 452 469 q 433 577 452 559 q 387 595 414 595 q 290 536 331 595 q 214 307 250 477 m 441 704 m 215 -44 m 549 772 q 499 792 518 772 q 481 839 481 812 q 510 908 481 878 q 579 938 539 938 q 628 918 609 938 q 647 871 647 899 q 617 803 647 833 q 549 772 587 772 m 265 772 q 214 793 231 772 q 197 839 197 814 q 227 908 197 879 q 295 938 256 938 q 344 918 325 938 q 363 871 363 899 q 334 804 363 835 q 265 772 306 772 z "},"ě":{"ha":616,"x_min":43,"x_max":681,"o":"m 526 155 l 541 127 l 539 119 q 346 2 420 34 q 216 -29 273 -29 q 123 -8 167 -29 q 61 53 80 13 q 43 136 43 92 q 71 324 43 210 q 142 494 99 439 q 283 606 186 550 q 450 661 380 661 q 547 631 509 661 q 584 545 584 601 q 543 419 584 475 q 405 325 501 363 q 208 270 309 287 q 201 179 201 220 q 232 89 201 113 q 302 64 264 64 q 366 75 330 64 q 426 99 402 85 q 518 155 450 112 l 526 155 m 214 307 q 404 404 355 338 q 452 526 452 469 q 433 577 452 559 q 387 595 414 595 q 290 536 331 595 q 214 307 250 477 m 441 704 m 215 -44 m 681 998 l 465 753 l 370 753 l 258 998 l 264 1005 l 301 1005 l 435 857 l 633 1005 l 675 1005 l 681 998 z "},"ĕ":{"ha":616,"x_min":43,"x_max":638,"o":"m 526 155 l 541 127 l 539 119 q 346 2 420 34 q 216 -29 273 -29 q 123 -8 167 -29 q 61 53 80 13 q 43 136 43 92 q 71 324 43 210 q 142 494 99 439 q 283 606 186 550 q 450 661 380 661 q 547 631 509 661 q 584 545 584 601 q 543 419 584 475 q 405 325 501 363 q 208 270 309 287 q 201 179 201 220 q 232 89 201 113 q 302 64 264 64 q 366 75 330 64 q 426 99 402 85 q 518 155 450 112 l 526 155 m 214 307 q 404 404 355 338 q 452 526 452 469 q 433 577 452 559 q 387 595 414 595 q 290 536 331 595 q 214 307 250 477 m 441 704 m 215 -44 m 638 956 q 550 795 613 839 q 417 751 486 751 q 336 766 372 751 q 276 809 301 781 q 242 875 252 838 q 237 956 237 894 l 246 964 l 280 964 q 429 848 292 848 q 597 964 555 848 l 631 964 l 638 956 m 448 938 z "},"ė":{"ha":616,"x_min":43,"x_max":584,"o":"m 526 155 l 541 127 l 539 119 q 346 2 420 34 q 216 -29 273 -29 q 123 -8 167 -29 q 61 53 80 13 q 43 136 43 92 q 71 324 43 210 q 142 494 99 439 q 283 606 186 550 q 450 661 380 661 q 547 631 509 661 q 584 545 584 601 q 543 419 584 475 q 405 325 501 363 q 208 270 309 287 q 201 179 201 220 q 232 89 201 113 q 302 64 264 64 q 366 75 330 64 q 426 99 402 85 q 518 155 450 112 l 526 155 m 214 307 q 404 404 355 338 q 452 526 452 469 q 433 577 452 559 q 387 595 414 595 q 290 536 331 595 q 214 307 250 477 m 441 704 m 215 -44 m 421 772 q 371 792 390 772 q 353 839 353 812 q 382 908 353 879 q 450 938 412 938 q 499 918 480 938 q 519 871 519 899 q 490 804 519 835 q 421 772 462 772 z "},"ē":{"ha":616,"x_min":43,"x_max":642,"o":"m 526 155 l 541 127 l 539 119 q 346 2 420 34 q 216 -29 273 -29 q 123 -8 167 -29 q 61 53 80 13 q 43 136 43 92 q 71 324 43 210 q 142 494 99 439 q 283 606 186 550 q 450 661 380 661 q 547 631 509 661 q 584 545 584 601 q 543 419 584 475 q 405 325 501 363 q 208 270 309 287 q 201 179 201 220 q 232 89 201 113 q 302 64 264 64 q 366 75 330 64 q 426 99 402 85 q 518 155 450 112 l 526 155 m 214 307 q 404 404 355 338 q 452 526 452 469 q 433 577 452 559 q 387 595 414 595 q 290 536 331 595 q 214 307 250 477 m 441 704 m 215 -44 m 203 890 l 642 890 l 622 804 l 183 804 l 203 890 z "},"ę":{"ha":616,"x_min":43,"x_max":584,"o":"m 249 -27 q 196 -85 212 -60 q 180 -136 180 -110 q 197 -183 180 -165 q 244 -201 215 -201 q 329 -158 287 -201 l 338 -157 l 359 -169 l 360 -177 q 254 -262 295 -244 q 172 -281 213 -281 q 103 -255 126 -281 q 79 -190 79 -229 q 103 -112 79 -147 q 186 -28 127 -76 q 76 30 109 -15 q 43 136 43 75 q 71 325 43 217 q 134 483 100 433 q 231 573 168 532 q 350 638 293 615 q 450 661 407 661 q 547 631 511 661 q 584 545 584 600 q 545 422 584 478 q 408 327 505 367 q 208 270 311 286 q 201 179 201 220 q 232 89 201 113 q 302 64 264 64 q 366 75 330 64 q 426 99 402 85 q 518 155 450 112 l 526 155 l 541 127 l 539 119 q 249 -27 355 -13 m 214 307 q 404 404 355 338 q 452 526 452 469 q 433 577 452 559 q 387 595 414 595 q 290 536 331 595 q 214 307 250 477 z "},"ǵ":{"ha":694,"x_min":-69,"x_max":736,"o":"m 197 16 q 161 84 161 48 q 163 101 161 92 q 168 113 166 111 q 179 121 170 115 q 290 193 269 176 l 264 193 q 131 234 186 193 q 76 366 76 275 q 90 453 76 412 q 126 528 103 495 q 173 577 149 560 q 246 616 197 595 q 333 650 295 637 q 399 662 371 662 q 443 659 421 662 q 474 653 465 656 q 507 640 483 650 l 528 633 q 569 629 530 631 q 627 627 608 627 q 687 630 645 627 q 726 632 717 632 l 733 621 l 718 550 q 665 555 705 553 q 621 557 626 557 q 597 555 614 557 q 613 477 613 520 q 596 382 613 429 q 555 306 578 336 q 500 257 532 275 q 411 216 467 238 q 355 192 373 201 q 325 168 336 182 q 314 144 314 155 q 326 115 314 131 q 408 51 338 98 q 539 -57 506 -18 q 572 -153 572 -97 q 469 -323 572 -259 q 220 -388 366 -388 q 64 -366 132 -388 q -37 -302 -4 -344 q -69 -212 -69 -260 q -18 -96 -69 -153 q 155 1 34 -39 l 197 16 m 220 368 q 249 270 220 299 q 322 241 277 241 q 400 274 369 241 q 448 364 431 307 q 464 476 464 421 q 434 572 464 545 q 361 600 404 600 q 257 529 294 600 q 220 368 220 457 m 227 -11 l 167 -41 q 118 -71 137 -56 q 84 -104 99 -85 q 62 -146 69 -123 q 54 -192 54 -168 q 79 -269 54 -238 q 148 -318 103 -300 q 247 -336 193 -336 q 379 -297 330 -336 q 428 -203 428 -258 q 404 -142 428 -172 q 227 -11 379 -112 m 736 1000 q 374 741 499 837 l 339 759 l 344 768 l 456 895 q 544 994 492 936 l 554 1000 l 644 1008 l 726 1019 l 732 1015 l 736 1000 z "},"ĝ":{"ha":694,"x_min":-69,"x_max":733,"o":"m 197 16 q 161 84 161 48 q 163 101 161 92 q 168 113 166 111 q 179 121 170 115 q 290 193 269 176 l 264 193 q 131 234 186 193 q 76 366 76 275 q 90 453 76 412 q 126 528 103 495 q 173 577 149 560 q 246 616 197 595 q 333 650 295 637 q 399 662 371 662 q 443 659 421 662 q 474 653 465 656 q 507 640 483 650 l 528 633 q 569 629 530 631 q 627 627 608 627 q 687 630 645 627 q 726 632 717 632 l 733 621 l 718 550 q 665 555 705 553 q 621 557 626 557 q 597 555 614 557 q 613 477 613 520 q 596 382 613 429 q 555 306 578 336 q 500 257 532 275 q 411 216 467 238 q 355 192 373 201 q 325 168 336 182 q 314 144 314 155 q 326 115 314 131 q 408 51 338 98 q 539 -57 506 -18 q 572 -153 572 -97 q 469 -323 572 -259 q 220 -388 366 -388 q 64 -366 132 -388 q -37 -302 -4 -344 q -69 -212 -69 -260 q -18 -96 -69 -153 q 155 1 34 -39 l 197 16 m 220 368 q 249 270 220 299 q 322 241 277 241 q 400 274 369 241 q 448 364 431 307 q 464 476 464 421 q 434 572 464 545 q 361 600 404 600 q 257 529 294 600 q 220 368 220 457 m 227 -11 l 167 -41 q 118 -71 137 -56 q 84 -104 99 -85 q 62 -146 69 -123 q 54 -192 54 -168 q 79 -269 54 -238 q 148 -318 103 -300 q 247 -336 193 -336 q 379 -297 330 -336 q 428 -203 428 -258 q 404 -142 428 -172 q 227 -11 379 -112 m 640 760 l 634 753 l 597 753 l 463 901 l 265 753 l 222 753 l 217 760 l 433 1005 l 528 1005 l 640 760 m 478 962 m 732 829 z "},"ğ":{"ha":694,"x_min":-69,"x_max":733,"o":"m 197 16 q 161 84 161 48 q 163 101 161 92 q 168 113 166 111 q 179 121 170 115 q 290 193 269 176 l 264 193 q 131 234 186 193 q 76 366 76 275 q 90 453 76 412 q 126 528 103 495 q 173 577 149 560 q 246 616 197 595 q 333 650 295 637 q 399 662 371 662 q 443 659 421 662 q 474 653 465 656 q 507 640 483 650 l 528 633 q 569 629 530 631 q 627 627 608 627 q 687 630 645 627 q 726 632 717 632 l 733 621 l 718 550 q 665 555 705 553 q 621 557 626 557 q 597 555 614 557 q 613 477 613 520 q 596 382 613 429 q 555 306 578 336 q 500 257 532 275 q 411 216 467 238 q 355 192 373 201 q 325 168 336 182 q 314 144 314 155 q 326 115 314 131 q 408 51 338 98 q 539 -57 506 -18 q 572 -153 572 -97 q 469 -323 572 -259 q 220 -388 366 -388 q 64 -366 132 -388 q -37 -302 -4 -344 q -69 -212 -69 -260 q -18 -96 -69 -153 q 155 1 34 -39 l 197 16 m 220 368 q 249 270 220 299 q 322 241 277 241 q 400 274 369 241 q 448 364 431 307 q 464 476 464 421 q 434 572 464 545 q 361 600 404 600 q 257 529 294 600 q 220 368 220 457 m 227 -11 l 167 -41 q 118 -71 137 -56 q 84 -104 99 -85 q 62 -146 69 -123 q 54 -192 54 -168 q 79 -269 54 -238 q 148 -318 103 -300 q 247 -336 193 -336 q 379 -297 330 -336 q 428 -203 428 -258 q 404 -142 428 -172 q 227 -11 379 -112 m 659 956 q 570 795 633 839 q 437 751 507 751 q 357 766 392 751 q 297 809 321 781 q 262 875 272 838 q 258 956 258 894 l 267 964 l 300 964 q 450 848 312 848 q 618 964 575 848 l 651 964 l 659 956 m 468 938 z "},"ģ":{"ha":694,"x_min":-69,"x_max":733,"o":"m 197 16 q 161 84 161 48 q 163 101 161 92 q 168 113 166 111 q 179 121 170 115 q 290 193 269 176 l 264 193 q 131 234 186 193 q 76 366 76 275 q 90 453 76 412 q 126 528 103 495 q 173 577 149 560 q 246 616 197 595 q 333 650 295 637 q 399 662 371 662 q 443 659 421 662 q 474 653 465 656 q 507 640 483 650 l 528 633 q 569 629 530 631 q 627 627 608 627 q 687 630 645 627 q 726 632 717 632 l 733 621 l 718 550 q 665 555 705 553 q 621 557 626 557 q 597 555 614 557 q 613 477 613 520 q 596 382 613 429 q 555 306 578 336 q 500 257 532 275 q 411 216 467 238 q 355 192 373 201 q 325 168 336 182 q 314 144 314 155 q 326 115 314 131 q 408 51 338 98 q 539 -57 506 -18 q 572 -153 572 -97 q 469 -323 572 -259 q 220 -388 366 -388 q 64 -366 132 -388 q -37 -302 -4 -344 q -69 -212 -69 -260 q -18 -96 -69 -153 q 155 1 34 -39 l 197 16 m 220 368 q 249 270 220 299 q 322 241 277 241 q 400 274 369 241 q 448 364 431 307 q 464 476 464 421 q 434 572 464 545 q 361 600 404 600 q 257 529 294 600 q 220 368 220 457 m 227 -11 l 167 -41 q 118 -71 137 -56 q 84 -104 99 -85 q 62 -146 69 -123 q 54 -192 54 -168 q 79 -269 54 -238 q 148 -318 103 -300 q 247 -336 193 -336 q 379 -297 330 -336 q 428 -203 428 -258 q 404 -142 428 -172 q 227 -11 379 -112 m 581 1054 l 581 1039 q 471 987 503 1022 q 439 930 439 953 q 465 913 439 915 q 537 848 537 908 q 508 779 537 809 q 436 749 478 749 q 369 775 394 749 q 345 844 345 801 q 404 982 345 918 q 581 1054 464 1046 z "},"ġ":{"ha":694,"x_min":-69,"x_max":733,"o":"m 197 16 q 161 84 161 48 q 163 101 161 92 q 168 113 166 111 q 179 121 170 115 q 290 193 269 176 l 264 193 q 131 234 186 193 q 76 366 76 275 q 90 453 76 412 q 126 528 103 495 q 173 577 149 560 q 246 616 197 595 q 333 650 295 637 q 399 662 371 662 q 443 659 421 662 q 474 653 465 656 q 507 640 483 650 l 528 633 q 569 629 530 631 q 627 627 608 627 q 687 630 645 627 q 726 632 717 632 l 733 621 l 718 550 q 665 555 705 553 q 621 557 626 557 q 597 555 614 557 q 613 477 613 520 q 596 382 613 429 q 555 306 578 336 q 500 257 532 275 q 411 216 467 238 q 355 192 373 201 q 325 168 336 182 q 314 144 314 155 q 326 115 314 131 q 408 51 338 98 q 539 -57 506 -18 q 572 -153 572 -97 q 469 -323 572 -259 q 220 -388 366 -388 q 64 -366 132 -388 q -37 -302 -4 -344 q -69 -212 -69 -260 q -18 -96 -69 -153 q 155 1 34 -39 l 197 16 m 220 368 q 249 270 220 299 q 322 241 277 241 q 400 274 369 241 q 448 364 431 307 q 464 476 464 421 q 434 572 464 545 q 361 600 404 600 q 257 529 294 600 q 220 368 220 457 m 227 -11 l 167 -41 q 118 -71 137 -56 q 84 -104 99 -85 q 62 -146 69 -123 q 54 -192 54 -168 q 79 -269 54 -238 q 148 -318 103 -300 q 247 -336 193 -336 q 379 -297 330 -336 q 428 -203 428 -258 q 404 -142 428 -172 q 227 -11 379 -112 m 435 772 q 385 792 404 772 q 366 839 366 812 q 396 908 366 879 q 464 938 425 938 q 513 918 494 938 q 532 871 532 899 q 504 804 532 835 q 435 772 475 772 z "},"ĥ":{"ha":772,"x_min":22,"x_max":709,"o":"m 370 1014 l 387 999 q 240 348 288 582 q 445 579 333 495 q 626 663 556 663 q 682 604 682 663 q 673 530 682 571 q 621 332 664 489 q 573 118 573 159 q 592 88 573 88 q 623 99 605 88 q 687 143 642 110 l 695 142 l 709 119 l 707 109 q 541 -3 592 22 q 460 -29 490 -29 q 426 -13 440 -29 q 411 41 411 3 q 417 97 411 66 q 448 222 422 127 q 514 502 514 468 q 488 532 514 532 q 436 513 468 532 q 333 412 385 481 q 245 260 281 344 q 196 106 222 205 q 180 3 180 41 q 110 -7 159 3 q 36 -24 60 -18 l 22 -12 q 114 384 67 136 q 181 760 161 631 l 193 831 q 198 873 198 861 q 189 898 198 889 q 157 907 180 907 q 89 909 134 908 l 83 915 l 87 944 l 94 950 q 370 1014 240 968 m 505 1088 l 498 1080 l 461 1080 l 327 1229 l 130 1080 l 87 1080 l 81 1088 l 297 1333 l 393 1333 l 505 1088 m 342 1289 m 597 1156 z "},"ħ":{"ha":772,"x_min":22,"x_max":709,"o":"m 338 790 l 472 790 l 477 784 l 468 743 l 461 738 l 326 738 l 277 522 q 240 348 277 520 q 445 579 333 495 q 626 663 556 663 q 682 604 682 663 q 673 530 682 571 q 621 332 664 489 q 573 118 573 159 q 592 88 573 88 q 623 99 605 88 q 687 143 642 110 l 695 142 l 709 119 l 707 109 q 541 -3 592 22 q 460 -29 490 -29 q 426 -13 440 -29 q 411 41 411 3 q 417 97 411 66 q 448 222 422 127 q 514 502 514 468 q 488 532 514 532 q 436 513 468 532 q 333 412 385 481 q 245 260 281 344 q 196 106 222 205 q 180 3 180 41 q 110 -7 159 3 q 36 -24 60 -18 l 22 -12 q 74 185 50 78 q 135 492 98 293 q 178 738 172 692 l 32 738 l 27 744 l 35 785 l 43 790 l 186 790 q 198 873 198 863 q 189 898 198 890 q 162 907 180 906 q 89 909 144 908 l 83 915 l 87 944 l 94 950 q 370 1014 240 968 l 387 999 l 338 790 z "},"í":{"ha":463,"x_min":40,"x_max":593,"o":"m 54 460 l 40 484 l 41 493 q 228 625 161 586 q 332 663 294 663 q 361 649 349 663 q 373 612 373 634 q 362 536 373 582 q 318 364 352 491 q 259 111 259 146 q 265 95 259 102 q 278 87 271 87 q 387 151 298 87 l 395 150 l 410 123 l 407 114 q 294 36 359 80 q 200 -18 228 -7 q 151 -29 172 -29 q 111 -9 124 -29 q 98 41 98 10 q 106 112 98 73 q 140 250 114 152 q 197 506 197 467 q 181 525 197 525 q 63 460 155 525 l 54 460 m 319 704 m 593 1000 q 232 741 357 837 l 197 759 l 201 768 l 313 895 q 401 994 349 936 l 412 1000 l 501 1008 l 583 1019 l 590 1015 l 593 1000 z "},"ì":{"ha":463,"x_min":40,"x_max":483,"o":"m 54 460 l 40 484 l 41 493 q 228 625 161 586 q 332 663 294 663 q 361 649 349 663 q 373 612 373 634 q 362 536 373 582 q 318 364 352 491 q 259 111 259 146 q 265 95 259 102 q 278 87 271 87 q 387 151 298 87 l 395 150 l 410 123 l 407 114 q 294 36 359 80 q 200 -18 228 -7 q 151 -29 172 -29 q 111 -9 124 -29 q 98 41 98 10 q 106 112 98 73 q 140 250 114 152 q 197 506 197 467 q 181 525 197 525 q 63 460 155 525 l 54 460 m 319 704 m 483 759 l 444 740 q 361 820 412 772 q 260 911 310 868 l 156 1000 l 163 1015 l 171 1019 l 321 1000 l 330 994 q 480 768 372 926 l 483 759 z "},"î":{"ha":463,"x_min":40,"x_max":617,"o":"m 54 460 l 40 484 l 41 493 q 228 625 161 586 q 332 663 294 663 q 361 649 349 663 q 373 612 373 634 q 362 536 373 582 q 318 364 352 491 q 259 111 259 146 q 265 95 259 102 q 278 87 271 87 q 387 151 298 87 l 395 150 l 410 123 l 407 114 q 294 36 359 80 q 200 -18 228 -7 q 151 -29 172 -29 q 111 -9 124 -29 q 98 41 98 10 q 106 112 98 73 q 140 250 114 152 q 197 506 197 467 q 181 525 197 525 q 63 460 155 525 l 54 460 m 319 704 m 525 760 l 519 753 l 481 753 l 347 901 l 150 753 l 107 753 l 102 760 l 317 1005 l 413 1005 l 525 760 m 363 962 m 617 829 z "},"ï":{"ha":463,"x_min":40,"x_max":566,"o":"m 54 460 l 40 484 l 41 493 q 228 625 161 586 q 332 663 294 663 q 361 649 349 663 q 373 612 373 634 q 362 536 373 582 q 318 364 352 491 q 259 111 259 146 q 265 95 259 102 q 278 87 271 87 q 387 151 298 87 l 395 150 l 410 123 l 407 114 q 294 36 359 80 q 200 -18 228 -7 q 151 -29 172 -29 q 111 -9 124 -29 q 98 41 98 10 q 106 112 98 73 q 140 250 114 152 q 197 506 197 467 q 181 525 197 525 q 63 460 155 525 l 54 460 m 319 704 m 468 772 q 418 792 437 772 q 399 839 399 812 q 429 908 399 878 q 498 938 458 938 q 547 918 528 938 q 566 871 566 899 q 536 803 566 833 q 468 772 506 772 m 184 772 q 133 793 150 772 q 115 839 115 814 q 145 908 115 879 q 214 938 175 938 q 262 918 243 938 q 281 871 281 899 q 253 804 281 835 q 184 772 224 772 z "},"ĩ":{"ha":463,"x_min":40,"x_max":562,"o":"m 54 460 l 40 484 l 41 493 q 228 625 161 586 q 332 663 294 663 q 361 649 349 663 q 373 612 373 634 q 362 536 373 582 q 318 364 352 491 q 259 111 259 146 q 265 95 259 102 q 278 87 271 87 q 387 151 298 87 l 395 150 l 410 123 l 407 114 q 294 36 359 80 q 200 -18 228 -7 q 151 -29 172 -29 q 111 -9 124 -29 q 98 41 98 10 q 106 112 98 73 q 140 250 114 152 q 197 506 197 467 q 181 525 197 525 q 63 460 155 525 l 54 460 m 319 704 m 562 932 q 509 824 548 866 q 416 782 470 782 q 302 813 381 782 q 203 843 226 843 q 135 781 156 843 l 96 781 l 88 789 q 142 900 104 859 q 234 940 181 940 q 365 905 275 940 q 452 881 426 881 q 516 942 490 881 l 554 942 l 562 932 z "},"ĭ":{"ha":463,"x_min":40,"x_max":543,"o":"m 54 460 l 40 484 l 41 493 q 228 625 161 586 q 332 663 294 663 q 361 649 349 663 q 373 612 373 634 q 362 536 373 582 q 318 364 352 491 q 259 111 259 146 q 265 95 259 102 q 278 87 271 87 q 387 151 298 87 l 395 150 l 410 123 l 407 114 q 294 36 359 80 q 200 -18 228 -7 q 151 -29 172 -29 q 111 -9 124 -29 q 98 41 98 10 q 106 112 98 73 q 140 250 114 152 q 197 506 197 467 q 181 525 197 525 q 63 460 155 525 l 54 460 m 319 704 m 543 956 q 455 795 518 839 q 322 751 391 751 q 241 766 277 751 q 181 809 206 781 q 147 875 157 838 q 142 956 142 894 l 151 964 l 185 964 q 334 848 197 848 q 503 964 460 848 l 536 964 l 543 956 m 353 938 z "},"ı":{"ha":463,"x_min":40,"x_max":410,"o":"m 54 460 l 40 484 l 41 493 q 228 625 161 586 q 332 663 294 663 q 361 649 349 663 q 373 612 373 634 q 362 536 373 582 q 318 364 352 491 q 259 111 259 146 q 265 95 259 102 q 278 87 271 87 q 387 151 298 87 l 395 150 l 410 123 l 407 114 q 294 36 359 80 q 200 -18 228 -7 q 151 -29 172 -29 q 111 -9 124 -29 q 98 41 98 10 q 106 112 98 73 q 140 250 114 152 q 197 506 197 467 q 181 525 197 525 q 63 460 155 525 l 54 460 m 319 704 z "},"ī":{"ha":463,"x_min":40,"x_max":561,"o":"m 54 460 l 40 484 l 41 493 q 228 625 161 586 q 332 663 294 663 q 361 649 349 663 q 373 612 373 634 q 362 536 373 582 q 318 364 352 491 q 259 111 259 146 q 265 95 259 102 q 278 87 271 87 q 387 151 298 87 l 395 150 l 410 123 l 407 114 q 294 36 359 80 q 200 -18 228 -7 q 151 -29 172 -29 q 111 -9 124 -29 q 98 41 98 10 q 106 112 98 73 q 140 250 114 152 q 197 506 197 467 q 181 525 197 525 q 63 460 155 525 l 54 460 m 319 704 m 122 890 l 561 890 l 541 804 l 102 804 l 122 890 z "},"į":{"ha":463,"x_min":33,"x_max":437,"o":"m 267 871 q 293 944 267 914 q 361 973 319 973 q 416 952 396 973 q 437 897 437 931 q 412 820 437 852 q 344 788 387 788 q 285 812 303 788 q 267 871 267 836 m 282 -158 l 292 -157 l 313 -169 l 314 -177 q 208 -262 249 -244 q 126 -281 167 -281 q 57 -256 81 -281 q 33 -190 33 -231 q 59 -109 33 -145 q 139 -28 84 -73 q 98 42 98 -19 q 106 112 98 74 q 140 250 114 151 q 197 506 197 469 q 181 525 197 525 q 63 460 155 525 l 54 460 l 40 484 l 42 493 q 224 623 155 582 q 332 663 293 663 q 361 649 349 663 q 373 612 373 634 q 362 536 373 582 q 318 364 352 490 q 260 111 260 146 q 265 94 260 101 q 278 87 271 87 q 315 103 286 87 q 387 151 345 119 l 395 150 l 410 123 l 407 114 q 252 10 290 33 q 174 -54 216 -12 q 133 -136 133 -96 q 151 -183 133 -165 q 197 -201 169 -201 q 282 -158 241 -201 z "},"ĵ":{"ha":463,"x_min":-81,"x_max":549,"o":"m 334 989 l 429 989 l 549 749 l 488 749 l 368 890 l 184 749 l 115 749 l 334 989 m -81 -387 q -67 -275 -70 -347 l -48 -271 q -10 -311 -25 -304 q 18 -318 5 -318 q 39 -311 30 -318 q 64 -266 54 -298 q 138 64 82 -208 l 197 366 q 218 504 218 476 q 203 526 218 526 q 83 460 177 526 l 74 460 l 60 484 l 61 493 q 263 633 205 602 q 357 663 321 663 q 393 607 393 663 q 360 428 393 571 l 314 227 q 243 -49 273 56 q 180 -212 214 -154 q 87 -331 147 -270 q 21 -383 47 -372 q -36 -395 -5 -395 q -81 -387 -60 -395 z "},"ķ":{"ha":772,"x_min":62,"x_max":751,"o":"m 131 909 l 125 915 l 130 944 l 136 950 q 412 1014 283 968 l 429 999 q 279 310 395 863 q 331 373 281 313 q 444 504 395 451 q 543 595 493 557 q 631 648 593 633 q 711 662 669 662 q 748 658 729 662 l 751 650 q 726 547 730 581 l 718 541 q 656 554 678 554 q 558 528 612 554 q 454 444 504 503 q 501 313 461 422 q 566 153 541 203 q 603 94 591 103 q 625 85 614 85 q 722 134 650 85 l 729 133 l 744 106 l 742 97 q 688 61 715 80 q 514 -29 558 -29 q 492 -24 502 -29 q 467 2 481 -18 q 436 65 452 23 q 386 198 419 108 q 341 323 352 289 q 288 261 303 283 q 266 219 273 238 q 248 144 259 201 q 232 60 236 87 q 228 5 228 33 q 74 -22 159 2 l 62 -5 q 180 518 119 194 q 240 873 240 842 q 231 898 240 890 q 203 907 222 906 q 131 909 184 908 m 191 -385 l 190 -370 q 301 -316 271 -352 q 332 -261 332 -279 q 305 -243 332 -245 q 233 -179 233 -239 q 262 -110 233 -140 q 336 -79 292 -79 q 404 -108 380 -79 q 427 -175 427 -136 q 367 -311 427 -248 q 191 -385 307 -374 z "},"ĸ":{"ha":762,"x_min":24,"x_max":741,"o":"m 227 115 q 206 1 218 72 q 60 -25 120 -6 l 42 -8 q 96 169 64 47 q 145 385 130 296 q 160 500 160 473 q 144 524 160 524 q 47 467 123 524 l 37 467 l 24 491 l 24 500 q 191 627 123 584 q 283 663 249 663 q 320 619 320 663 q 308 527 320 588 q 252 291 293 454 q 321 373 264 304 q 533 595 458 538 q 701 662 620 662 q 738 658 719 662 l 741 650 q 715 547 720 581 l 708 541 q 646 554 668 554 q 444 444 538 554 q 555 153 517 229 q 614 85 589 85 q 711 134 640 85 l 719 133 l 734 106 l 732 97 q 677 61 706 81 q 504 -29 548 -29 q 457 3 479 -29 q 376 199 439 28 q 331 323 339 298 q 282 268 313 304 q 227 115 248 220 z "},"ĺ":{"ha":463,"x_min":94,"x_max":641,"o":"m 391 150 l 406 123 l 404 115 q 213 -11 253 8 q 147 -29 173 -29 q 106 -6 118 -29 q 94 48 94 18 q 134 296 94 110 l 229 726 q 245 811 237 762 q 254 873 254 861 q 245 898 254 888 q 213 907 237 907 q 144 909 190 908 l 139 915 l 143 944 l 150 950 q 426 1014 298 968 l 443 999 q 330 493 385 759 l 264 186 q 256 119 256 144 q 274 90 256 90 q 383 151 300 90 l 391 150 m 641 1303 q 279 1044 404 1141 l 244 1063 l 249 1072 l 361 1199 q 449 1297 397 1240 l 459 1304 l 549 1312 l 631 1322 l 637 1319 l 641 1303 z "},"ļ":{"ha":463,"x_min":-7,"x_max":443,"o":"m 391 150 l 406 123 l 404 115 q 213 -11 253 8 q 147 -29 173 -29 q 106 -6 118 -29 q 94 48 94 18 q 134 296 94 110 l 229 726 q 245 811 237 762 q 254 873 254 861 q 245 898 254 888 q 213 907 237 907 q 144 909 190 908 l 139 915 l 143 944 l 150 950 q 426 1014 298 968 l 443 999 q 330 493 385 759 l 264 186 q 256 119 256 144 q 274 90 256 90 q 383 151 300 90 l 391 150 m -5 -385 l -7 -370 q 105 -316 74 -352 q 136 -261 136 -279 q 109 -243 136 -245 q 36 -179 36 -239 q 65 -110 36 -140 q 139 -79 95 -79 q 207 -108 184 -79 q 231 -175 231 -136 q 171 -311 231 -248 q -5 -385 111 -374 z "},"ľ":{"ha":463,"x_min":94,"x_max":671,"o":"m 391 150 l 406 123 l 404 115 q 213 -11 253 8 q 147 -29 173 -29 q 106 -6 118 -29 q 94 48 94 18 q 134 296 94 110 l 229 726 q 245 811 237 762 q 254 873 254 861 q 245 898 254 888 q 213 907 237 907 q 144 909 190 908 l 139 915 l 143 944 l 150 950 q 426 1014 298 968 l 443 999 q 330 493 385 759 l 264 186 q 256 119 256 144 q 274 90 256 90 q 383 151 300 90 l 391 150 m 435 702 l 433 717 q 545 771 514 734 q 576 825 576 807 q 549 844 576 841 q 476 907 476 848 q 506 977 476 947 q 579 1007 535 1007 q 647 979 624 1007 q 671 911 671 950 q 611 775 671 838 q 435 702 551 712 z "},"ŀ":{"ha":463,"x_min":94,"x_max":577,"o":"m 391 150 l 406 123 l 404 115 q 213 -11 253 8 q 147 -29 173 -29 q 106 -6 118 -29 q 94 48 94 18 q 134 296 94 110 l 229 726 q 245 811 237 762 q 254 873 254 861 q 245 898 254 888 q 213 907 237 907 q 144 909 190 908 l 139 915 l 143 944 l 150 950 q 426 1014 298 968 l 443 999 q 330 493 385 759 l 264 186 q 256 119 256 144 q 274 90 256 90 q 383 151 300 90 l 391 150 m 479 461 q 430 481 448 461 q 411 528 411 500 q 440 597 411 568 q 509 627 470 627 q 558 607 538 627 q 577 559 577 587 q 549 492 577 524 q 479 461 520 461 z "},"ł":{"ha":463,"x_min":20,"x_max":504,"o":"m 181 510 l 229 726 q 245 811 237 762 q 254 873 254 860 q 245 898 254 890 q 219 907 236 906 q 144 909 201 908 l 139 915 l 143 944 l 150 950 q 426 1014 296 968 l 443 999 l 410 863 q 353 601 406 846 l 486 672 l 494 669 l 504 633 l 501 625 l 339 538 l 268 201 q 256 120 256 149 q 274 90 256 90 q 383 151 301 90 l 391 150 l 406 123 l 404 115 q 213 -11 253 8 q 147 -29 173 -29 q 106 -6 118 -29 q 94 48 94 17 q 134 296 94 110 l 168 447 l 39 378 l 30 381 l 20 417 l 23 425 l 181 510 z "},"ń":{"ha":772,"x_min":24,"x_max":790,"o":"m 60 -25 l 42 -8 q 96 169 63 45 q 145 384 130 292 q 160 500 160 475 q 144 524 160 524 q 47 467 123 524 l 37 467 l 24 491 l 24 500 q 106 566 60 530 q 191 626 153 602 q 248 657 229 650 q 283 663 267 663 q 320 619 320 663 q 308 527 320 587 q 257 320 296 466 q 450 562 334 462 q 639 663 566 663 q 696 598 696 663 q 681 497 696 563 q 631 305 665 432 q 599 174 608 221 q 591 113 591 127 q 607 88 591 88 q 707 144 633 88 l 715 143 l 730 117 l 728 108 q 562 -4 612 20 q 475 -29 511 -29 q 437 -7 447 -29 q 427 39 427 15 q 475 262 427 94 q 527 496 527 446 q 500 524 527 524 q 467 513 488 524 q 405 460 446 503 q 329 364 363 418 q 270 248 295 311 q 227 114 244 186 q 206 1 210 43 q 60 -25 120 -6 m 790 1000 q 429 741 553 837 l 393 759 l 398 768 l 510 895 q 598 994 546 936 l 608 1000 l 698 1008 l 780 1019 l 787 1015 l 790 1000 z "},"ñ":{"ha":772,"x_min":24,"x_max":730,"o":"m 60 -25 l 42 -8 q 96 169 63 45 q 145 384 130 292 q 160 500 160 475 q 144 524 160 524 q 47 467 123 524 l 37 467 l 24 491 l 24 500 q 106 566 60 530 q 191 626 153 602 q 248 657 229 650 q 283 663 267 663 q 320 619 320 663 q 308 527 320 587 q 257 320 296 466 q 450 562 334 462 q 639 663 566 663 q 696 598 696 663 q 681 497 696 563 q 631 305 665 432 q 599 174 608 221 q 591 113 591 127 q 607 88 591 88 q 707 144 633 88 l 715 143 l 730 117 l 728 108 q 562 -4 612 20 q 475 -29 511 -29 q 437 -7 447 -29 q 427 39 427 15 q 475 262 427 94 q 527 496 527 446 q 500 524 527 524 q 467 513 488 524 q 405 460 446 503 q 329 364 363 418 q 270 248 295 311 q 227 114 244 186 q 206 1 210 43 q 60 -25 120 -6 m 711 932 q 658 824 697 866 q 566 782 619 782 q 451 813 530 782 q 352 843 375 843 q 284 781 305 843 l 245 781 l 237 789 q 292 900 253 859 q 383 940 330 940 q 514 905 424 940 q 601 881 575 881 q 665 942 640 881 l 703 942 l 711 932 z "},"ň":{"ha":772,"x_min":24,"x_max":730,"o":"m 60 -25 l 42 -8 q 96 169 63 45 q 145 384 130 292 q 160 500 160 475 q 144 524 160 524 q 47 467 123 524 l 37 467 l 24 491 l 24 500 q 106 566 60 530 q 191 626 153 602 q 248 657 229 650 q 283 663 267 663 q 320 619 320 663 q 308 527 320 587 q 257 320 296 466 q 450 562 334 462 q 639 663 566 663 q 696 598 696 663 q 681 497 696 563 q 631 305 665 432 q 599 174 608 221 q 591 113 591 127 q 607 88 591 88 q 707 144 633 88 l 715 143 l 730 117 l 728 108 q 562 -4 612 20 q 475 -29 511 -29 q 437 -7 447 -29 q 427 39 427 15 q 475 262 427 94 q 527 496 527 446 q 500 524 527 524 q 467 513 488 524 q 405 460 446 503 q 329 364 363 418 q 270 248 295 311 q 227 114 244 186 q 206 1 210 43 q 60 -25 120 -6 m 728 998 l 513 753 l 417 753 l 305 998 l 311 1005 l 349 1005 l 483 857 l 680 1005 l 723 1005 l 728 998 z "},"ņ":{"ha":772,"x_min":24,"x_max":730,"o":"m 60 -25 l 42 -8 q 96 169 63 45 q 145 384 130 292 q 160 500 160 475 q 144 524 160 524 q 47 467 123 524 l 37 467 l 24 491 l 24 500 q 106 566 60 530 q 191 626 153 602 q 248 657 229 650 q 283 663 267 663 q 320 619 320 663 q 308 527 320 587 q 257 320 296 466 q 450 562 334 462 q 639 663 566 663 q 696 598 696 663 q 681 497 696 563 q 631 305 665 432 q 599 174 608 221 q 591 113 591 127 q 607 88 591 88 q 707 144 633 88 l 715 143 l 730 117 l 728 108 q 562 -4 612 20 q 475 -29 511 -29 q 437 -7 447 -29 q 427 39 427 15 q 475 262 427 94 q 527 496 527 446 q 500 524 527 524 q 467 513 488 524 q 405 460 446 503 q 329 364 363 418 q 270 248 295 311 q 227 114 244 186 q 206 1 210 43 q 60 -25 120 -6 m 157 -404 l 156 -389 q 272 -335 239 -372 q 304 -273 304 -299 q 275 -256 304 -258 q 201 -187 201 -251 q 232 -116 201 -148 q 304 -85 262 -85 q 404 -177 404 -85 q 338 -331 404 -267 q 157 -404 273 -395 z "},"ŉ":{"ha":913,"x_min":83,"x_max":872,"o":"m 202 -25 l 184 -8 q 239 169 205 45 q 287 384 272 292 q 302 500 302 475 q 287 524 302 524 q 189 467 266 524 l 180 467 l 166 491 l 167 500 q 249 566 202 530 q 334 626 296 602 q 391 657 372 650 q 425 663 410 663 q 463 619 463 663 q 450 527 463 587 q 399 320 438 466 q 592 562 476 462 q 781 663 709 663 q 839 598 839 663 q 823 497 839 563 q 773 305 808 432 q 742 174 750 221 q 733 113 733 127 q 749 88 733 88 q 849 144 776 88 l 857 143 l 872 117 l 870 108 q 704 -4 754 20 q 618 -29 654 -29 q 579 -7 589 -29 q 570 39 570 15 q 617 262 570 94 q 669 496 669 446 q 643 524 669 524 q 609 513 631 524 q 547 460 588 503 q 472 364 506 418 q 412 248 437 311 q 370 114 387 186 q 349 1 353 43 q 202 -25 262 -6 m 84 682 l 83 698 q 198 751 165 715 q 231 813 231 787 q 202 831 231 829 q 127 899 127 836 q 158 970 127 939 q 231 1002 189 1002 q 330 909 330 1002 q 265 755 330 819 q 84 682 199 692 z "},"ó":{"ha":772,"x_min":68,"x_max":756,"o":"m 68 190 q 90 348 68 253 q 163 508 111 444 q 303 617 215 572 q 485 663 391 663 q 642 608 581 663 q 702 444 702 553 q 665 240 702 344 q 565 87 627 136 q 435 5 503 39 q 280 -29 367 -29 q 151 3 197 -29 q 87 85 105 35 q 68 190 68 135 m 229 195 q 260 75 229 113 q 349 38 291 38 q 421 60 389 38 q 479 141 452 83 q 523 285 506 199 q 539 441 539 371 q 505 566 539 530 q 420 601 470 601 q 329 561 368 601 q 259 405 289 521 q 229 195 229 288 m 468 704 m 305 -44 m 756 1000 q 395 741 519 837 l 359 759 l 364 768 l 476 895 q 564 994 512 936 l 574 1000 l 664 1008 l 746 1019 l 753 1015 l 756 1000 z "},"ò":{"ha":772,"x_min":68,"x_max":702,"o":"m 68 190 q 90 348 68 253 q 163 508 111 444 q 303 617 215 572 q 485 663 391 663 q 642 608 581 663 q 702 444 702 553 q 665 240 702 344 q 565 87 627 136 q 435 5 503 39 q 280 -29 367 -29 q 151 3 197 -29 q 87 85 105 35 q 68 190 68 135 m 229 195 q 260 75 229 113 q 349 38 291 38 q 421 60 389 38 q 479 141 452 83 q 523 285 506 199 q 539 441 539 371 q 505 566 539 530 q 420 601 470 601 q 329 561 368 601 q 259 405 289 521 q 229 195 229 288 m 468 704 m 305 -44 m 646 759 l 607 740 q 524 820 574 772 q 423 911 473 868 l 319 1000 l 326 1015 l 334 1019 l 484 1000 l 493 994 q 643 768 535 926 l 646 759 z "},"ô":{"ha":772,"x_min":68,"x_max":780,"o":"m 68 190 q 90 348 68 253 q 163 508 111 444 q 303 617 215 572 q 485 663 391 663 q 642 608 581 663 q 702 444 702 553 q 665 240 702 344 q 565 87 627 136 q 435 5 503 39 q 280 -29 367 -29 q 151 3 197 -29 q 87 85 105 35 q 68 190 68 135 m 229 195 q 260 75 229 113 q 349 38 291 38 q 421 60 389 38 q 479 141 452 83 q 523 285 506 199 q 539 441 539 371 q 505 566 539 530 q 420 601 470 601 q 329 561 368 601 q 259 405 289 521 q 229 195 229 288 m 468 704 m 305 -44 m 688 760 l 682 753 l 644 753 l 510 901 l 313 753 l 270 753 l 264 760 l 480 1005 l 576 1005 l 688 760 m 526 962 m 780 829 z "},"ö":{"ha":772,"x_min":68,"x_max":728,"o":"m 68 190 q 90 348 68 253 q 163 508 111 444 q 303 617 215 572 q 485 663 391 663 q 642 608 581 663 q 702 444 702 553 q 665 240 702 344 q 565 87 627 136 q 435 5 503 39 q 280 -29 367 -29 q 151 3 197 -29 q 87 85 105 35 q 68 190 68 135 m 229 195 q 260 75 229 113 q 349 38 291 38 q 421 60 389 38 q 479 141 452 83 q 523 285 506 199 q 539 441 539 371 q 505 566 539 530 q 420 601 470 601 q 329 561 368 601 q 259 405 289 521 q 229 195 229 288 m 468 704 m 305 -44 m 631 772 q 581 792 600 772 q 562 839 562 812 q 591 908 562 878 q 661 938 621 938 q 709 918 690 938 q 728 871 728 899 q 699 803 728 833 q 631 772 669 772 m 347 772 q 295 793 313 772 q 278 839 278 814 q 308 908 278 879 q 376 938 338 938 q 425 918 406 938 q 444 871 444 899 q 416 804 444 835 q 347 772 387 772 z "},"õ":{"ha":772,"x_min":68,"x_max":725,"o":"m 68 190 q 90 348 68 253 q 163 508 111 444 q 303 617 215 572 q 485 663 391 663 q 642 608 581 663 q 702 444 702 553 q 665 240 702 344 q 565 87 627 136 q 435 5 503 39 q 280 -29 367 -29 q 151 3 197 -29 q 87 85 105 35 q 68 190 68 135 m 229 195 q 260 75 229 113 q 349 38 291 38 q 421 60 389 38 q 479 141 452 83 q 523 285 506 199 q 539 441 539 371 q 505 566 539 530 q 420 601 470 601 q 329 561 368 601 q 259 405 289 521 q 229 195 229 288 m 468 704 m 305 -44 m 725 932 q 672 824 711 866 q 579 782 633 782 q 465 813 544 782 q 366 843 389 843 q 298 781 319 843 l 258 781 l 251 789 q 305 900 267 859 q 397 940 344 940 q 528 905 437 940 q 614 881 589 881 q 679 942 653 881 l 717 942 l 725 932 z "},"ŏ":{"ha":772,"x_min":68,"x_max":706,"o":"m 68 190 q 90 348 68 253 q 163 508 111 444 q 303 617 215 572 q 485 663 391 663 q 642 608 581 663 q 702 444 702 553 q 665 240 702 344 q 565 87 627 136 q 435 5 503 39 q 280 -29 367 -29 q 151 3 197 -29 q 87 85 105 35 q 68 190 68 135 m 229 195 q 260 75 229 113 q 349 38 291 38 q 421 60 389 38 q 479 141 452 83 q 523 285 506 199 q 539 441 539 371 q 505 566 539 530 q 420 601 470 601 q 329 561 368 601 q 259 405 289 521 q 229 195 229 288 m 468 704 m 305 -44 m 706 956 q 617 795 681 839 q 485 751 554 751 q 404 766 439 751 q 344 809 369 781 q 310 875 319 838 q 305 956 305 894 l 314 964 l 348 964 q 497 848 359 848 q 665 964 623 848 l 699 964 l 706 956 m 515 938 z "},"ő":{"ha":772,"x_min":68,"x_max":895,"o":"m 68 190 q 90 348 68 253 q 163 508 111 444 q 303 617 215 572 q 485 663 391 663 q 642 608 581 663 q 702 444 702 553 q 665 240 702 344 q 565 87 627 136 q 435 5 503 39 q 280 -29 367 -29 q 151 3 197 -29 q 87 85 105 35 q 68 190 68 135 m 229 195 q 260 75 229 113 q 349 38 291 38 q 421 60 389 38 q 479 141 452 83 q 523 285 506 199 q 539 441 539 371 q 505 566 539 530 q 420 601 470 601 q 329 561 368 601 q 259 405 289 521 q 229 195 229 288 m 468 704 m 305 -44 m 895 1000 q 534 741 610 800 l 498 759 l 503 768 l 615 895 q 703 994 631 914 l 713 1000 l 803 1008 l 885 1019 l 892 1015 l 895 1000 m 607 1000 q 245 741 406 859 l 210 759 l 215 768 l 327 895 q 415 994 343 914 l 425 1000 l 515 1008 l 597 1019 l 604 1015 l 607 1000 z "},"ō":{"ha":772,"x_min":68,"x_max":724,"o":"m 68 190 q 90 348 68 253 q 163 508 111 444 q 303 617 215 572 q 485 663 391 663 q 642 608 581 663 q 702 444 702 553 q 665 240 702 344 q 565 87 627 136 q 435 5 503 39 q 280 -29 367 -29 q 151 3 197 -29 q 87 85 105 35 q 68 190 68 135 m 229 195 q 260 75 229 113 q 349 38 291 38 q 421 60 389 38 q 479 141 452 83 q 523 285 506 199 q 539 441 539 371 q 505 566 539 530 q 420 601 470 601 q 329 561 368 601 q 259 405 289 521 q 229 195 229 288 m 468 704 m 305 -44 m 285 890 l 724 890 l 703 804 l 264 804 l 285 890 z "},"ø":{"ha":772,"x_min":24,"x_max":724,"o":"m 654 595 q 702 443 702 539 q 687 316 702 380 q 646 195 672 252 q 588 108 620 139 q 505 44 555 77 q 402 -9 454 12 q 280 -29 350 -29 q 142 9 191 -29 l 68 -76 l 60 -77 l 25 -47 l 24 -39 l 103 52 q 68 190 68 108 q 102 391 68 275 q 250 585 136 507 q 481 663 363 663 q 610 631 560 663 l 682 714 l 690 715 l 724 684 l 724 675 l 654 595 m 229 194 l 525 534 q 483 583 512 566 q 420 601 454 601 q 333 566 373 601 q 261 414 294 531 q 229 194 229 297 m 538 463 l 237 118 q 349 38 262 38 q 417 58 387 38 q 472 125 448 77 q 518 263 496 174 q 539 433 539 352 q 538 463 539 444 z "},"ǿ":{"ha":772,"x_min":24,"x_max":756,"o":"m 654 595 q 702 443 702 539 q 687 316 702 380 q 646 195 672 252 q 588 108 620 139 q 505 44 555 77 q 402 -9 454 12 q 280 -29 350 -29 q 142 9 191 -29 l 68 -76 l 60 -77 l 25 -47 l 24 -39 l 103 52 q 68 190 68 108 q 102 391 68 275 q 250 585 136 507 q 481 663 363 663 q 610 631 560 663 l 682 714 l 690 715 l 724 684 l 724 675 l 654 595 m 229 194 l 525 534 q 483 583 512 566 q 420 601 454 601 q 333 566 373 601 q 261 414 294 531 q 229 194 229 297 m 538 463 l 237 118 q 349 38 262 38 q 417 58 387 38 q 472 125 448 77 q 518 263 496 174 q 539 433 539 352 q 538 463 539 444 m 756 1000 q 395 741 519 837 l 359 759 l 364 768 l 476 895 q 564 994 512 936 l 574 1000 l 664 1008 l 746 1019 l 753 1015 l 756 1000 z "},"œ":{"ha":1081,"x_min":68,"x_max":1048,"o":"m 677 564 q 915 661 810 661 q 1011 631 975 661 q 1048 545 1048 600 q 1009 422 1048 478 q 873 327 970 367 q 673 270 776 286 q 665 180 665 220 q 695 90 665 115 q 767 64 725 64 q 831 75 795 64 q 890 99 867 86 q 983 155 914 112 l 990 155 l 1005 127 l 1004 119 q 811 2 884 34 q 681 -29 737 -29 q 608 -17 642 -29 q 555 14 574 -4 q 524 58 536 31 q 402 -9 459 10 q 280 -29 345 -29 q 156 -3 203 -29 q 89 74 109 24 q 68 186 68 125 q 104 393 68 284 q 170 515 132 476 q 323 627 246 591 q 475 663 401 663 q 595 641 538 663 q 677 564 651 618 m 229 195 q 260 75 229 113 q 349 38 291 38 q 421 60 389 38 q 479 141 452 83 q 523 285 506 199 q 539 441 539 371 q 505 566 539 530 q 420 601 470 601 q 329 561 368 601 q 259 405 289 521 q 229 195 229 288 m 678 307 q 868 404 819 338 q 917 526 917 469 q 898 577 917 559 q 851 595 879 595 q 754 535 795 595 q 678 307 713 475 z "},"ŕ":{"ha":541,"x_min":37,"x_max":675,"o":"m 81 -26 l 66 -9 q 144 305 120 172 q 168 492 168 437 q 153 526 168 526 q 60 471 134 526 l 50 472 l 37 494 l 38 504 q 209 633 156 602 q 287 664 262 664 q 317 649 307 664 q 327 612 327 633 q 321 562 327 589 q 270 339 316 535 l 279 339 q 347 480 311 414 q 418 589 383 547 q 478 645 452 631 q 533 659 504 659 q 568 654 551 659 l 573 647 q 554 557 563 616 q 545 463 545 498 l 530 453 q 458 482 498 482 q 396 460 425 482 q 330 368 366 437 q 268 203 294 299 q 229 3 241 107 q 152 -8 194 -3 q 81 -26 111 -14 m 675 1000 q 313 741 438 837 l 278 759 l 283 768 l 395 895 q 483 994 431 936 l 493 1000 l 583 1008 l 665 1019 l 671 1015 l 675 1000 z "},"ř":{"ha":541,"x_min":37,"x_max":661,"o":"m 81 -26 l 66 -9 q 144 305 120 172 q 168 492 168 437 q 153 526 168 526 q 60 471 134 526 l 50 472 l 37 494 l 38 504 q 209 633 156 602 q 287 664 262 664 q 317 649 307 664 q 327 612 327 633 q 321 562 327 589 q 270 339 316 535 l 279 339 q 347 480 311 414 q 418 589 383 547 q 478 645 452 631 q 533 659 504 659 q 568 654 551 659 l 573 647 q 554 557 563 616 q 545 463 545 498 l 530 453 q 458 482 498 482 q 396 460 425 482 q 330 368 366 437 q 268 203 294 299 q 229 3 241 107 q 152 -8 194 -3 q 81 -26 111 -14 m 661 998 l 445 753 l 349 753 l 237 998 l 243 1005 l 281 1005 l 415 857 l 612 1005 l 655 1005 l 661 998 z "},"ŗ":{"ha":541,"x_min":-27,"x_max":573,"o":"m 81 -26 l 66 -9 q 144 305 120 172 q 168 492 168 437 q 153 526 168 526 q 60 471 134 526 l 50 472 l 37 494 l 38 504 q 209 633 156 602 q 287 664 262 664 q 317 649 307 664 q 327 612 327 633 q 321 562 327 589 q 270 339 316 535 l 279 339 q 347 480 311 414 q 418 589 383 547 q 478 645 452 631 q 533 659 504 659 q 568 654 551 659 l 573 647 q 554 557 563 616 q 545 463 545 498 l 530 453 q 458 482 498 482 q 396 460 425 482 q 330 368 366 437 q 268 203 294 299 q 229 3 241 107 q 152 -8 194 -3 q 81 -26 111 -14 m -26 -385 l -27 -370 q 84 -316 54 -352 q 115 -261 115 -279 q 88 -243 115 -245 q 16 -179 16 -239 q 45 -110 16 -140 q 119 -79 75 -79 q 187 -108 163 -79 q 210 -175 210 -136 q 150 -311 210 -248 q -26 -385 90 -374 z "},"ś":{"ha":616,"x_min":37,"x_max":675,"o":"m 70 200 l 100 200 l 106 194 l 109 134 q 182 77 135 101 q 281 53 229 53 q 348 64 318 53 q 393 102 378 75 q 408 158 408 130 q 396 203 408 184 q 362 233 383 222 q 294 254 341 244 q 198 278 226 270 q 148 304 170 287 q 111 353 125 322 q 96 421 96 385 q 110 491 96 458 q 150 549 124 525 q 232 608 175 573 q 319 653 289 644 q 394 663 350 663 q 563 620 486 663 q 539 461 549 555 l 533 456 l 503 456 l 497 461 l 490 524 q 417 570 459 553 q 335 586 374 586 q 256 558 288 586 q 224 488 224 531 q 256 420 224 441 q 379 382 288 399 q 474 355 443 370 q 525 307 505 340 q 545 228 545 273 q 526 145 545 181 q 446 61 506 109 q 340 -5 385 14 q 222 -24 294 -24 q 147 -18 185 -24 q 40 14 109 -13 l 37 21 q 53 105 44 44 q 64 194 62 166 l 70 200 m 675 1000 q 313 741 438 837 l 278 759 l 283 768 l 395 895 q 483 994 431 936 l 493 1000 l 583 1008 l 665 1019 l 671 1015 l 675 1000 z "},"ŝ":{"ha":616,"x_min":37,"x_max":699,"o":"m 70 200 l 100 200 l 106 194 l 109 134 q 182 77 135 101 q 281 53 229 53 q 348 64 318 53 q 393 102 378 75 q 408 158 408 130 q 396 203 408 184 q 362 233 383 222 q 294 254 341 244 q 198 278 226 270 q 148 304 170 287 q 111 353 125 322 q 96 421 96 385 q 110 491 96 458 q 150 549 124 525 q 232 608 175 573 q 319 653 289 644 q 394 663 350 663 q 563 620 486 663 q 539 461 549 555 l 533 456 l 503 456 l 497 461 l 490 524 q 417 570 459 553 q 335 586 374 586 q 256 558 288 586 q 224 488 224 531 q 256 420 224 441 q 379 382 288 399 q 474 355 443 370 q 525 307 505 340 q 545 228 545 273 q 526 145 545 181 q 446 61 506 109 q 340 -5 385 14 q 222 -24 294 -24 q 147 -18 185 -24 q 40 14 109 -13 l 37 21 q 53 105 44 44 q 64 194 62 166 l 70 200 m 606 760 l 600 753 l 563 753 l 429 901 l 231 753 l 189 753 l 183 760 l 399 1005 l 494 1005 l 606 760 m 444 962 m 699 829 z "},"š":{"ha":616,"x_min":37,"x_max":661,"o":"m 70 200 l 100 200 l 106 194 l 109 134 q 182 77 135 101 q 281 53 229 53 q 348 64 318 53 q 393 102 378 75 q 408 158 408 130 q 396 203 408 184 q 362 233 383 222 q 294 254 341 244 q 198 278 226 270 q 148 304 170 287 q 111 353 125 322 q 96 421 96 385 q 110 491 96 458 q 150 549 124 525 q 232 608 175 573 q 319 653 289 644 q 394 663 350 663 q 563 620 486 663 q 539 461 549 555 l 533 456 l 503 456 l 497 461 l 490 524 q 417 570 459 553 q 335 586 374 586 q 256 558 288 586 q 224 488 224 531 q 256 420 224 441 q 379 382 288 399 q 474 355 443 370 q 525 307 505 340 q 545 228 545 273 q 526 145 545 181 q 446 61 506 109 q 340 -5 385 14 q 222 -24 294 -24 q 147 -18 185 -24 q 40 14 109 -13 l 37 21 q 53 105 44 44 q 64 194 62 166 l 70 200 m 661 998 l 445 753 l 349 753 l 237 998 l 243 1005 l 281 1005 l 415 857 l 612 1005 l 655 1005 l 661 998 z "},"ș":{"ha":616,"x_min":37,"x_max":563,"o":"m 70 200 l 100 200 l 106 194 l 109 134 q 182 77 135 101 q 281 53 229 53 q 348 64 318 53 q 393 102 378 75 q 408 158 408 130 q 396 203 408 184 q 362 233 383 222 q 294 254 341 244 q 198 278 226 270 q 148 304 170 287 q 111 353 125 322 q 96 421 96 385 q 110 491 96 458 q 150 549 124 525 q 232 608 175 573 q 319 653 289 644 q 394 663 350 663 q 563 620 486 663 q 539 461 549 555 l 533 456 l 503 456 l 497 461 l 490 524 q 417 570 459 553 q 335 586 374 586 q 256 558 288 586 q 224 488 224 531 q 256 420 224 441 q 379 382 288 399 q 474 355 443 370 q 525 307 505 340 q 545 228 545 273 q 526 145 545 181 q 446 61 506 109 q 340 -5 385 14 q 222 -24 294 -24 q 147 -18 185 -24 q 40 14 109 -13 l 37 21 q 53 105 44 44 q 64 194 62 166 l 70 200 m 96 -385 l 95 -370 q 207 -316 176 -352 q 237 -261 237 -279 q 210 -243 237 -245 q 138 -179 138 -239 q 167 -110 138 -140 q 241 -79 197 -79 q 309 -108 286 -79 q 332 -175 332 -136 q 272 -311 332 -248 q 96 -385 212 -374 z "},"ş":{"ha":616,"x_min":37,"x_max":563,"o":"m 269 -21 l 220 -95 q 253 -92 235 -92 q 347 -122 317 -92 q 376 -187 376 -152 q 332 -275 376 -239 q 204 -311 287 -311 q 132 -304 163 -311 q 67 -281 102 -296 l 65 -273 l 85 -241 l 94 -237 q 186 -257 143 -257 q 240 -241 219 -257 q 260 -198 260 -224 q 242 -159 260 -174 q 197 -145 224 -145 q 151 -152 177 -145 l 136 -136 l 212 -24 q 40 14 133 -23 l 37 21 q 53 105 44 44 q 64 194 62 166 l 70 200 l 100 200 l 106 194 l 109 134 q 182 77 135 101 q 281 53 229 53 q 348 64 318 53 q 393 102 378 75 q 408 158 408 130 q 396 203 408 184 q 362 233 383 222 q 294 254 341 244 q 198 278 226 270 q 148 304 170 287 q 111 353 125 322 q 96 421 96 385 q 110 491 96 458 q 150 549 124 525 q 232 608 175 573 q 319 653 289 644 q 394 663 350 663 q 563 620 486 663 q 539 461 549 555 l 533 456 l 503 456 l 497 461 l 490 524 q 417 570 459 553 q 335 586 374 586 q 256 559 288 586 q 224 488 224 532 q 256 420 224 441 q 379 382 288 399 q 474 355 443 370 q 525 307 505 340 q 545 228 545 273 q 528 149 545 182 q 464 76 511 116 q 373 11 417 37 q 269 -21 328 -14 z "},"ț":{"ha":541,"x_min":20,"x_max":570,"o":"m 214 564 l 73 564 l 68 570 l 72 594 l 80 602 q 233 648 136 615 q 242 713 234 663 q 256 840 256 789 q 378 878 296 848 q 425 895 416 892 l 440 878 q 378 636 418 811 l 448 636 q 563 642 530 636 l 570 631 q 555 566 561 600 l 546 559 q 436 564 496 564 l 363 564 q 336 434 352 507 l 308 301 l 287 198 q 277 142 279 155 q 275 119 275 129 q 284 92 275 101 q 307 83 294 83 q 334 89 319 83 q 372 110 348 95 q 457 168 397 125 l 467 167 l 480 140 l 479 132 q 274 -5 323 18 q 195 -29 224 -29 q 135 -5 155 -29 q 115 59 115 20 q 122 121 115 84 q 160 300 129 159 q 214 564 213 545 m 22 -385 l 20 -370 q 132 -316 101 -352 q 163 -261 163 -279 q 136 -243 163 -245 q 63 -179 63 -239 q 93 -110 63 -140 q 166 -79 122 -79 q 234 -108 211 -79 q 258 -175 258 -136 q 198 -311 258 -248 q 22 -385 138 -374 z "},"ť":{"ha":541,"x_min":68,"x_max":696,"o":"m 214 564 l 73 564 l 68 570 l 72 594 l 80 602 q 233 648 136 615 q 242 713 234 663 q 256 840 256 789 q 378 878 296 848 q 425 895 416 892 l 440 878 q 378 636 418 811 l 448 636 q 563 642 530 636 l 570 631 q 555 566 561 600 l 546 559 q 436 564 496 564 l 363 564 q 336 434 352 507 l 308 301 l 287 198 q 277 142 279 155 q 275 119 275 129 q 284 92 275 101 q 307 83 294 83 q 334 89 319 83 q 372 110 348 95 q 457 168 397 125 l 467 167 l 480 140 l 479 132 q 274 -5 323 18 q 195 -29 224 -29 q 135 -5 155 -29 q 115 59 115 20 q 122 121 115 84 q 160 300 129 159 q 214 564 213 545 m 460 702 l 458 717 q 570 771 539 734 q 601 825 601 807 q 574 844 601 841 q 501 907 501 848 q 531 977 501 947 q 604 1007 560 1007 q 672 979 649 1007 q 696 911 696 950 q 636 775 696 838 q 460 702 576 712 z "}}}
